<svg width="143" height="40" viewBox="0 0 143 40" fill="none" xmlns="http://www.w3.org/2000/svg">
<g opacity="0.6">
<path fill-rule="evenodd" clip-rule="evenodd" d="M28.7756 6.66447H28.4828H27.2988V0H20.5669V6.66447H13.8349V0H7.11622V6.66447H0.384277V13.3289H7.11622V26.671H0.384277V33.3356H7.11622V40H13.8482V33.3356H20.5801V40H27.3121V33.3356H28.4961C35.8267 33.4146 41.8403 27.3428 41.9201 20.0988C41.9866 12.8416 36.1061 6.74349 28.7756 6.66447ZM28.6956 26.671C28.6292 26.671 28.5626 26.671 28.4961 26.671H13.8615V13.3421H28.4961C32.168 13.2894 35.1881 16.2134 35.2414 19.8486C35.2813 23.4705 32.3543 26.6183 28.6956 26.671Z" fill="#00CFBE"/>
<path d="M50.0215 30.5959V9.46973H57.7778C59.5208 9.46973 61.0507 9.74632 62.3545 10.2995C63.6716 10.8527 64.7626 11.6034 65.6407 12.5649C66.5188 13.5132 67.184 14.6327 67.6231 15.9102C68.062 17.1879 68.2882 18.5577 68.2882 20.0064C68.2882 21.6133 68.0488 23.0621 67.5565 24.366C67.0643 25.67 66.3591 26.7763 65.4411 27.6982C64.5232 28.6202 63.4189 29.3315 62.1151 29.8451C60.8113 30.3588 59.3745 30.609 57.7778 30.609H50.0215V30.5959ZM64.1107 20.0064C64.1107 18.9923 63.9644 18.0571 63.685 17.2142C63.4056 16.3581 62.9931 15.6337 62.4477 15.0147C61.9023 14.3956 61.237 13.9214 60.452 13.5922C59.667 13.2498 58.7625 13.0917 57.7646 13.0917H54.1592V27.0002H57.7646C58.789 27.0002 59.6937 26.8158 60.4787 26.4602C61.2637 26.1046 61.9288 25.6173 62.461 24.985C62.9931 24.366 63.3923 23.6285 63.6716 22.7723C63.9644 21.9162 64.1107 20.9942 64.1107 20.0064Z" fill="white"/>
<path d="M86.2356 26.8166C85.2244 28.6341 83.761 29.5693 83.4549 29.7404C81.6057 30.86 79.7963 30.8864 78.9049 30.8864C77.6411 30.8864 76.4969 30.6756 75.4858 30.241C74.4746 29.8064 73.5966 29.24 72.8781 28.5024C72.1597 27.7648 71.6009 26.9219 71.2151 25.9473C70.8293 24.9726 70.6296 23.9585 70.6296 22.8785C70.6296 21.7721 70.8159 20.7184 71.2018 19.7437C71.5876 18.756 72.1331 17.8999 72.8515 17.1622C73.5699 16.4247 74.448 15.832 75.4858 15.3974C76.5234 14.9628 77.6676 14.7388 78.9582 14.7388C80.2353 14.7388 81.3928 14.9628 82.404 15.3974C83.415 15.832 84.2798 16.4247 84.985 17.1491C85.6902 17.8866 86.2356 18.7297 86.6081 19.7043C86.9806 20.6789 87.1669 21.6931 87.1669 22.7335C87.1669 22.997 87.1669 23.2341 87.1535 23.4712C87.1403 23.7081 87.1136 23.9058 87.0737 24.0639H74.9003C74.9669 24.6829 75.1132 25.2229 75.3527 25.697C75.5922 26.1712 75.8982 26.5795 76.284 26.9219C76.6698 27.2644 77.0955 27.5146 77.5745 27.699C78.0535 27.8833 78.559 27.9624 79.0779 27.9624C79.8762 27.9624 80.6345 27.7648 81.3529 27.3829C82.0581 27.001 82.5503 26.4873 82.8164 25.855C84.1202 25.855 85.4107 25.855 86.7146 25.8683C86.5815 26.1185 86.4485 26.4477 86.2356 26.8166ZM82.9893 21.4955C82.8828 20.3233 82.4571 19.3881 81.6856 18.6901C80.9138 17.992 79.9826 17.6364 78.8783 17.6364C78.3328 17.6364 77.8273 17.7286 77.3616 17.913C76.896 18.0974 76.4703 18.3608 76.111 18.7033C75.7519 19.0457 75.4591 19.4408 75.2197 19.9281C74.9935 20.4024 74.8604 20.9291 74.8205 21.5087H82.9893V21.4955Z" fill="white"/>
<path d="M98.9007 18.4525C97.6766 18.4789 96.5858 18.7029 95.6278 19.1506C94.67 19.5985 93.9782 20.2702 93.5523 21.1527V30.583H89.5212V15.0018H93.2198V18.334C93.4992 17.794 93.8318 17.3198 94.2176 16.8852C94.6034 16.4637 95.0026 16.0818 95.4549 15.7658C95.8939 15.4496 96.3462 15.1993 96.7853 15.0414C97.2377 14.87 97.6766 14.791 98.0891 14.791C98.3153 14.791 98.475 14.791 98.5813 14.791C98.6878 14.791 98.7943 14.8043 98.9007 14.8174V18.4525Z" fill="white"/>
<path d="M101.296 30.5963V15.002H105.327V30.5831H101.296V30.5963Z" fill="white"/>
<path d="M126.401 30.5963V15.002H130.432V30.5831H126.401V30.5963Z" fill="white"/>
<path d="M138.827 30.8725C136.34 30.8725 135.102 29.529 135.102 26.8552V18.4391H132.907V15.0541H135.102V9.45654H139.014V15.0674H142.433V18.4523H139.014V26.3021C139.014 27.0923 139.373 27.4875 140.092 27.4875C140.916 27.4875 141.755 27.2636 142.619 26.8289V30.1611C141.648 30.609 140.078 30.8725 138.827 30.8725Z" fill="white"/>
<path d="M103.306 13.4341C104.416 13.4341 105.315 12.5437 105.315 11.4453C105.315 10.347 104.416 9.45654 103.306 9.45654C102.197 9.45654 101.297 10.347 101.297 11.4453C101.297 12.5437 102.197 13.4341 103.306 13.4341Z" fill="white"/>
<path d="M128.411 13.4215C129.521 13.4215 130.42 12.531 130.42 11.4326C130.42 10.3343 129.521 9.44385 128.411 9.44385C127.302 9.44385 126.402 10.3343 126.402 11.4326C126.402 12.531 127.302 13.4215 128.411 13.4215Z" fill="white"/>
<path d="M116.743 30.8992C115.519 30.8992 114.442 30.6226 113.484 30.0826C112.526 29.5426 112.114 29.0157 111.768 28.2519V30.5963H107.67V9.44385H111.741V17.5702C112.313 16.6088 113.058 15.8581 113.976 15.3181C114.894 14.7912 115.985 14.5146 117.222 14.5146C118.26 14.5146 119.205 14.7385 120.056 15.1731C120.908 15.621 121.639 16.2137 122.265 16.9513C122.89 17.6888 123.356 18.5713 123.702 19.5723C124.034 20.5733 124.207 21.6402 124.207 22.7333C124.207 23.8792 124.021 24.9459 123.648 25.9338C123.276 26.9217 122.744 27.7777 122.078 28.5153C121.413 29.2528 120.615 29.8324 119.697 30.2538C118.779 30.6886 117.794 30.8992 116.743 30.8992ZM115.613 27.4617C116.265 27.4617 116.863 27.3299 117.409 27.0797C117.954 26.8294 118.42 26.487 118.806 26.0655C119.191 25.644 119.497 25.1567 119.71 24.5904C119.923 24.024 120.03 23.4182 120.03 22.7859C120.03 22.1406 119.923 21.5348 119.724 20.9421C119.524 20.3625 119.231 19.8488 118.859 19.401C118.486 18.9533 118.047 18.6108 117.528 18.3473C117.023 18.084 116.464 17.9523 115.852 17.9523C114.934 17.9523 114.123 18.2552 113.404 18.8479C112.686 19.4406 112.127 20.165 111.741 21.0342V24.8011C111.887 25.2094 112.087 25.565 112.366 25.8811C112.646 26.1973 112.952 26.4738 113.298 26.7109C113.644 26.948 114.016 27.1192 114.429 27.2509C114.828 27.3957 115.227 27.4617 115.613 27.4617Z" fill="white"/>
</g>
</svg>
