<svg width="155" height="40" viewBox="0 0 155 40" fill="none" xmlns="http://www.w3.org/2000/svg">
<g opacity="0.6">
<path d="M5.20692 13.0353C7.88604 13.0353 10.0579 10.8535 10.0579 8.16216C10.0579 5.47083 7.88604 3.28906 5.20692 3.28906C2.52781 3.28906 0.355957 5.47083 0.355957 8.16216C0.355957 10.8535 2.52781 13.0353 5.20692 13.0353Z" fill="white"/>
<path d="M27.4244 13.0356H20.7059C19.8813 13.0356 19.2021 12.3535 19.2021 11.525V4.77581C19.2021 3.94738 19.8813 3.26514 20.7059 3.26514H27.4244C28.2491 3.26514 28.9283 3.94738 28.9283 4.77581V11.525C28.9283 12.3778 28.2491 13.0356 27.4244 13.0356Z" fill="#00FFB9"/>
<path d="M10.0582 17.1992H9.76716H2.39369C1.25372 17.1992 0.332031 18.1252 0.332031 19.2703V26.9698V34.6449C0.332031 35.7901 1.25372 36.716 2.39369 36.716H7.99655C9.13654 36.716 10.0582 35.7901 10.0582 34.6449V29.0409C10.0582 27.8957 10.9799 26.9698 12.1199 26.9698H17.4316C18.5716 26.9698 19.4933 26.044 19.4933 24.8987V19.2703C19.4933 18.1252 18.5716 17.1992 17.4316 17.1992H10.0582Z" fill="#00DAFF"/>
<path d="M47.2646 0H50.1268V17.0071H47.2646V0Z" fill="white"/>
<path d="M53.1831 5.87212H56.0452V6.96856C56.7001 6.14014 57.646 5.65283 58.7374 5.65283C59.9988 5.65283 61.1388 6.31069 61.9149 7.40714C62.6425 6.33506 63.7825 5.65283 65.2135 5.65283C67.5663 5.65283 69.3126 7.52897 69.3126 9.96552V17.0072H66.4505V10.1848C66.4505 9.08835 65.6744 8.21121 64.6072 8.21121C63.4428 8.21121 62.691 9.16145 62.691 10.3066V17.0072H59.829V10.1848C59.829 9.08835 59.0527 8.21121 57.9371 8.21121C56.7971 8.21121 56.0694 9.16145 56.0694 10.3066V17.0072H53.1831V5.87212Z" fill="white"/>
<path d="M71.9565 5.87212H74.8186V7.06603C75.6917 6.18887 76.8803 5.65283 78.3355 5.65283C81.319 5.65283 83.793 8.21121 83.793 11.4518C83.793 14.6925 81.319 17.2508 78.3355 17.2508C76.8803 17.2508 75.6917 16.7148 74.8186 15.8376V22.1239H71.9565V5.87212ZM80.9551 11.4518C80.9551 9.67313 79.5483 8.25993 77.802 8.25993C76.0556 8.25993 74.6245 9.67313 74.6245 11.4518C74.6245 13.2305 76.0556 14.6437 77.802 14.6437C79.5483 14.6193 80.9551 13.2061 80.9551 11.4518Z" fill="white"/>
<path d="M85.2236 11.4518C85.2236 8.23557 87.7461 5.65283 91.0933 5.65283C94.3919 5.65283 96.9387 8.21121 96.9387 11.4518C96.9387 14.6925 94.3919 17.2508 91.0933 17.2508C87.7461 17.2264 85.2236 14.6681 85.2236 11.4518ZM94.1736 11.4518C94.1736 9.6975 92.7912 8.33304 91.0933 8.33304C89.3227 8.33304 87.9402 9.6975 87.9402 11.4518C87.9402 13.2061 89.3227 14.5949 91.0933 14.5949C92.7912 14.5707 94.1736 13.1817 94.1736 11.4518Z" fill="white"/>
<path d="M98.103 15.5696L99.7039 13.5959C100.48 14.4 101.499 14.8873 102.372 14.8873C103.245 14.8873 103.779 14.4244 103.779 13.8153C103.779 13.0355 102.881 12.8406 101.547 12.3777C99.8251 11.7685 98.3698 10.9888 98.3698 9.03958C98.3698 6.77359 100.31 5.62842 102.445 5.62842C104.045 5.62842 105.404 6.26191 106.253 7.21217L104.579 8.91776C103.948 8.28425 103.1 7.84568 102.348 7.84568C101.644 7.84568 101.183 8.21115 101.183 8.79593C101.183 9.55126 101.984 9.77055 103.269 10.1848C104.919 10.7452 106.592 11.5005 106.592 13.7177C106.592 15.9838 104.846 17.202 102.445 17.202C100.553 17.2264 99.0005 16.4467 98.103 15.5696Z" fill="white"/>
<path d="M107.587 15.5696L109.188 13.5959C109.964 14.4 110.983 14.8873 111.856 14.8873C112.729 14.8873 113.262 14.4244 113.262 13.8153C113.262 13.0355 112.365 12.8406 111.031 12.3777C109.309 11.7685 107.854 10.9888 107.854 9.03958C107.854 6.77359 109.794 5.62842 111.928 5.62842C113.529 5.62842 114.888 6.26191 115.737 7.21217L114.063 8.91776C113.432 8.28425 112.583 7.84568 111.831 7.84568C111.128 7.84568 110.667 8.21115 110.667 8.79593C110.667 9.55126 111.468 9.77055 112.753 10.1848C114.402 10.7452 116.076 11.5005 116.076 13.7177C116.076 15.9838 114.33 17.202 111.928 17.202C110.037 17.2264 108.484 16.4467 107.587 15.5696Z" fill="white"/>
<path d="M117.968 2.24133C117.968 1.31545 118.744 0.584473 119.641 0.584473C120.563 0.584473 121.315 1.31545 121.315 2.24133C121.315 3.16721 120.563 3.89818 119.641 3.89818C118.72 3.89818 117.968 3.16721 117.968 2.24133ZM118.235 5.87178H121.048V17.0068H118.235V5.87178Z" fill="white"/>
<path d="M126.773 15.5696L126.7 17.0071H124.032V0H126.894V7.13907C127.743 6.11573 129.077 5.60405 130.435 5.60405C133.539 5.60405 135.989 8.18679 135.989 11.4274C135.989 14.668 133.539 17.2507 130.435 17.2507C128.907 17.2263 127.597 16.6173 126.773 15.5696ZM133.127 11.4274C133.127 9.59999 131.745 8.1868 129.949 8.1868C128.179 8.1868 126.773 9.59999 126.773 11.4274C126.773 13.2548 128.179 14.6924 129.949 14.6924C131.745 14.6924 133.127 13.2548 133.127 11.4274Z" fill="white"/>
<path d="M138.22 0H141.058V17.0071H138.22V0Z" fill="white"/>
<path d="M154.883 11.9391H146.152C146.37 13.7421 147.656 14.9116 149.281 14.9116C150.444 14.9116 151.537 14.3269 152.119 13.3035L154.399 14.2538C153.501 16.0812 151.633 17.2264 149.304 17.2264C145.788 17.2264 143.362 14.668 143.362 11.4274C143.362 8.18679 145.837 5.62842 149.208 5.62842C152.41 5.62842 154.859 7.8944 154.908 11.3056L154.883 11.9391ZM146.444 9.77055H151.876C151.416 8.64973 150.542 7.94314 149.232 7.94314C147.873 7.91878 146.928 8.62537 146.444 9.77055Z" fill="white"/>
<path d="M47.2646 21.6123H57.8155V24.4874H50.1268V28.6784H56.9423V31.5535H50.1268V38.6194H47.2646V21.6123Z" fill="white"/>
<path d="M59.6348 23.8537C59.6348 22.9277 60.411 22.1968 61.3083 22.1968C62.2301 22.1968 62.982 22.9277 62.982 23.8537C62.982 24.7796 62.2301 25.5106 61.3083 25.5106C60.3867 25.5106 59.6348 24.7796 59.6348 23.8537ZM59.9015 27.4841H62.7152V38.6192H59.9015V27.4841Z" fill="white"/>
<path d="M65.6985 27.4845H68.5364V28.5078C69.3367 27.7037 70.3798 27.2651 71.4955 27.2651C73.727 27.2651 75.4733 29.0926 75.4733 31.4317V38.6438H72.6112V31.7971C72.6112 30.6276 71.7381 29.7992 70.5981 29.7992C69.4095 29.7992 68.5364 30.652 68.5122 31.7971V38.6438H65.6743V27.4845H65.6985Z" fill="white"/>
<path d="M77.4624 33.0397C77.4624 29.8234 79.9606 27.2163 82.9439 27.2163C84.5206 27.2163 85.7333 27.8011 86.5579 28.7513V27.4843H89.4201V38.6193H86.7521L86.6793 37.1817C85.8546 38.2295 84.5933 38.8386 82.9439 38.8386C79.9364 38.8386 77.4624 36.2802 77.4624 33.0397ZM86.6307 33.0397C86.6307 31.261 85.2482 29.8478 83.4776 29.8478C81.7069 29.8478 80.3002 31.261 80.3002 33.0397C80.3002 34.8184 81.6827 36.2559 83.4776 36.2559C85.2482 36.2315 86.6307 34.794 86.6307 33.0397Z" fill="white"/>
<path d="M92.3787 27.4845H95.2166V28.5078C96.0169 27.7037 97.0599 27.2651 98.1757 27.2651C100.407 27.2651 102.153 29.0926 102.153 31.4317V38.6438H99.2913V31.7971C99.2913 30.6276 98.4181 29.7992 97.2783 29.7992C96.0897 29.7992 95.2166 30.652 95.1922 31.7971V38.6438H92.3545V27.4845H92.3787Z" fill="white"/>
<path d="M104.143 33.0641C104.143 29.848 106.665 27.2651 110.012 27.2651C110.837 27.2651 111.662 27.4357 112.365 27.7525V30.9444C111.807 30.2866 110.982 29.8722 110.012 29.8722C108.217 29.8722 106.883 31.2855 106.883 33.0641C106.883 34.8428 108.193 36.2317 110.012 36.2317C110.982 36.2317 111.807 35.8174 112.365 35.1596V38.3758C111.662 38.6926 110.837 38.8631 110.012 38.8631C106.665 38.8387 104.143 36.2804 104.143 33.0641Z" fill="white"/>
<path d="M125.56 33.5513H116.828C117.047 35.3544 118.332 36.5239 119.957 36.5239C121.121 36.5239 122.213 35.9392 122.795 34.9158L125.075 35.866C124.178 37.6935 122.31 38.8386 119.981 38.8386C116.464 38.8386 114.039 36.2802 114.039 33.0397C114.039 29.799 116.513 27.2407 119.885 27.2407C123.086 27.2407 125.536 29.5067 125.584 32.9178L125.56 33.5513ZM117.095 31.3828H122.528C122.067 30.262 121.194 29.5554 119.885 29.5554C118.55 29.531 117.58 30.2376 117.095 31.3828Z" fill="white"/>
</g>
</svg>
