<svg width="132" height="38" viewBox="0 0 132 38" fill="none" xmlns="http://www.w3.org/2000/svg">
<g opacity="0.6">
<path d="M102.759 14.2197C106.226 14.2197 110.163 15.5579 110.399 19.8401H105.552C105.451 18.6022 104.307 18.0335 102.793 18.0335C101.379 18.0335 100.74 18.5688 100.74 19.2044C100.74 19.7397 101.144 20.2415 102.423 20.4757L105.485 20.9775C108.548 21.5463 110.567 23.0183 110.567 25.8954C110.567 29.6423 107.168 31.382 102.927 31.382C98.6532 31.382 95.1868 29.6089 94.8503 25.2932L99.6965 25.3267C99.9321 26.7318 101.11 27.3674 102.826 27.3674C104.274 27.3674 105.149 26.9325 105.149 26.2299C105.149 25.6947 104.644 25.2597 103.567 25.0925L100.269 24.5237C97.4417 24.0554 95.4897 22.483 95.4897 19.6393C95.4897 16.227 98.4176 14.2197 102.759 14.2197ZM82.3306 14.2828C84.1112 14.2828 85.5894 14.7506 86.7989 15.5193V14.6504H92.2414V30.8585H86.7989V29.9562C85.5894 30.7248 84.1112 31.1927 82.3306 31.1927C77.9295 31.1927 74.234 27.55 74.234 22.7377C74.234 17.892 77.9295 14.2828 82.3306 14.2828ZM50.4519 8.09928L58.6127 20.2587L66.7398 8.09928H70.9888V30.8772H65.2897V19.4547L60.1977 27.2595V27.293H57.0277V27.2595L51.9019 19.3877L51.9357 30.8772H46.2366V8.09928H50.4519ZM119.017 7.15283V20.7526L124.713 14.6711H131.217L125.016 21.2872L131.756 30.8772H125.218L121.309 25.2635L119.017 27.7028V30.8772H113.558V7.15283H119.017ZM83.4057 18.694C81.1883 18.694 79.5757 20.4987 79.5757 22.7377C79.5757 24.9768 81.1883 26.748 83.4057 26.748C84.6151 26.748 85.791 26.4138 86.7989 25.2441V20.2313C85.791 19.0616 84.6151 18.694 83.4057 18.694Z" fill="white"/>
<path d="M37.2464 19C37.2464 28.9455 29.2225 37 19.3344 37C9.44621 37 1.42236 28.9455 1.42236 19C1.42236 9.05449 9.44621 1 19.3344 1C29.2225 1 37.2464 9.05449 37.2464 19Z" stroke="white" stroke-width="2"/>
<path fill-rule="evenodd" clip-rule="evenodd" d="M30.7493 14.3293V20.639H11.6058L10.7822 20.6391C11.6539 24.4675 15.1135 27.3272 19.2487 27.3272C22.6673 27.3272 25.6243 25.3726 27.039 22.532L30.7493 22.5319V27.832C30.7493 29.0865 29.7208 30.1035 28.4521 30.1035H10.0743C8.8056 30.1035 7.7771 29.0865 7.7771 27.832V14.3293H30.7493ZM24.8357 22.532C23.6174 24.2932 21.5695 25.4489 19.2487 25.4489C16.9278 25.4489 14.88 24.2932 13.6617 22.532H24.8357ZM14.3497 15.8436C12.5495 15.8436 11.0601 17.1599 10.8124 18.8723L12.7706 18.8723C12.9859 18.2132 13.6115 17.7365 14.3497 17.7365C15.0879 17.7365 15.7135 18.2132 15.9288 18.8723L17.887 18.8723C17.6393 17.1599 16.15 15.8436 14.3497 15.8436ZM24.1767 15.8436C22.3765 15.8436 20.8871 17.1599 20.6394 18.8723L22.5976 18.8723C22.8129 18.2132 23.4385 17.7365 24.1767 17.7365C24.9149 17.7365 25.5405 18.2132 25.7558 18.8723L27.714 18.8723C27.4663 17.1599 25.9769 15.8436 24.1767 15.8436ZM28.4521 7.38867C29.7208 7.38867 30.7493 8.40565 30.7493 9.66015V12.4364H7.7771V9.66015C7.7771 8.40565 8.8056 7.38867 10.0743 7.38867H28.4521Z" fill="white"/>
</g>
</svg>
