<svg width="56" height="56" viewBox="0 0 56 56" fill="none" xmlns="http://www.w3.org/2000/svg">
<path d="M32.5609 32.9154L31.3206 30.7519C30.1919 28.1116 32.1956 25.2832 34.849 24.8872H34.8644C37.7475 24.5832 38.71 25.8541 39.9897 28.0044C40.9719 29.715 43.144 33.2916 43.144 34.9147C43.1457 35.4815 43.0372 36.0431 42.8247 36.5685L42.7765 36.6472L42.7328 36.7391C42.3803 37.5021 41.8167 38.1482 41.1087 38.601C40.4007 39.0538 39.5778 39.2945 38.7373 39.2945C37.8969 39.2945 37.074 39.0538 36.366 38.601C35.6579 38.1482 35.0943 37.5021 34.7419 36.7391L34.7003 36.6472L32.7687 33.2829L32.795 33.2982L32.5609 32.9154ZM25.4537 10.5C23.9906 11.1737 22.815 12.3462 22.1375 13.8075L17.2222 22.3738C15.5312 25.3204 11.0665 31.7188 11.0665 34.9125C11.0624 36.6102 11.6919 38.2483 12.8319 39.5063H12.8144C13.4509 40.2204 14.231 40.7922 15.1036 41.1842C15.9762 41.5763 16.9218 41.7797 17.8784 41.7813C22.8812 41.7813 26.029 35.0875 28.8159 31.2244L32.5762 37.7738C33.0298 38.7578 33.7126 39.6188 34.5674 40.2846C35.4222 40.9505 36.4241 41.4018 37.4892 41.6008C38.5542 41.7998 39.6515 41.7407 40.689 41.4284C41.7266 41.1161 42.6742 40.5598 43.4525 39.806V39.841C44.1133 39.2039 44.6388 38.44 44.9974 37.595C45.356 36.7501 45.5403 35.8414 45.5394 34.9235C45.5394 32.6047 43.2665 28.8204 42.0153 26.7269C41.2278 25.3554 40.9215 24.6269 39.4975 23.6425L39.4778 23.6272L39.4537 23.6119L39.4122 23.5813L39.375 23.5572C38.465 22.9622 36.995 22.4219 35.9034 22.4635H35.8619C34.5494 22.4416 33.4556 22.6363 32.27 23.275C30.7715 24.0297 28.6169 26.4907 26.9894 29.2404C25.1803 31.931 21.619 38.8807 18.5347 39.3379H17.8369C17.2603 39.3379 16.6894 39.2239 16.157 39.0025C15.6247 38.7812 15.1413 38.4568 14.7347 38.048C14.3282 37.6391 14.0064 37.154 13.788 36.6204C13.5695 36.0868 13.4587 35.5154 13.4619 34.9388C13.4619 32.6047 18.014 25.8322 19.2915 23.6054L24.2594 14.9472L24.3009 14.8554C24.6538 14.0925 25.2176 13.4466 25.9258 12.9939C26.634 12.5412 27.457 12.3006 28.2975 12.3006C29.138 12.3006 29.961 12.5412 30.6691 12.9939C31.3773 13.4466 31.9412 14.0925 32.294 14.8554L32.3356 14.9472L35.9734 21.291C37.1005 21.3231 38.2075 21.5969 39.2197 22.0938L34.4619 13.8075C34.088 12.9985 33.5583 12.2711 32.9031 11.6669C32.2479 11.0628 31.48 10.5937 30.6434 10.2865C29.8068 9.97932 28.9178 9.84006 28.0273 9.87671C27.1368 9.91335 26.2623 10.1252 25.4537 10.5Z" fill="white"/>
<path d="M2.38219 28C2.38219 22.9333 3.88465 17.9803 6.69957 13.7675C9.51449 9.55468 13.5154 6.27118 18.1965 4.33223C22.8775 2.39328 28.0284 1.88596 32.9978 2.87443C37.9672 3.8629 42.5318 6.30276 46.1145 9.88547C49.6972 13.4682 52.1371 18.0328 53.1256 23.0022C54.114 27.9716 53.6067 33.1225 51.6678 37.8035C49.7288 42.4846 46.4453 46.4855 42.2325 49.3004C38.0197 52.1154 33.0667 53.6178 28 53.6178C21.208 53.6103 14.6964 50.9089 9.89378 46.1062C5.09114 41.3036 2.38971 34.792 2.38219 28ZM0 28C0 33.5379 1.64217 38.9514 4.71885 43.556C7.79553 48.1605 12.1685 51.7494 17.2849 53.8686C22.4012 55.9879 28.0311 56.5424 33.4625 55.462C38.894 54.3816 43.8831 51.7149 47.799 47.799C51.7149 43.8831 54.3816 38.894 55.462 33.4625C56.5424 28.0311 55.9879 22.4012 53.8686 17.2849C51.7494 12.1685 48.1605 7.79553 43.556 4.71885C38.9514 1.64217 33.5379 0 28 0C20.5764 0.00810624 13.4592 2.9607 8.20996 8.20996C2.9607 13.4592 0.00810624 20.5764 0 28" fill="white"/>
</svg>
