<svg width="173" height="60" viewBox="0 0 173 60" fill="none" xmlns="http://www.w3.org/2000/svg">
<path fill-rule="evenodd" clip-rule="evenodd" d="M80.7597 25.2133L77.9718 32.2969H83.53L80.7597 25.2133ZM78.7784 19.7428H82.7234L90.6486 40.3273H86.5808L84.9677 36.0841H76.5341L74.8859 40.3273H70.8181L78.7784 19.7428ZM116.072 24.1963V26.1952C116.441 25.4062 116.914 24.8276 117.528 24.4067C118.141 24.0035 118.79 23.7931 119.509 23.7931C120.017 23.7931 120.561 23.9333 121.104 24.1963L119.877 27.6154C119.421 27.3875 119.036 27.2647 118.737 27.2647C118.141 27.2647 117.615 27.6329 117.194 28.3869C116.774 29.1408 116.563 30.6136 116.563 32.8053L116.581 33.5768V39.9415H112.636V24.1963H116.072ZM129.152 27.4401C127.925 27.4401 126.908 27.8609 126.102 28.7375C125.295 29.5967 124.892 30.7013 124.892 32.0514C124.892 33.419 125.295 34.5236 126.137 35.4178C126.961 36.2945 127.978 36.7329 129.187 36.7329C130.432 36.7329 131.467 36.2945 132.273 35.4354C133.097 34.5762 133.501 33.4365 133.501 32.0339C133.501 30.6662 133.097 29.5616 132.273 28.7025C131.449 27.8609 130.415 27.4401 129.152 27.4401ZM133.325 24.1963H137.27V39.959H133.325V38.2758C132.554 39.0122 131.782 39.5382 130.993 39.8538C130.222 40.1695 129.363 40.3448 128.469 40.3448C126.417 40.3448 124.664 39.5558 123.173 37.9778C121.683 36.3997 120.947 34.4535 120.947 32.104C120.947 29.6844 121.666 27.6855 123.103 26.1426C124.541 24.5996 126.294 23.8106 128.346 23.8106C129.293 23.8106 130.187 23.9859 131.011 24.3366C131.835 24.6873 132.607 25.2308 133.325 25.9322V24.1963ZM155.348 27.405L152.051 29.211C151.438 28.5622 150.824 28.1239 150.228 27.8609C149.632 27.6154 148.913 27.4927 148.106 27.4927C146.633 27.4927 145.424 27.931 144.512 28.8077C143.6 29.6844 143.144 30.8065 143.144 32.1917C143.144 33.5242 143.583 34.6113 144.459 35.4704C145.336 36.3121 146.493 36.7329 147.931 36.7329C149.702 36.7329 151.069 36.1367 152.051 34.9269L155.172 37.066C153.489 39.2577 151.104 40.3623 148.019 40.3623C145.248 40.3623 143.074 39.5382 141.496 37.9076C139.936 36.277 139.147 34.3483 139.147 32.1566C139.147 30.6312 139.532 29.2285 140.286 27.9485C141.058 26.6686 142.11 25.6516 143.495 24.9328C144.863 24.1963 146.388 23.8281 148.071 23.8281C149.632 23.8281 151.052 24.1437 152.297 24.7574C153.542 25.3711 154.559 26.2653 155.348 27.405ZM168.603 30.1052C168.34 29.246 167.832 28.5447 167.06 28.0011C166.289 27.4576 165.394 27.1946 164.377 27.1946C163.273 27.1946 162.308 27.4927 161.467 28.1063C160.941 28.4745 160.467 29.1583 160.012 30.1052H168.603ZM172.531 33.1911H159.836C160.012 34.3132 160.502 35.2074 161.292 35.8737C162.081 36.54 163.097 36.8731 164.325 36.8731C165.798 36.8731 167.06 36.3647 168.112 35.3126L171.426 36.8731C170.602 38.0479 169.602 38.9246 168.445 39.4856C167.288 40.0467 165.92 40.3273 164.325 40.3273C161.87 40.3273 159.854 39.5558 158.311 37.9953C156.768 36.4348 155.979 34.4886 155.979 32.1566C155.979 29.7545 156.75 27.7557 158.311 26.1776C159.854 24.5821 161.8 23.7931 164.132 23.7931C166.604 23.7931 168.621 24.5821 170.181 26.1601C171.742 27.7381 172.513 29.8246 172.513 32.4196L172.531 33.1911ZM106.902 27.0193V33.8924C106.902 34.436 106.867 35.7861 106.99 36.2945C107.06 36.5926 107.235 36.8205 107.481 36.9959C107.744 37.1887 108.042 37.2589 108.358 37.2589C108.831 37.2589 109.392 37.1011 109.865 36.9433L110.164 39.7662C109.182 40.1519 108.112 40.3097 107.06 40.3097C106.376 40.3097 105.71 40.2045 105.079 39.9415C104.605 39.7486 104.132 39.4506 103.834 39.0122C103.518 38.5564 103.36 37.9602 103.273 37.4342C103.115 36.54 103.15 35.3477 103.15 34.436V27.0368H101.169V24.1437H103.15V20.7948L106.92 18.5681V24.1437H109.865V27.0193H106.902ZM99.3453 27.0193H96.3996V33.8924C96.3996 34.436 96.3646 35.7861 96.4873 36.2945C96.5574 36.5926 96.7328 36.8205 96.9782 36.9959C97.2413 37.1887 97.5393 37.2589 97.8549 37.2589C98.3283 37.2589 98.8894 37.1011 99.3628 36.9433L99.6609 39.7662C98.679 40.1519 97.6095 40.3097 96.5574 40.3097C95.8736 40.3097 95.2074 40.2045 94.5586 39.9415C94.0852 39.7486 93.6118 39.4506 93.3137 39.0122C92.9981 38.5564 92.8403 37.9602 92.7527 37.4342C92.5949 36.54 92.6124 35.3477 92.6124 34.436V27.0368H90.6486V24.1437H92.6299V20.7948L96.3996 18.5681V24.1437H99.3453V27.0193Z" fill="url(#paint0_linear_1772_3792)"/>
<path d="M2.55991 30C2.55991 14.8685 14.8685 2.55991 30 2.55991C45.1315 2.55991 57.4401 14.8685 57.4401 30C57.4401 45.1315 45.1315 57.4401 30 57.4401C14.8685 57.4401 2.55991 45.1315 2.55991 30ZM0 30C0 46.5342 13.4658 60 30 60C46.5342 60 60 46.5342 60 30C60 13.4658 46.5342 0 30 0C13.4658 0 0 13.4658 0 30Z" fill="url(#paint1_linear_1772_3792)"/>
<path d="M34.8918 35.2601L33.5592 32.9456C32.3494 30.1227 34.4885 27.0894 37.3465 26.6686H37.364C40.4499 26.3355 41.4844 27.7031 42.852 30C43.9041 31.8235 46.236 35.6634 46.236 37.3992C46.236 38.0129 46.1133 38.609 45.8854 39.1701L45.8328 39.2577L45.7802 39.3629C45.3068 40.3799 44.5002 41.204 43.4833 41.6598C41.1162 42.7469 38.3108 41.7124 37.2238 39.3629L37.1712 39.2577L35.1022 35.6458L35.1373 35.6633L34.8918 35.2601ZM27.2647 11.239C25.7042 11.9579 24.4418 13.2203 23.7054 14.7984L18.4453 23.986C16.6393 27.142 11.8526 33.9977 11.8526 37.4167C11.8526 39.2402 12.5189 40.976 13.7463 42.3261H13.7287C15.1139 43.8691 17.0777 44.7633 19.1466 44.7633C24.5119 44.7633 27.8784 37.592 30.8591 33.4541L34.8918 40.4676C36.575 44.1146 40.9058 45.7101 44.5353 44.0093C45.2717 43.6762 45.9555 43.2028 46.5341 42.6417V42.6768C47.9719 41.2916 48.7784 39.398 48.7784 37.4167C48.7784 34.9269 46.3412 30.8767 45.0087 28.6324C44.1671 27.1596 43.8339 26.3881 42.3085 25.3361L42.2734 25.301L42.2208 25.2659H42.2033L42.1682 25.2309C41.1864 24.5996 39.6083 24.021 38.4511 24.0561H38.3985C36.9783 24.0386 35.8035 24.249 34.5587 24.9328C32.9456 25.7393 30.6487 28.3869 28.8953 31.315C26.9491 34.2081 23.1443 41.6423 19.8304 42.1333H19.094C16.499 42.1333 14.395 40.0117 14.4125 37.4167C14.4125 34.9094 19.2869 27.668 20.6545 25.2659L25.9847 15.9906L26.0373 15.8854C27.1244 13.5184 29.9298 12.4839 32.2968 13.5885C33.3138 14.0619 34.1378 14.8685 34.5937 15.8854L34.6463 15.9906L38.5388 22.7761C39.7486 22.8288 40.9409 23.1268 42.0104 23.6704L36.9082 14.7808C35.6808 12.1157 33.0508 10.5552 30.298 10.5552C29.2986 10.5728 28.2641 10.7832 27.2647 11.239Z" fill="url(#paint2_linear_1772_3792)"/>
<defs>
<linearGradient id="paint0_linear_1772_3792" x1="70.8181" y1="40.3623" x2="169.748" y2="9.61449" gradientUnits="userSpaceOnUse">
<stop offset="0.0001" stop-color="#C766FF"/>
<stop offset="1" stop-color="#FF7F89"/>
</linearGradient>
<linearGradient id="paint1_linear_1772_3792" x1="-2.23517e-07" y1="60" x2="63.7132" y2="55.7569" gradientUnits="userSpaceOnUse">
<stop offset="0.0001" stop-color="#C766FF"/>
<stop offset="1" stop-color="#FF7F89"/>
</linearGradient>
<linearGradient id="paint2_linear_1772_3792" x1="-2.23517e-07" y1="60" x2="63.7132" y2="55.7569" gradientUnits="userSpaceOnUse">
<stop offset="0.0001" stop-color="#C766FF"/>
<stop offset="1" stop-color="#FF7F89"/>
</linearGradient>
</defs>
</svg>
