<?xml version="1.0" encoding="utf-8"?>
<!-- Generator: Adobe Illustrator 23.0.3, SVG Export Plug-In . SVG Version: 6.00 Build 0)  -->
<svg version="1.1" id="Layer_1" xmlns="http://www.w3.org/2000/svg" xmlns:xlink="http://www.w3.org/1999/xlink" x="0px" y="0px"
	 viewBox="0 0 115 40" style="enable-background:new 0 0 115 40;" xml:space="preserve">
<style type="text/css">
	.st0{fill:url(#SVGID_1_);}
	.st1{fill:url(#SVGID_2_);}
	.st2{fill-rule:evenodd;clip-rule:evenodd;fill:url(#SVGID_3_);}
</style>
	<g>
	<linearGradient id="SVGID_1_" gradientUnits="userSpaceOnUse" x1="11.6496" y1="30.7201" x2="28.774" y2="13.5957">
		<stop  offset="0" style="stop-color:#C766FF"/>
		<stop  offset="1" style="stop-color:#FF7F89"/>
	</linearGradient>
		<path class="st0" d="M23.3,23.5L22.4,22c-0.8-1.9,0.6-3.9,2.5-4.2l0,0c2.1-0.2,2.7,0.7,3.7,2.2c0.7,1.2,2.3,3.8,2.3,4.9
		c0,0.4-0.1,0.8-0.2,1.2l0,0.1l0,0.1c-0.3,0.7-0.9,1.2-1.5,1.5c-1.6,0.7-3.4,0-4.2-1.5l0-0.1l-1.4-2.4l0,0L23.3,23.5z M18.2,7.5
		c-1,0.5-1.9,1.3-2.4,2.4L12.3,16c-1.2,2.1-4.4,6.7-4.4,9c0,1.2,0.4,2.4,1.3,3.3h0c0.9,1,2.2,1.6,3.6,1.6c3.6,0,5.8-4.8,7.8-7.5
		l2.7,4.7c1.1,2.4,4,3.5,6.4,2.4c0.5-0.2,0.9-0.5,1.3-0.9v0c1-0.9,1.5-2.2,1.5-3.5c0-1.7-1.6-4.4-2.5-5.9c-0.6-1-0.8-1.5-1.8-2.2
		l0,0l0,0l0,0h0l0,0l0,0c-0.7-0.4-1.7-0.8-2.5-0.8l0,0c-0.9,0-1.7,0.1-2.6,0.6v0c-1.1,0.5-2.6,2.3-3.8,4.3c-1.3,1.9-3.8,6.9-6,7.2
		l-0.5,0c-1.7,0-3.1-1.4-3.1-3.1c0,0,0,0,0,0c0-1.7,3.3-6.5,4.2-8.1l3.5-6.2l0-0.1C18.1,9,20,8.3,21.5,9.1c0.7,0.3,1.2,0.9,1.5,1.5
		l0,0.1l2.6,4.5c0.8,0,1.6,0.2,2.3,0.6l-3.4-5.9C23.8,8.1,22,7,20.2,7C19.5,7,18.8,7.2,18.2,7.5"/>
		<linearGradient id="SVGID_2_" gradientUnits="userSpaceOnUse" x1="5.8645" y1="34.1356" x2="34.1356" y2="5.8644">
		<stop  offset="0" style="stop-color:#C766FF"/>
			<stop  offset="1" style="stop-color:#FF7F89"/>
	</linearGradient>
		<path class="st1" d="M1.7,20C1.7,9.9,9.9,1.7,20,1.7c10.1,0,18.3,8.2,18.3,18.3c0,10.1-8.2,18.3-18.3,18.3
		C9.9,38.3,1.7,30.1,1.7,20 M0,20c0,11,9,20,20,20c11,0,20-9,20-20C40,9,31,0,20,0C9,0,0,9,0,20"/>
		<linearGradient id="SVGID_3_" gradientUnits="userSpaceOnUse" x1="47.203" y1="27.0087" x2="114.4674" y2="13.2919">
		<stop  offset="0" style="stop-color:#C766FF"/>
			<stop  offset="0.9918" style="stop-color:#FF7F89"/>
	</linearGradient>
		<path class="st2" d="M53.8,16.8l-1.9,4.7h3.7L53.8,16.8z M52.5,13.2h2.6l5.3,13.7h-2.7l-1.1-2.8H51l-1.1,2.8h-2.7L52.5,13.2z
		 M75.1,16.1h2.3v1.3c0.2-0.5,0.6-0.9,1-1.2c0.4-0.3,0.8-0.4,1.3-0.4c0.3,0,0.7,0.1,1.1,0.3l-0.8,2.3c-0.3-0.2-0.6-0.2-0.8-0.2
		c-0.4,0-0.7,0.3-1,0.8c-0.3,0.5-0.4,1.5-0.4,2.9l0,0.5v4.2h-2.6V16.1z M86.1,18.3c-0.8,0-1.5,0.3-2,0.9c-0.5,0.6-0.8,1.3-0.8,2.2
		c0,0.9,0.3,1.7,0.8,2.2c0.6,0.6,1.2,0.9,2,0.9c0.8,0,1.5-0.3,2.1-0.9c0.5-0.6,0.8-1.3,0.8-2.3c0-0.9-0.3-1.7-0.8-2.2
		C87.6,18.6,86.9,18.3,86.1,18.3 M88.8,16.1h2.6v10.5h-2.6v-1.1c-0.5,0.5-1,0.8-1.6,1.1c-0.5,0.2-1.1,0.3-1.7,0.3
		c-1.4,0-2.5-0.5-3.5-1.6c-1-1-1.5-2.4-1.5-3.9c0-1.6,0.5-2.9,1.4-4c1-1,2.1-1.6,3.5-1.6c0.6,0,1.2,0.1,1.8,0.4
		c0.6,0.2,1.1,0.6,1.5,1.1V16.1z M103.5,18.3l-2.2,1.2c-0.4-0.4-0.8-0.7-1.2-0.9c-0.4-0.2-0.9-0.3-1.4-0.3c-1,0-1.8,0.3-2.4,0.9
		c-0.6,0.6-0.9,1.3-0.9,2.3c0,0.9,0.3,1.6,0.9,2.2c0.6,0.6,1.4,0.8,2.3,0.8c1.2,0,2.1-0.4,2.8-1.2l2.1,1.4c-1.1,1.5-2.7,2.2-4.8,2.2
		c-1.8,0-3.3-0.5-4.3-1.6c-1-1.1-1.6-2.4-1.6-3.8c0-1,0.3-1.9,0.8-2.8c0.5-0.9,1.2-1.5,2.1-2c0.9-0.5,1.9-0.7,3.1-0.7
		c1,0,2,0.2,2.8,0.6C102.3,16.9,103,17.5,103.5,18.3 M112.4,20.1c-0.2-0.6-0.5-1-1-1.4c-0.5-0.4-1.1-0.5-1.8-0.5
		c-0.7,0-1.4,0.2-1.9,0.6c-0.3,0.3-0.7,0.7-1,1.3H112.4z M115,22.1h-8.5c0.1,0.7,0.4,1.3,1,1.8c0.5,0.4,1.2,0.7,2,0.7
		c1,0,1.8-0.3,2.5-1l2.2,1c-0.6,0.8-1.2,1.4-2,1.7c-0.8,0.4-1.7,0.6-2.7,0.6c-1.6,0-3-0.5-4-1.6c-1-1-1.6-2.3-1.6-3.9
		c0-1.6,0.5-2.9,1.6-4c1-1.1,2.3-1.6,3.9-1.6c1.7,0,3,0.5,4,1.6c1,1.1,1.6,2.4,1.6,4.2L115,22.1z M73.2,18h-2v4.6
		c0,0.4,0,1.3,0.1,1.6c0.1,0.2,0.2,0.3,0.3,0.5c0.2,0.1,0.4,0.2,0.6,0.2c0.3,0,0.7-0.1,1-0.2l0.2,1.9c-0.7,0.3-1.4,0.4-2.1,0.4
		c-0.5,0-0.9-0.1-1.3-0.2c-0.3-0.1-0.6-0.3-0.8-0.6c-0.2-0.3-0.3-0.7-0.4-1.1c-0.1-0.6-0.1-1.4-0.1-2V18h-1.3v-1.9h1.3v-2.2l2.5-1.5
		v3.7h2V18z M66.2,18h-2v4.6c0,0.4,0,1.3,0.1,1.6c0.1,0.2,0.2,0.3,0.3,0.5c0.2,0.1,0.4,0.2,0.6,0.2c0.3,0,0.7-0.1,1-0.2l0.2,1.9
		c-0.7,0.3-1.4,0.4-2.1,0.4c-0.5,0-0.9-0.1-1.3-0.2c-0.3-0.1-0.6-0.3-0.8-0.6c-0.2-0.3-0.3-0.7-0.4-1.1c-0.1-0.6-0.1-1.4-0.1-2V18
		h-1.3v-1.9h1.3v-2.2l2.5-1.5v3.7h2V18z"/>
</g>
</svg>
