<?xml version="1.0" encoding="utf-8"?>
<!-- Generator: Adobe Illustrator 23.0.3, SVG Export Plug-In . SVG Version: 6.00 Build 0)  -->
<svg version="1.1" xmlns="http://www.w3.org/2000/svg" xmlns:xlink="http://www.w3.org/1999/xlink" x="0px" y="0px"
	 viewBox="0 0 984.1 342.2" style="enable-background:new 0 0 984.1 342.2;" xml:space="preserve">
<style type="text/css">
	.st0{fill-rule:evenodd;clip-rule:evenodd;fill:#4279BC;}
	.st1{fill-rule:evenodd;clip-rule:evenodd;fill:#7092CB;}
	.st2{display:none;opacity:0.14;fill-rule:evenodd;clip-rule:evenodd;fill:#4279BC;}
	.st3{display:none;}
	.st4{display:inline;}
	.st5{clip-path:url(#SVGID_2_);fill:url(#SVGID_3_);}
	.st6{clip-path:url(#SVGID_5_);fill:url(#SVGID_6_);}
	.st7{clip-path:url(#SVGID_8_);fill:url(#SVGID_9_);}
	.st8{fill:#1B1C1C;stroke:#000000;stroke-miterlimit:10;}
	.st9{fill-rule:evenodd;clip-rule:evenodd;fill:#FFFFFF;}
	.st10{fill:#FFFFFF;}
	.st11{clip-path:url(#SVGID_11_);fill:url(#SVGID_12_);}
	.st12{clip-path:url(#SVGID_14_);fill:url(#SVGID_15_);}
	.st13{clip-path:url(#SVGID_17_);fill:url(#SVGID_18_);}
	.st14{clip-path:url(#SVGID_20_);fill:url(#SVGID_21_);}
	.st15{clip-path:url(#SVGID_23_);fill:url(#SVGID_24_);}
	.st16{clip-path:url(#SVGID_26_);fill:url(#SVGID_27_);}
	.st17{clip-path:url(#SVGID_29_);fill:url(#SVGID_30_);}
	.st18{clip-path:url(#SVGID_32_);fill:url(#SVGID_33_);}
	.st19{clip-path:url(#SVGID_35_);fill:url(#SVGID_36_);}
	.st20{clip-path:url(#SVGID_38_);fill:url(#SVGID_39_);}
	.st21{clip-path:url(#SVGID_41_);fill:url(#SVGID_42_);}
	.st22{clip-path:url(#SVGID_44_);fill:url(#SVGID_45_);}
	.st23{clip-path:url(#SVGID_47_);fill:url(#SVGID_48_);}
	.st24{clip-path:url(#SVGID_50_);fill:url(#SVGID_51_);}
	.st25{clip-path:url(#SVGID_53_);fill:url(#SVGID_54_);}
	.st26{display:inline;fill-rule:evenodd;clip-rule:evenodd;fill:#FFFFFF;}
	.st27{display:inline;fill:#FFFFFF;}
	.st28{fill-rule:evenodd;clip-rule:evenodd;fill:#FF7F89;}
	.st29{fill-rule:evenodd;clip-rule:evenodd;fill:#C766FF;}
	.st30{display:inline;fill:url(#SVGID_55_);}
	.st31{display:inline;fill:url(#SVGID_56_);}
	.st32{display:inline;fill-rule:evenodd;clip-rule:evenodd;fill:url(#SVGID_57_);}
	.st33{fill:url(#SVGID_58_);}
	.st34{fill:url(#SVGID_59_);}
	.st35{fill-rule:evenodd;clip-rule:evenodd;fill:url(#SVGID_60_);}
</style>
<g id="Layer_2">
	<path class="st0" d="M-6826.7,1499.5l-1.2,0c-38.3-0.6-70,5.1-104.2,23.4v0c-43.5,21.8-106,92.8-153.2,171.9
		c-52.5,77.6-155.8,277.9-245.2,291.1l-20,0c-70.1,0-126.9-56.8-126.9-126.8c0-67.3,132.1-262.5,169.1-326.7l144.1-249.6l1.2-2.6
		c21.1-45,66.2-73.7,115.9-73.7c49.7,0,94.8,28.7,115.9,73.7l1.2,2.6l105.5,182.8c33.3,1.3,65.3,9.8,94.2,24.2l-138.1-239.1
		c-32.5-69.2-102-113.6-178.8-113.6c-76.7,0-146.3,44.4-178.8,113.6l-142.6,247c-49,84.9-178.5,269.4-178.5,361.4
		c0,50.9,19.4,97.3,51.2,132.2h-0.5c36.8,41,89.9,65.5,146.9,65.5c145.1,0,236.4-193,317.3-304.3l109,188.8
		c32.5,69.2,102,113.6,178.8,113.6c51.9,0,100.6-20.3,136.7-54.9v1c37.3-35.8,60.5-86,60.5-141.8c0-66.8-65.9-175.9-102.2-236.3
		c-22.9-39.5-31.9-60.5-73-88.9l-0.6-0.4l-0.7-0.5l-1.2-0.9l-0.1,0l-0.3-0.2l-1.1-0.7C-6752.4,1514.1-6795,1498.5-6826.7,1499.5
		 M-6625.6,1906.8c6-14.7,9.3-30.8,9.3-47.7c0-46.8-63.1-149.9-91.5-199.2c-37.1-62-65.1-98.6-148.7-89.9l-0.5,0.1
		c-77.1,11.2-135.1,92.9-102.3,169l36,62.4l6.8,10.9l-0.7-0.4l56,97l1.2,2.6c21.1,45,66.2,73.7,115.9,73.7
		c49.7,0,94.8-28.7,115.9-73.7l1.2-2.6L-6625.6,1906.8z"/>
	<path class="st0" d="M-6982.8,471.7l-0.4,0c-11.2-0.2-20.4,1.5-30.3,6.8v0c-12.6,6.3-30.8,27-44.6,50
		c-15.3,22.6-45.3,80.9-71.4,84.7l-5.8,0c-20.4,0-36.9-16.5-36.9-36.9c0-19.6,38.4-76.4,49.2-95.1l41.9-72.6l0.4-0.8
		c6.1-13.1,19.3-21.4,33.7-21.4c14.5,0,27.6,8.4,33.7,21.4l0.4,0.8l30.7,53.2c9.7,0.4,19,2.9,27.4,7l-40.2-69.6
		c-9.5-20.1-29.7-33.1-52-33.1c-22.3,0-42.6,12.9-52,33.1l-41.5,71.9c-14.3,24.7-51.9,78.4-51.9,105.2c0,14.8,5.6,28.3,14.9,38.5
		h-0.1c10.7,11.9,26.2,19.1,42.8,19.1c42.2,0,68.8-56.2,92.4-88.6l31.7,55c9.5,20.1,29.7,33.1,52,33.1c15.1,0,29.3-5.9,39.8-16v0.3
		c10.9-10.4,17.6-25,17.6-41.3c0-19.4-19.2-51.2-29.8-68.8c-6.7-11.5-9.3-17.6-21.3-25.9l-0.2-0.1l-0.2-0.1l-0.4-0.2l0,0l-0.1,0
		l-0.3-0.2C-6961.1,475.9-6973.5,471.4-6982.8,471.7 M-6924.2,590.2c1.7-4.3,2.7-9,2.7-13.9c0-13.6-18.4-43.6-26.6-58
		c-10.8-18.1-18.9-28.7-43.3-26.2l-0.1,0c-22.4,3.3-39.3,27-29.8,49.2l10.5,18.2l2,3.2l-0.2-0.1l16.3,28.2l0.4,0.8
		c6.1,13.1,19.3,21.4,33.7,21.4c14.5,0,27.6-8.4,33.7-21.4l0.4-0.8L-6924.2,590.2z"/>
	<g>
		<path class="st1" d="M-11666.9,1570.3l-0.3,0c-10.5-0.2-19.2,1.4-28.5,6.4v0c-11.9,6-29,25.4-42,47.1
			c-14.4,21.3-42.7,76.1-67.2,79.7l-5.5,0c-19.2,0-34.8-15.5-34.8-34.7c0-18.4,36.2-71.9,46.3-89.5l39.5-68.4l0.3-0.7
			c5.8-12.3,18.1-20.2,31.8-20.2c13.6,0,26,7.9,31.8,20.2l0.3,0.7l28.9,50.1c9.1,0.4,17.9,2.7,25.8,6.6l-37.8-65.5
			c-8.9-19-28-31.1-49-31.1c-21,0-40.1,12.2-49,31.1l-39.1,67.7c-13.4,23.3-48.9,73.8-48.9,99c0,13.9,5.3,26.7,14,36.2h-0.1
			c10.1,11.2,24.6,17.9,40.2,17.9c39.7,0,64.8-52.9,86.9-83.4l29.9,51.7c8.9,19,28,31.1,49,31.1c14.2,0,27.6-5.6,37.4-15v0.3
			c10.2-9.8,16.6-23.6,16.6-38.8c0-18.3-18-48.2-28-64.7c-6.3-10.8-8.7-16.6-20-24.4l-0.2-0.1l-0.2-0.1l-0.3-0.2l0,0l-0.1,0
			l-0.3-0.2C-11646.6,1574.2-11658.3,1570-11666.9,1570.3 M-11611.9,1681.8c1.6-4,2.5-8.4,2.5-13.1c0-12.8-17.3-41.1-25.1-54.6
			c-10.2-17-17.8-27-40.7-24.6l-0.1,0c-21.1,3.1-37,25.5-28,46.3l9.9,17.1l1.9,3l-0.2-0.1l15.3,26.6l0.3,0.7
			c5.8,12.3,18.1,20.2,31.8,20.2c13.6,0,26-7.9,31.8-20.2l0.3-0.7L-11611.9,1681.8z"/>
		<path class="st1" d="M-11477.5,1553.1l-19.2,48.9h38.4L-11477.5,1553.1z M-11491.2,1515.4h27.2l54.6,142h-28.1l-11.1-29.3h-58.2
			l-11.3,29.3h-28.1L-11491.2,1515.4z"/>
		<path class="st1" d="M-11267.4,1546.1h23.6v13.8c2.5-5.4,5.9-9.5,10-12.3c4.2-2.8,8.8-4.2,13.7-4.2c3.5,0,7.2,0.9,11.1,2.8
			l-8.5,23.5c-3.2-1.6-5.8-2.4-7.8-2.4c-4.2,0-7.7,2.6-10.6,7.8c-2.9,5.2-4.3,15.4-4.3,30.5l0.1,5.3v43.9h-27.2V1546.1z"/>
		<path class="st1" d="M-11157,1568.4c-8.5,0-15.5,3-21.1,8.9c-5.6,5.9-8.4,13.6-8.4,22.9c0,9.4,2.8,17.1,8.5,23.2
			c5.7,6,12.7,9.1,21,9.1c8.6,0,15.7-3,21.3-8.9c5.7-5.9,8.5-13.8,8.5-23.4c0-9.5-2.8-17.1-8.5-23
			C-11141.2,1571.4-11148.3,1568.4-11157,1568.4 M-11128.2,1546.1h27.2v108.8h-27.2v-11.6c-5.3,5.1-10.7,8.7-16.1,10.9
			c-5.4,2.2-11.2,3.3-17.4,3.3c-14.1,0-26.3-5.4-36.5-16.3c-10.3-10.9-15.4-24.4-15.4-40.5c0-16.8,5-30.5,14.9-41.2
			c9.9-10.7,22-16,36.2-16c6.5,0,12.7,1.2,18.4,3.6c5.7,2.4,11,6.1,15.9,11V1546.1z"/>
		<path class="st1" d="M-10979.6,1568.2l-22.7,12.5c-4.3-4.5-8.5-7.5-12.6-9.3c-4.2-1.7-9-2.6-14.6-2.6c-10.2,0-18.5,3-24.7,9.1
			c-6.3,6.1-9.5,13.8-9.5,23.3c0,9.2,3,16.7,9.1,22.6c6.1,5.8,14,8.7,23.9,8.7c12.2,0,21.7-4.2,28.5-12.5l21.5,14.7
			c-11.7,15.2-28.1,22.7-49.4,22.7c-19.2,0-34.1-5.7-45-17c-10.8-11.3-16.3-24.5-16.3-39.7c0-10.5,2.6-20.2,7.9-29
			c5.3-8.8,12.6-15.8,22.1-20.9c9.4-5,20-7.6,31.6-7.6c10.8,0,20.5,2.1,29.1,6.5C-10992.1,1554.2-10985,1560.3-10979.6,1568.2"/>
		<path class="st1" d="M-10891.5,1586.9c-1.8-5.9-5.4-10.8-10.6-14.5c-5.3-3.7-11.5-5.6-18.5-5.6c-7.6,0-14.3,2.1-20,6.3
			c-3.6,2.6-6.9,7.2-10,13.8H-10891.5z M-10864.3,1608.2h-87.6c1.3,7.7,4.6,13.9,10.1,18.5c5.5,4.6,12.5,6.9,20.9,6.9
			c10.2,0,18.9-3.6,26.2-10.7l22.9,10.8c-5.7,8.1-12.6,14.1-20.5,18.1c-8,3.9-17.5,5.8-28.4,5.8c-17,0-30.9-5.4-41.5-16.1
			c-10.7-10.7-16.1-24.2-16.1-40.3c0-16.6,5.4-30.3,16.1-41.2c10.7-11,24.1-16.4,40.2-16.4c17.1,0,31,5.5,41.8,16.3
			c10.7,10.9,16.1,25.3,16.1,43.2L-10864.3,1608.2z"/>
		<path class="st1" d="M-11281.8,1545.6h-20.4v-38.5l-26,15.4v23.1h-13.7v19.9h13.7v51.1c0,6.3-0.1,14.5,0.9,20.8
			c0.6,3.7,1.7,7.8,3.9,10.9c2.1,3,5.3,5,8.6,6.4c4.4,1.8,9,2.6,13.7,2.6c7.3,0,14.6-1.1,21.5-3.8l-2.1-19.4
			c-3.3,1.1-7.2,2.2-10.4,2.2c-2.2,0-4.3-0.5-6.1-1.8c-1.7-1.2-2.9-2.8-3.4-4.8c-0.9-3.6-0.6-12.8-0.6-16.6v-47.4h20.4V1545.6z"/>
		<path class="st1" d="M-11350.9,1545.6h-20.4v-38.5l-26,15.4v23.1h-13.7v19.9h13.7v51.1c0,6.3-0.1,14.5,0.9,20.8
			c0.6,3.7,1.7,7.8,3.9,10.9c2.1,3,5.3,5,8.6,6.4c4.4,1.8,9,2.6,13.7,2.6c7.3,0,14.6-1.1,21.5-3.8l-2.1-19.4
			c-3.3,1.1-7.2,2.2-10.4,2.2c-2.2,0-4.3-0.5-6.1-1.8c-1.7-1.2-2.9-2.8-3.4-4.8c-0.9-3.6-0.6-12.8-0.6-16.6v-47.4h20.4V1545.6z"/>
	</g>
	<g>
		<path class="st1" d="M-11544,484.2l-0.2,0c-6.2-0.1-11.4,0.8-16.9,3.8v0c-7.1,3.5-17.2,15.1-24.9,28
			c-8.5,12.6-25.3,45.2-39.9,47.4l-3.3,0c-11.4,0-20.6-9.2-20.6-20.6c0-10.9,21.5-42.7,27.5-53.2l23.4-40.6l0.2-0.4
			c3.4-7.3,10.8-12,18.9-12c8.1,0,15.4,4.7,18.9,12l0.2,0.4l17.2,29.7c5.4,0.2,10.6,1.6,15.3,3.9l-22.5-38.9
			c-5.3-11.3-16.6-18.5-29.1-18.5c-12.5,0-23.8,7.2-29.1,18.5l-23.2,40.2c-8,13.8-29,43.8-29,58.8c0,8.3,3.2,15.8,8.3,21.5h-0.1
			c6,6.7,14.6,10.7,23.9,10.7c23.6,0,38.5-31.4,51.6-49.5l17.7,30.7c5.3,11.3,16.6,18.5,29.1,18.5c8.5,0,16.4-3.3,22.2-8.9v0.2
			c6.1-5.8,9.8-14,9.8-23.1c0-10.9-10.7-28.6-16.6-38.5c-3.7-6.4-5.2-9.8-11.9-14.5l-0.1-0.1l-0.1-0.1l-0.2-0.1l0,0l0,0l-0.2-0.1
			C-11531.9,486.5-11538.9,484-11544,484.2 M-11511.3,550.4c1-2.4,1.5-5,1.5-7.8c0-7.6-10.3-24.4-14.9-32.4
			c-6-10.1-10.6-16-24.2-14.6l-0.1,0c-12.5,1.8-22,15.1-16.6,27.5l5.9,10.2l1.1,1.8l-0.1-0.1l9.1,15.8l0.2,0.4
			c3.4,7.3,10.8,12,18.9,12c8.1,0,15.4-4.7,18.9-12l0.2-0.4L-11511.3,550.4z"/>
		<path class="st1" d="M-11431.5,474l-11.4,29h22.8L-11431.5,474z M-11439.6,451.5h16.2l32.5,84.3h-16.7l-6.6-17.4h-34.6l-6.7,17.4
			h-16.7L-11439.6,451.5z"/>
		<path class="st1" d="M-11306.7,469.8h14v8.2c1.5-3.2,3.5-5.6,6-7.3c2.5-1.7,5.2-2.5,8.1-2.5c2.1,0,4.3,0.5,6.6,1.7l-5,14
			c-1.9-1-3.4-1.4-4.7-1.4c-2.5,0-4.6,1.5-6.3,4.6c-1.7,3.1-2.6,9.1-2.6,18.1l0.1,3.1v26.1h-16.2V469.8z"/>
		<path class="st1" d="M-11241.1,483.1c-5,0-9.2,1.8-12.5,5.3c-3.3,3.5-5,8.1-5,13.6c0,5.6,1.7,10.2,5.1,13.8
			c3.4,3.6,7.5,5.4,12.5,5.4c5.1,0,9.3-1.8,12.7-5.3c3.4-3.5,5-8.2,5-13.9c0-5.6-1.7-10.2-5-13.6
			C-11231.7,484.8-11236,483.1-11241.1,483.1 M-11224,469.8h16.2v64.6h-16.2v-6.9c-3.2,3-6.3,5.2-9.5,6.5c-3.2,1.3-6.7,2-10.4,2
			c-8.4,0-15.6-3.2-21.7-9.7c-6.1-6.5-9.1-14.5-9.1-24.1c0-10,3-18.1,8.9-24.5c5.9-6.3,13.1-9.5,21.5-9.5c3.9,0,7.5,0.7,10.9,2.2
			c3.4,1.4,6.6,3.6,9.5,6.5V469.8z"/>
		<path class="st1" d="M-11135.7,482.9l-13.5,7.4c-2.5-2.7-5-4.5-7.5-5.5c-2.5-1-5.4-1.5-8.7-1.5c-6.1,0-11,1.8-14.7,5.4
			c-3.8,3.6-5.6,8.2-5.6,13.8c0,5.5,1.8,9.9,5.4,13.4c3.6,3.5,8.3,5.2,14.2,5.2c7.2,0,12.9-2.5,16.9-7.4l12.8,8.8
			c-6.9,9-16.7,13.5-29.3,13.5c-11.4,0-20.3-3.4-26.7-10.1c-6.4-6.7-9.7-14.6-9.7-23.6c0-6.2,1.6-12,4.7-17.2
			c3.1-5.3,7.5-9.4,13.1-12.4c5.6-3,11.9-4.5,18.8-4.5c6.4,0,12.2,1.3,17.3,3.8C-11143.1,474.6-11139,478.2-11135.7,482.9"/>
		<path class="st1" d="M-11083.4,494c-1.1-3.5-3.2-6.4-6.3-8.6c-3.2-2.2-6.8-3.3-11-3.3c-4.5,0-8.5,1.2-11.9,3.7
			c-2.1,1.5-4.1,4.3-5.9,8.2H-11083.4z M-11067.2,506.7h-52c0.8,4.6,2.8,8.3,6,11c3.3,2.7,7.4,4.1,12.4,4.1c6,0,11.2-2.1,15.6-6.4
			l13.6,6.4c-3.4,4.8-7.5,8.4-12.2,10.7c-4.8,2.3-10.4,3.5-16.9,3.5c-10.1,0-18.3-3.2-24.7-9.6c-6.4-6.4-9.5-14.4-9.5-23.9
			c0-9.8,3.2-18,9.5-24.5c6.3-6.5,14.3-9.7,23.9-9.7c10.2,0,18.4,3.2,24.8,9.7c6.4,6.5,9.5,15,9.5,25.7L-11067.2,506.7z"/>
		<path class="st1" d="M-11315.2,469.5h-12.1v-22.9l-15.4,9.1v13.7h-8.1v11.8h8.1v30.3c0,3.8-0.1,8.6,0.5,12.3
			c0.4,2.2,1,4.6,2.3,6.5c1.2,1.8,3.2,3,5.1,3.8c2.6,1.1,5.4,1.5,8.2,1.5c4.4,0,8.7-0.6,12.8-2.2l-1.2-11.5c-2,0.7-4.3,1.3-6.2,1.3
			c-1.3,0-2.6-0.3-3.6-1.1c-1-0.7-1.7-1.7-2-2.9c-0.6-2.1-0.4-7.6-0.4-9.9v-28.2h12.1V469.5z"/>
		<path class="st1" d="M-11356.3,469.5h-12.1v-22.9l-15.4,9.1v13.7h-8.1v11.8h8.1v30.3c0,3.8-0.1,8.6,0.5,12.3
			c0.4,2.2,1,4.6,2.3,6.5c1.2,1.8,3.2,3,5.1,3.8c2.6,1.1,5.4,1.5,8.2,1.5c4.4,0,8.7-0.6,12.7-2.2l-1.2-11.5c-2,0.7-4.3,1.3-6.2,1.3
			c-1.3,0-2.5-0.3-3.6-1.1c-1-0.7-1.7-1.7-2-2.9c-0.6-2.1-0.4-7.6-0.4-9.9v-28.2h12.1V469.5z"/>
	</g>
	<path class="st1" d="M-10025.7,1499.5l-1.2,0c-38.3-0.6-70,5.1-104.2,23.4v0c-43.5,21.8-106,92.8-153.2,171.9
		c-52.5,77.6-155.8,277.9-245.2,291.1l-20,0c-70.1,0-126.9-56.8-126.9-126.8c0-67.3,132.1-262.5,169.1-326.7l144.1-249.6l1.2-2.6
		c21.1-45,66.2-73.7,115.9-73.7c49.7,0,94.8,28.7,115.9,73.7l1.2,2.6l105.5,182.8c33.3,1.3,65.3,9.8,94.2,24.2l-138.1-239.1
		c-32.5-69.2-102-113.6-178.8-113.6c-76.7,0-146.3,44.4-178.8,113.6l-142.6,247c-49,84.9-178.5,269.4-178.5,361.4
		c0,50.9,19.4,97.3,51.2,132.2h-0.5c36.8,41,89.9,65.5,146.9,65.5c145.1,0,236.4-193,317.3-304.3l109,188.8
		c32.5,69.2,102,113.6,178.8,113.6c51.9,0,100.6-20.3,136.7-54.9v1c37.3-35.8,60.5-86,60.5-141.8c0-66.8-65.9-175.9-102.2-236.3
		c-22.9-39.5-31.9-60.5-73-88.9l-0.6-0.4l-0.7-0.5l-1.2-0.9l-0.1,0l-0.3-0.2l-1.1-0.7C-9951.4,1514.1-9994.1,1498.5-10025.7,1499.5
		 M-9824.7,1906.8c6-14.7,9.3-30.8,9.3-47.7c0-46.8-63.1-149.9-91.5-199.2c-37.1-62-65.1-98.6-148.7-89.9l-0.5,0.1
		c-77.1,11.2-135.1,92.9-102.3,169l36,62.4l6.8,10.9l-0.7-0.4l56,97l1.2,2.6c21.1,45,66.2,73.7,115.9,73.7
		c49.7,0,94.8-28.7,115.9-73.7l1.2-2.6L-9824.7,1906.8z"/>
	<path class="st1" d="M-10181.8,471.7l-0.4,0c-11.2-0.2-20.4,1.5-30.3,6.8v0c-12.6,6.3-30.8,27-44.6,50
		c-15.3,22.6-45.3,80.9-71.4,84.7l-5.8,0c-20.4,0-36.9-16.5-36.9-36.9c0-19.6,38.4-76.4,49.2-95.1l41.9-72.6l0.4-0.8
		c6.1-13.1,19.3-21.4,33.7-21.4c14.5,0,27.6,8.4,33.7,21.4l0.4,0.8l30.7,53.2c9.7,0.4,19,2.9,27.4,7l-40.2-69.6
		c-9.5-20.1-29.7-33.1-52-33.1c-22.3,0-42.6,12.9-52,33.1l-41.5,71.9c-14.3,24.7-51.9,78.4-51.9,105.2c0,14.8,5.6,28.3,14.9,38.5
		h-0.1c10.7,11.9,26.2,19.1,42.8,19.1c42.2,0,68.8-56.2,92.4-88.6l31.7,55c9.5,20.1,29.7,33.1,52,33.1c15.1,0,29.3-5.9,39.8-16v0.3
		c10.9-10.4,17.6-25,17.6-41.3c0-19.4-19.2-51.2-29.8-68.8c-6.7-11.5-9.3-17.6-21.3-25.9l-0.2-0.1l-0.2-0.1l-0.4-0.2l0,0l-0.1,0
		l-0.3-0.2C-10160.2,475.9-10172.6,471.4-10181.8,471.7 M-10123.3,590.2c1.7-4.3,2.7-9,2.7-13.9c0-13.6-18.4-43.6-26.6-58
		c-10.8-18.1-18.9-28.7-43.3-26.2l-0.1,0c-22.4,3.3-39.3,27-29.8,49.2l10.5,18.2l2,3.2l-0.2-0.1l16.3,28.2l0.4,0.8
		c6.1,13.1,19.3,21.4,33.7,21.4c14.5,0,27.6-8.4,33.7-21.4l0.4-0.8L-10123.3,590.2z"/>
	<text transform="matrix(1 0 0 1 -11864.2021 -141.3519)" class="st10" style="font-family:'Poppins-SemiBold'; font-size:120px;">Old logo</text>
	<text transform="matrix(1 0 0 1 -8665.1426 -126.7079)" class="st10" style="font-family:'Poppins-SemiBold'; font-size:120px;">New logo</text>
	<text transform="matrix(1 0 0 1 -5423.73 -126.7079)" class="st10" style="font-family:'Poppins-SemiBold'; font-size:120px;">New gradient logo</text>
	<text transform="matrix(1 0 0 1 -3145.1428 -126.7077)" class="st10" style="font-family:'Poppins-SemiBold'; font-size:120px;">Updated gradient logo</text>
	<path class="st2" d="M-2898.7,466.7l-0.4,0c-13.1-0.2-24,1.7-35.6,8v0c-14.9,7.5-36.3,31.7-52.4,58.8c-18,26.6-53.3,95.1-83.9,99.6
		l-6.8,0c-24,0-43.4-19.4-43.4-43.4c0-23,45.2-89.8,57.9-111.8l49.3-85.4l0.4-0.9c7.2-15.4,22.7-25.2,39.7-25.2
		c17,0,32.4,9.8,39.7,25.2l0.4,0.9l36.1,62.5c11.4,0.5,22.4,3.4,32.2,8.3l-47.2-81.8c-11.1-23.7-34.9-38.9-61.2-38.9
		c-26.3,0-50.1,15.2-61.2,38.9l-48.8,84.5c-16.8,29.1-61.1,92.2-61.1,123.7c0,17.4,6.6,33.3,17.5,45.2h-0.2
		c12.6,14,30.8,22.4,50.3,22.4c49.7,0,80.9-66,108.6-104.1l37.3,64.6c11.1,23.7,34.9,38.9,61.2,38.9c17.8,0,34.4-7,46.8-18.8v0.3
		c12.8-12.2,20.7-29.4,20.7-48.5c0-22.9-22.5-60.2-35-80.9c-7.8-13.5-10.9-20.7-25-30.4l-0.2-0.1l-0.2-0.2l-0.4-0.3l0,0l-0.1-0.1
		l-0.4-0.2C-2873.3,471.7-2887.9,466.3-2898.7,466.7 M-2829.9,606c2-5,3.2-10.5,3.2-16.3c0-16-21.6-51.3-31.3-68.2
		c-12.7-21.2-22.3-33.7-50.9-30.7l-0.2,0c-26.4,3.8-46.2,31.8-35,57.8l12.3,21.4l2.3,3.7l-0.2-0.1l19.2,33.2l0.4,0.9
		c7.2,15.4,22.7,25.2,39.7,25.2c17,0,32.4-9.8,39.7-25.2l0.4-0.9L-2829.9,606z"/>
	<g>
		<path class="st0" d="M-8418.7,1563.6l-0.4,0c-13.1-0.2-24,1.7-35.6,8v0c-14.9,7.5-36.3,31.7-52.4,58.8
			c-18,26.6-53.3,95.1-83.9,99.6l-6.8,0c-24,0-43.4-19.4-43.4-43.4c0-23,45.2-89.8,57.9-111.8l49.3-85.4l0.4-0.9
			c7.2-15.4,22.7-25.2,39.7-25.2c17,0,32.4,9.8,39.7,25.2l0.4,0.9l36.1,62.5c11.4,0.5,22.4,3.4,32.2,8.3l-47.2-81.8
			c-11.1-23.7-34.9-38.9-61.2-38.9c-26.3,0-50.1,15.2-61.2,38.9l-48.8,84.5c-16.8,29.1-61.1,92.2-61.1,123.7
			c0,17.4,6.6,33.3,17.5,45.2h-0.2c12.6,14,30.8,22.4,50.3,22.4c49.7,0,80.9-66,108.6-104.1l37.3,64.6
			c11.1,23.7,34.9,38.9,61.2,38.9c17.8,0,34.4-7,46.8-18.8v0.3c12.8-12.2,20.7-29.4,20.7-48.5c0-22.9-22.5-60.2-35-80.9
			c-7.8-13.5-10.9-20.7-25-30.4l-0.2-0.1l-0.2-0.2l-0.4-0.3l0,0l-0.1-0.1l-0.4-0.2C-8393.3,1568.6-8407.9,1563.3-8418.7,1563.6
			 M-8349.9,1703c2-5,3.2-10.5,3.2-16.3c0-16-21.6-51.3-31.3-68.2c-12.7-21.2-22.3-33.7-50.9-30.7l-0.2,0
			c-26.4,3.8-46.2,31.8-35,57.8l12.3,21.4l2.3,3.7l-0.2-0.1l19.2,33.2l0.4,0.9c7.2,15.4,22.7,25.2,39.7,25.2
			c17,0,32.4-9.8,39.7-25.2l0.4-0.9L-8349.9,1703z"/>
		<g>
			<path class="st0" d="M-8203,1570.7l-16.3,41.5h32.6L-8203,1570.7z M-8214.6,1538.7h23.1l46.4,120.5h-23.9l-9.4-24.8h-49.4
				l-9.6,24.8h-23.9L-8214.6,1538.7z"/>
			<path class="st0" d="M-8016.1,1564.8h20v11.7c2.1-4.6,5-8.1,8.5-10.4c3.6-2.4,7.4-3.6,11.6-3.6c3,0,6.1,0.8,9.4,2.4l-7.2,20
				c-2.7-1.4-4.9-2-6.7-2c-3.5,0-6.6,2.2-9,6.6c-2.5,4.4-3.7,13-3.7,25.9l0.1,4.5v37.2h-23.1V1564.8z"/>
			<path class="st0" d="M-7919.4,1583.8c-7.2,0-13.2,2.5-17.9,7.6c-4.7,5-7.1,11.5-7.1,19.4c0,8,2.4,14.5,7.2,19.7
				c4.8,5.1,10.8,7.7,17.9,7.7c7.3,0,13.3-2.5,18.1-7.6c4.8-5,7.2-11.7,7.2-19.9c0-8-2.4-14.5-7.2-19.5
				C-7906,1586.2-7912.1,1583.8-7919.4,1583.8 M-7895,1564.8h23.1v92.3h-23.1v-9.8c-4.5,4.3-9.1,7.4-13.6,9.2
				c-4.6,1.9-9.5,2.8-14.8,2.8c-12,0-22.3-4.6-31-13.9c-8.7-9.2-13.1-20.7-13.1-34.4c0-14.2,4.2-25.9,12.7-35
				c8.4-9.1,18.7-13.6,30.7-13.6c5.6,0,10.7,1,15.6,3.1c4.9,2.1,9.4,5.2,13.5,9.3V1564.8z"/>
			<path class="st0" d="M-7766,1583.6l-19.3,10.6c-3.6-3.8-7.2-6.4-10.7-7.9c-3.5-1.5-7.7-2.2-12.4-2.2c-8.7,0-15.7,2.6-21,7.7
				c-5.4,5.2-8,11.7-8,19.8c0,7.8,2.6,14.2,7.7,19.2c5.2,5,11.9,7.4,20.3,7.4c10.3,0,18.4-3.5,24.2-10.6l18.2,12.5
				c-9.9,12.9-23.9,19.3-41.9,19.3c-16.3,0-29-4.8-38.2-14.4c-9.2-9.6-13.8-20.8-13.8-33.7c0-8.9,2.2-17.1,6.7-24.6
				c4.5-7.5,10.7-13.4,18.8-17.7c8-4.3,17-6.4,26.9-6.4c9.2,0,17.4,1.8,24.7,5.5C-7776.6,1571.7-7770.6,1576.9-7766,1583.6"/>
			<path class="st0" d="M-7688.3,1599.4c-1.5-5-4.5-9.2-9-12.3c-4.5-3.2-9.7-4.7-15.7-4.7c-6.5,0-12.1,1.8-17,5.3
				c-3,2.2-5.9,6.1-8.5,11.7H-7688.3z M-7665.2,1617.5h-74.3c1.1,6.6,3.9,11.8,8.6,15.7c4.6,3.9,10.6,5.8,17.8,5.8
				c8.6,0,16-3,22.2-9.1l19.4,9.2c-4.8,6.9-10.7,12-17.4,15.3c-6.8,3.3-14.8,5-24.1,5c-14.4,0-26.2-4.5-35.3-13.7
				c-9.1-9.1-13.6-20.5-13.6-34.2c0-14.1,4.5-25.7,13.6-35c9.1-9.3,20.4-13.9,34.1-13.9c14.5,0,26.3,4.6,35.5,13.9
				c9.1,9.3,13.6,21.5,13.6,36.7L-7665.2,1617.5z"/>
			<path class="st0" d="M-8032.5,1564.4h-17.3v-32.7l-22.1,13v19.6h-11.6v16.9h11.6v43.4c0,5.4-0.1,12.3,0.8,17.6
				c0.5,3.1,1.5,6.6,3.3,9.3c1.8,2.5,4.5,4.2,7.3,5.4c3.7,1.5,7.6,2.2,11.7,2.2c6.2,0,12.4-0.9,18.2-3.2l-1.8-16.5
				c-2.8,1-6.1,1.9-8.8,1.9c-1.9,0-3.6-0.5-5.2-1.6c-1.4-1-2.4-2.4-2.9-4.1c-0.8-3-0.5-10.9-0.5-14.1v-40.2h17.3V1564.4z"/>
			<path class="st0" d="M-8094.1,1564.4h-17.3v-32.7l-22.1,13v19.6h-11.6v16.9h11.6v43.4c0,5.4-0.1,12.3,0.8,17.6
				c0.5,3.1,1.5,6.6,3.3,9.3c1.8,2.5,4.5,4.2,7.3,5.4c3.7,1.5,7.7,2.2,11.7,2.2c6.2,0,12.4-0.9,18.2-3.2l-1.8-16.5
				c-2.8,1-6.1,1.9-8.8,1.9c-1.9,0-3.6-0.5-5.2-1.6c-1.4-1-2.4-2.4-2.9-4.1c-0.8-3-0.5-10.9-0.5-14.1v-40.2h17.3V1564.4z"/>
		</g>
	</g>
	<g>
		<path class="st0" d="M-8286,484.1l-0.2,0c-6.3-0.1-11.4,0.8-17,3.8v0c-7.1,3.6-17.3,15.1-25,28c-8.6,12.7-25.4,45.3-40,47.5
			l-3.3,0c-11.4,0-20.7-9.3-20.7-20.7c0-11,21.5-42.8,27.6-53.3l23.5-40.7l0.2-0.4c3.4-7.3,10.8-12,18.9-12c8.1,0,15.5,4.7,18.9,12
			l0.2,0.4l17.2,29.8c5.4,0.2,10.7,1.6,15.4,3.9l-22.5-39c-5.3-11.3-16.6-18.5-29.2-18.5c-12.5,0-23.9,7.2-29.2,18.5l-23.3,40.3
			c-8,13.8-29.1,43.9-29.1,58.9c0,8.3,3.2,15.9,8.3,21.6h-0.1c6,6.7,14.7,10.7,24,10.7c23.7,0,38.6-31.5,51.8-49.6l17.8,30.8
			c5.3,11.3,16.6,18.5,29.2,18.5c8.5,0,16.4-3.3,22.3-9v0.2c6.1-5.8,9.9-14,9.9-23.1c0-10.9-10.7-28.7-16.7-38.5
			c-3.7-6.4-5.2-9.9-11.9-14.5l-0.1-0.1l-0.1-0.1l-0.2-0.1l0,0l0,0l-0.2-0.1C-8273.9,486.5-8280.8,484-8286,484.1 M-8253.2,550.5
			c1-2.4,1.5-5,1.5-7.8c0-7.6-10.3-24.4-14.9-32.5c-6.1-10.1-10.6-16.1-24.2-14.7l-0.1,0c-12.6,1.8-22,15.2-16.7,27.6l5.9,10.2
			l1.1,1.8l-0.1-0.1l9.1,15.8l0.2,0.4c3.4,7.3,10.8,12,18.9,12c8.1,0,15.5-4.7,18.9-12l0.2-0.4L-8253.2,550.5z"/>
		<g>
			<path class="st0" d="M-8183.2,487.5l-7.8,19.8h15.5L-8183.2,487.5z M-8188.7,472.2h11l22.1,57.4h-11.4l-4.5-11.8h-23.6l-4.6,11.8
				h-11.4L-8188.7,472.2z"/>
			<path class="st0" d="M-8094.1,484.7h9.5v5.6c1-2.2,2.4-3.8,4.1-5c1.7-1.1,3.5-1.7,5.5-1.7c1.4,0,2.9,0.4,4.5,1.1l-3.4,9.5
				c-1.3-0.6-2.3-1-3.2-1c-1.7,0-3.1,1-4.3,3.1c-1.2,2.1-1.8,6.2-1.8,12.4l0,2.1v17.8h-11V484.7z"/>
			<path class="st0" d="M-8048,493.7c-3.4,0-6.3,1.2-8.5,3.6c-2.3,2.4-3.4,5.5-3.4,9.3c0,3.8,1.1,6.9,3.5,9.4
				c2.3,2.4,5.1,3.7,8.5,3.7c3.5,0,6.4-1.2,8.6-3.6c2.3-2.4,3.4-5.6,3.4-9.5c0-3.8-1.1-6.9-3.4-9.3
				C-8041.6,494.9-8044.5,493.7-8048,493.7 M-8036.4,484.7h11v44h-11V524c-2.2,2-4.3,3.5-6.5,4.4c-2.2,0.9-4.5,1.4-7.1,1.4
				c-5.7,0-10.6-2.2-14.8-6.6c-4.2-4.4-6.2-9.9-6.2-16.4c0-6.8,2-12.3,6-16.7c4-4.3,8.9-6.5,14.6-6.5c2.6,0,5.1,0.5,7.4,1.5
				c2.3,1,4.5,2.5,6.4,4.4V484.7z"/>
			<path class="st0" d="M-7974.9,493.6l-9.2,5.1c-1.7-1.8-3.4-3.1-5.1-3.8c-1.7-0.7-3.7-1-5.9-1c-4.1,0-7.5,1.2-10,3.7
				c-2.6,2.5-3.8,5.6-3.8,9.4c0,3.7,1.2,6.8,3.7,9.1c2.5,2.4,5.7,3.5,9.7,3.5c4.9,0,8.8-1.7,11.5-5.1l8.7,6
				c-4.7,6.1-11.4,9.2-20,9.2c-7.7,0-13.8-2.3-18.2-6.9c-4.4-4.6-6.6-9.9-6.6-16c0-4.3,1.1-8.2,3.2-11.7c2.1-3.6,5.1-6.4,8.9-8.4
				c3.8-2,8.1-3.1,12.8-3.1c4.4,0,8.3,0.9,11.8,2.6C-7979.9,488-7977.1,490.4-7974.9,493.6"/>
			<path class="st0" d="M-7937.9,501.2c-0.7-2.4-2.2-4.4-4.3-5.9c-2.2-1.5-4.6-2.3-7.5-2.3c-3.1,0-5.8,0.8-8.1,2.5
				c-1.5,1-2.8,2.9-4,5.6H-7937.9z M-7926.9,509.8h-35.4c0.5,3.1,1.9,5.6,4.1,7.5c2.2,1.9,5,2.8,8.5,2.8c4.1,0,7.6-1.4,10.6-4.3
				l9.3,4.4c-2.3,3.3-5.1,5.7-8.3,7.3c-3.2,1.6-7.1,2.4-11.5,2.4c-6.9,0-12.5-2.2-16.8-6.5c-4.3-4.3-6.5-9.8-6.5-16.3
				c0-6.7,2.2-12.3,6.5-16.7c4.3-4.4,9.7-6.6,16.3-6.6c6.9,0,12.6,2.2,16.9,6.6c4.3,4.4,6.5,10.2,6.5,17.5L-7926.9,509.8z"/>
			<path class="st0" d="M-8101.9,484.5h-8.2v-15.6l-10.5,6.2v9.4h-5.5v8.1h5.5v20.7c0,2.6-0.1,5.9,0.4,8.4c0.3,1.5,0.7,3.2,1.6,4.4
				c0.8,1.2,2.2,2,3.5,2.6c1.8,0.7,3.6,1,5.6,1c3,0,5.9-0.4,8.7-1.5l-0.9-7.9c-1.3,0.5-2.9,0.9-4.2,0.9c-0.9,0-1.7-0.2-2.5-0.7
				c-0.7-0.5-1.2-1.1-1.4-2c-0.4-1.4-0.3-5.2-0.3-6.7v-19.2h8.2V484.5z"/>
			<path class="st0" d="M-8131.3,484.5h-8.2v-15.6l-10.5,6.2v9.4h-5.5v8.1h5.5v20.7c0,2.6-0.1,5.9,0.4,8.4c0.3,1.5,0.7,3.2,1.6,4.4
				c0.8,1.2,2.2,2,3.5,2.6c1.8,0.7,3.6,1,5.6,1c3,0,5.9-0.4,8.7-1.5l-0.8-7.9c-1.3,0.5-2.9,0.9-4.2,0.9c-0.9,0-1.7-0.2-2.5-0.7
				c-0.7-0.5-1.2-1.1-1.4-2c-0.4-1.4-0.3-5.2-0.3-6.7v-19.2h8.2V484.5z"/>
		</g>
	</g>
	<g class="st3">
		<g class="st4">
			<defs>
				<path id="SVGID_1_" d="M-2946.2,531.8l-7.6-13.2c-6.9-16.1,5.3-33.4,21.6-35.8l0.1,0c17.6-1.9,23.5,5.9,31.3,19
					c6,10.4,19.3,32.3,19.3,42.2c0,3.5-0.7,6.9-2,10.1l-0.3,0.5l-0.3,0.6c-2.7,5.8-7.3,10.5-13.1,13.1c-13.5,6.2-29.5,0.3-35.7-13.1
					l-0.3-0.6l-11.8-20.6l0.2,0.1L-2946.2,531.8z M-2989.6,394.7c-8.9,4.1-16.1,11.3-20.3,20.3l-30,52.4
					c-10.3,18-37.6,57.1-37.6,76.6c0,10.4,3.8,20.3,10.8,28h-0.1c7.9,8.8,19.1,13.9,30.9,13.9c30.6,0,49.8-40.9,66.8-64.5l23,40
					c9.6,20.8,34.3,29.9,55,20.2c4.2-1.9,8.1-4.6,11.4-7.8v0.2c8.2-7.9,12.8-18.7,12.8-30c0-14.2-13.9-37.3-21.5-50.1
					c-4.8-8.4-6.7-12.8-15.4-18.8l-0.1-0.1l-0.1-0.1l-0.3-0.2h0l-0.1,0l-0.2-0.2c-5.6-3.6-14.6-6.9-21.2-6.7l-0.3,0
					c-8.1-0.1-14.8,1.1-21.9,5v0c-9.2,4.6-22.3,19.7-32.3,36.4c-11.1,16.5-32.8,58.9-51.7,61.7l-4.2,0c-14.8,0-26.8-12.1-26.7-26.9
					c0,0,0,0,0,0c0-14.3,27.8-55.6,35.6-69.3l30.4-52.9l0.3-0.6c6.2-13.5,22.2-19.4,35.7-13.1c5.8,2.7,10.5,7.3,13.1,13.1l0.3,0.6
					l22.2,38.7c6.9,0.3,13.7,2,19.8,5.1l-29.1-50.7c-7-15.2-22-24.1-37.7-24.1C-2978.1,390.9-2984,392.1-2989.6,394.7"/>
			</defs>
			<clipPath id="SVGID_2_">
				<use xlink:href="#SVGID_1_"  style="overflow:visible;"/>
			</clipPath>
			
				<linearGradient id="SVGID_3_" gradientUnits="userSpaceOnUse" x1="-5720.5615" y1="423.6146" x2="-5719.4839" y2="423.6146" gradientTransform="matrix(135.9475 -135.9475 -135.9475 -135.9475 832225.5 -719527.9375)">
				<stop  offset="0" style="stop-color:#7855A2"/>
				<stop  offset="1" style="stop-color:#F16B78"/>
			</linearGradient>
			<polygon class="st5" points="-3177.7,491.1 -2972.2,285.6 -2766.7,491.1 -2972.2,696.6 			"/>
		</g>
		<g class="st4">
			<defs>
				<path id="SVGID_4_" d="M-3130.6,501.7c0-86.3,70.2-156.5,156.5-156.5c86.3,0,156.5,70.2,156.5,156.5
					c0,86.3-70.2,156.5-156.5,156.5C-3060.4,658.3-3130.6,588-3130.6,501.7 M-3145.1,501.7c0,94.3,76.8,171.1,171.1,171.1
					c94.3,0,171.1-76.8,171.1-171.1c0-94.3-76.8-171.1-171.1-171.1C-3068.4,330.6-3145.1,407.4-3145.1,501.7"/>
			</defs>
			<clipPath id="SVGID_5_">
				<use xlink:href="#SVGID_4_"  style="overflow:visible;"/>
			</clipPath>
			
				<linearGradient id="SVGID_6_" gradientUnits="userSpaceOnUse" x1="-5724.2192" y1="427.9834" x2="-5723.2085" y2="427.9834" gradientTransform="matrix(239.2658 -239.2658 -239.2658 -239.2658 1468916.75 -1266585.5)">
				<stop  offset="0" style="stop-color:#7855A2"/>
				<stop  offset="1" style="stop-color:#F16B78"/>
			</linearGradient>
			<polygon class="st6" points="-3316.2,501.7 -2974,159.5 -2631.9,501.7 -2974,843.9 			"/>
		</g>
		<g class="st4">
			<defs>
				<path id="SVGID_7_" d="M-2683,473.8l-16.3,41.5h32.6L-2683,473.8z M-2694.6,441.8h23.1l46.4,120.5h-23.9l-9.4-24.8h-49.4
					l-9.6,24.8h-23.9L-2694.6,441.8z M-2496.1,467.9h20v11.7c2.1-4.6,5-8.1,8.5-10.4c3.6-2.4,7.4-3.6,11.6-3.6c3,0,6.1,0.8,9.4,2.4
					l-7.2,20c-2.7-1.4-4.9-2-6.7-2c-3.5,0-6.6,2.2-9,6.6c-2.5,4.4-3.7,13-3.7,25.9l0.1,4.5v37.2h-23.1V467.9z M-2399.4,486.8
					c-7.2,0-13.2,2.5-17.9,7.6c-4.7,5-7.1,11.5-7.1,19.4c0,8,2.4,14.5,7.2,19.7c4.8,5.1,10.8,7.7,17.9,7.7c7.3,0,13.3-2.5,18.1-7.6
					c4.8-5,7.2-11.7,7.2-19.9c0-8-2.4-14.5-7.2-19.5C-2386,489.3-2392.1,486.8-2399.4,486.8 M-2375,467.9h23.1v92.3h-23.1v-9.8
					c-4.5,4.3-9.1,7.4-13.6,9.2c-4.6,1.9-9.5,2.8-14.8,2.8c-12,0-22.3-4.6-31-13.9c-8.7-9.2-13.1-20.7-13.1-34.4
					c0-14.2,4.2-25.9,12.7-35c8.4-9.1,18.7-13.6,30.7-13.6c5.6,0,10.7,1,15.6,3.1c4.9,2.1,9.4,5.2,13.5,9.3V467.9z M-2246,486.6
					l-19.3,10.6c-3.6-3.8-7.2-6.4-10.7-7.9c-3.5-1.5-7.7-2.2-12.4-2.2c-8.7,0-15.7,2.6-21,7.7c-5.4,5.2-8,11.7-8,19.8
					c0,7.8,2.6,14.2,7.7,19.2c5.2,5,11.9,7.4,20.3,7.4c10.3,0,18.4-3.5,24.2-10.6l18.2,12.5c-9.9,12.9-23.9,19.3-41.9,19.3
					c-16.3,0-29-4.8-38.2-14.4c-9.2-9.6-13.8-20.8-13.8-33.7c0-8.9,2.2-17.1,6.7-24.6c4.5-7.5,10.7-13.4,18.8-17.7
					c8-4.3,17-6.4,26.9-6.4c9.2,0,17.4,1.8,24.7,5.5C-2256.6,474.7-2250.6,479.9-2246,486.6 M-2168.3,502.5c-1.5-5-4.5-9.2-9-12.3
					c-4.5-3.2-9.7-4.7-15.7-4.7c-6.5,0-12.1,1.8-17,5.3c-3,2.2-5.9,6.1-8.5,11.7H-2168.3z M-2145.2,520.6h-74.3
					c1.1,6.6,3.9,11.8,8.6,15.7c4.6,3.9,10.6,5.8,17.8,5.8c8.6,0,16-3,22.2-9.1l19.4,9.2c-4.8,6.9-10.7,12-17.4,15.3
					c-6.8,3.3-14.8,5-24.1,5c-14.4,0-26.2-4.5-35.3-13.7c-9.1-9.1-13.6-20.5-13.6-34.2c0-14.1,4.5-25.7,13.6-35
					c9.1-9.3,20.4-13.9,34.1-13.9c14.5,0,26.3,4.6,35.5,13.9c9.1,9.3,13.6,21.5,13.6,36.7L-2145.2,520.6z M-2512.5,484.4h-17.3v40.2
					c0,3.2-0.2,11.1,0.5,14.1c0.4,1.7,1.4,3.1,2.9,4.1c1.5,1.1,3.3,1.6,5.2,1.6c2.8,0,6-0.9,8.8-1.9l1.8,16.5
					c-5.8,2.3-12,3.2-18.2,3.2c-4,0-8-0.6-11.7-2.2c-2.8-1.2-5.6-2.9-7.3-5.4c-1.8-2.6-2.8-6.1-3.3-9.3c-0.9-5.3-0.8-12.3-0.8-17.6
					v-43.4h-11.6v-16.9h11.6v-19.6l22.1-13v32.7h17.3V484.4z M-2574.1,484.4h-17.3v40.2c0,3.2-0.2,11.1,0.5,14.1
					c0.4,1.7,1.4,3.1,2.9,4.1c1.5,1.1,3.3,1.6,5.2,1.6c2.8,0,6-0.9,8.8-1.9l1.8,16.5c-5.8,2.3-12,3.2-18.2,3.2c-4,0-8-0.6-11.7-2.2
					c-2.8-1.2-5.6-2.9-7.3-5.4c-1.9-2.6-2.8-6.1-3.3-9.3c-0.9-5.3-0.8-12.3-0.8-17.6v-43.4h-11.6v-16.9h11.6v-19.6l22.1-13v32.7
					h17.3V484.4z"/>
			</defs>
			<clipPath id="SVGID_8_">
				<use xlink:href="#SVGID_7_"  style="overflow:visible;"/>
			</clipPath>
			
				<linearGradient id="SVGID_9_" gradientUnits="userSpaceOnUse" x1="-5719.2456" y1="421.4693" x2="-5717.2202" y2="421.4693" gradientTransform="matrix(135.9475 -135.9475 -135.9475 -135.9475 832225.5 -719527.9375)">
				<stop  offset="0" style="stop-color:#7855A2"/>
				<stop  offset="1" style="stop-color:#F16B78"/>
			</linearGradient>
			<polygon class="st7" points="-2810.7,526.6 -2424.4,140.3 -2038.2,526.6 -2424.4,912.8 			"/>
		</g>
	</g>
	<rect x="-1756" class="st8" width="984.1" height="342.2"/>
	<g>
		<path class="st9" d="M-1295.4,143.8l-15.9,40.4h31.7L-1295.4,143.8z M-1306.6,112.6h22.5L-1239,230h-23.2l-9.2-24.2h-48.1
			l-9.4,24.2h-23.2L-1306.6,112.6z M-1113.4,138h19.5v11.4c2.1-4.5,4.8-7.8,8.3-10.2c3.5-2.3,7.2-3.5,11.3-3.5c2.9,0,6,0.8,9.1,2.3
			l-7,19.5c-2.6-1.3-4.8-2-6.5-2c-3.4,0-6.4,2.1-8.8,6.4c-2.4,4.3-3.6,12.7-3.6,25.2l0.1,4.4v36.3h-22.5V138z M-1019.3,156.5
			c-7,0-12.8,2.4-17.4,7.4c-4.6,4.9-6.9,11.2-6.9,18.9c0,7.8,2.3,14.1,7.1,19.2c4.7,5,10.5,7.5,17.4,7.5c7.1,0,13-2.5,17.6-7.4
			c4.7-4.9,7-11.4,7-19.4c0-7.8-2.3-14.1-7-19C-1006.3,158.9-1012.2,156.5-1019.3,156.5 M-995.6,138h22.5v89.9h-22.5v-9.6
			c-4.4,4.2-8.8,7.2-13.3,9c-4.4,1.8-9.3,2.8-14.4,2.8c-11.7,0-21.7-4.5-30.2-13.5c-8.5-9-12.7-20.1-12.7-33.5
			c0-13.8,4.1-25.2,12.3-34c8.2-8.8,18.2-13.3,29.9-13.3c5.4,0,10.5,1,15.2,3c4.7,2,9.1,5.1,13.2,9.1V138z M-870,156.3l-18.8,10.3
			c-3.5-3.7-7-6.2-10.4-7.7c-3.4-1.4-7.5-2.1-12.1-2.1c-8.4,0-15.3,2.5-20.5,7.5c-5.2,5-7.8,11.4-7.8,19.3c0,7.6,2.5,13.8,7.5,18.7
			c5,4.8,11.6,7.2,19.8,7.2c10.1,0,17.9-3.4,23.5-10.3l17.8,12.2c-9.6,12.5-23.2,18.8-40.8,18.8c-15.8,0-28.2-4.7-37.2-14
			c-8.9-9.3-13.4-20.3-13.4-32.8c0-8.7,2.2-16.7,6.5-24c4.4-7.3,10.4-13.1,18.3-17.2c7.8-4.2,16.5-6.3,26.1-6.3
			c8.9,0,17,1.8,24.1,5.3C-880.3,144.7-874.5,149.8-870,156.3 M-794.4,171.7c-1.5-4.9-4.4-8.9-8.8-12c-4.4-3.1-9.5-4.6-15.3-4.6
			c-6.3,0-11.8,1.7-16.6,5.2c-3,2.1-5.7,6-8.3,11.4H-794.4z M-771.9,189.3h-72.4c1,6.4,3.8,11.5,8.3,15.3c4.5,3.8,10.3,5.7,17.3,5.7
			c8.4,0,15.6-2.9,21.6-8.9l18.9,8.9c-4.7,6.7-10.4,11.7-17,14.9c-6.6,3.2-14.4,4.8-23.5,4.8c-14,0-25.5-4.4-34.3-13.3
			c-8.8-8.9-13.3-20-13.3-33.3c0-13.7,4.4-25.1,13.3-34.1c8.8-9.1,19.9-13.6,33.2-13.6c14.1,0,25.6,4.5,34.5,13.5
			c8.9,9,13.3,20.9,13.3,35.7L-771.9,189.3z M-1129.4,154.1h-16.8v39.2c0,3.1-0.2,10.8,0.5,13.7c0.4,1.7,1.4,3,2.8,4
			c1.5,1.1,3.2,1.5,5,1.5c2.7,0,5.9-0.9,8.6-1.8l1.7,16.1c-5.6,2.2-11.7,3.1-17.7,3.1c-3.9,0-7.7-0.6-11.3-2.1
			c-2.7-1.1-5.4-2.8-7.1-5.3c-1.8-2.6-2.7-6-3.2-9c-0.9-5.1-0.8-11.9-0.8-17.1v-42.2h-11.3v-16.5h11.3v-19.1l21.5-12.7v31.8h16.8
			V154.1z M-1189.3,154.1h-16.8v39.2c0,3.1-0.2,10.8,0.5,13.7c0.4,1.7,1.4,3,2.8,4c1.5,1.1,3.2,1.5,5,1.5c2.7,0,5.9-0.9,8.6-1.8
			l1.7,16.1c-5.6,2.2-11.7,3.1-17.7,3.1c-3.9,0-7.7-0.6-11.4-2.1c-2.7-1.1-5.4-2.8-7.1-5.3c-1.8-2.6-2.7-6-3.2-9
			c-0.9-5.1-0.8-11.9-0.8-17.1v-42.2h-11.3v-16.5h11.3v-19.1l21.5-12.7v31.8h16.8V154.1z"/>
		<path class="st10" d="M-1741.4,171.1c0-86.3,70.2-156.5,156.5-156.5c86.3,0,156.5,70.2,156.5,156.5c0,86.3-70.2,156.5-156.5,156.5
			C-1671.2,327.6-1741.4,257.4-1741.4,171.1 M-1756,171.1c0,94.3,76.8,171.1,171.1,171.1c94.3,0,171.1-76.8,171.1-171.1
			c0-94.3-76.8-171.1-171.1-171.1C-1679.2,0-1756,76.8-1756,171.1"/>
		<path class="st10" d="M-1557,201.1l-7.6-13.2c-6.9-16.1,5.3-33.4,21.6-35.8l0.1,0c17.6-1.9,23.5,5.9,31.3,19
			c6,10.4,19.3,32.3,19.3,42.2c0,3.5-0.7,6.9-2,10.1l-0.3,0.5l-0.3,0.6c-2.7,5.8-7.3,10.5-13.1,13.1c-13.5,6.2-29.5,0.3-35.7-13.1
			l-0.3-0.6l-11.8-20.6l0.2,0.1L-1557,201.1z M-1600.4,64.1c-8.9,4.1-16.1,11.3-20.3,20.3l-30,52.4c-10.3,18-37.6,57.1-37.6,76.6
			c0,10.4,3.8,20.3,10.8,28h-0.1c7.9,8.8,19.1,13.9,30.9,13.9c30.6,0,49.8-40.9,66.8-64.5l23,40c9.6,20.8,34.3,29.9,55,20.2
			c4.2-1.9,8.1-4.6,11.4-7.8v0.2c8.2-7.9,12.8-18.7,12.8-30c0-14.2-13.9-37.3-21.5-50.1c-4.8-8.4-6.7-12.8-15.4-18.8l-0.1-0.1
			l-0.1-0.1l-0.3-0.2h0l-0.1,0l-0.2-0.2c-5.6-3.6-14.6-6.9-21.2-6.7l-0.3,0c-8.1-0.1-14.8,1.1-21.9,5v0
			c-9.2,4.6-22.3,19.7-32.3,36.4c-11.1,16.5-32.8,58.9-51.7,61.7l-4.2,0c-14.8,0-26.8-12.1-26.7-26.9c0,0,0,0,0,0
			c0-14.3,27.8-55.6,35.6-69.3l30.4-52.9l0.3-0.6c6.2-13.5,22.2-19.4,35.7-13.1c5.8,2.7,10.5,7.3,13.1,13.1l0.3,0.6l22.2,38.7
			c6.9,0.3,13.7,2,19.8,5.1l-29.1-50.7c-7-15.2-22-24.1-37.7-24.1C-1588.9,60.3-1594.8,61.5-1600.4,64.1"/>
	</g>
	<g>
		<g>
			<defs>
				<path id="SVGID_10_" d="M148.9,1356.1l-5.7-9.9c-5.2-12.1,4-25,16.1-26.8l0.1,0c13.2-1.4,17.6,4.4,23.4,14.2
					c4.5,7.8,14.4,24.2,14.4,31.6c0,2.6-0.5,5.2-1.5,7.6l-0.2,0.4l-0.2,0.4c-2,4.3-5.5,7.8-9.8,9.8c-10.1,4.7-22,0.3-26.7-9.8
					l-0.2-0.4l-8.8-15.4l0.1,0.1L148.9,1356.1z M116.4,1253.6c-6.7,3.1-12.1,8.5-15.2,15.2L78.7,1308c-7.7,13.5-28.1,42.7-28.1,57.3
					c0,7.7,2.9,15.2,8.1,21h-0.1c5.9,6.6,14.3,10.4,23.1,10.4c22.9,0,37.3-30.6,50-48.3l17.2,29.9c7.2,15.6,25.6,22.3,41.2,15.1
					c3.2-1.5,6-3.4,8.5-5.8v0.2c6.1-5.9,9.6-14,9.5-22.5c0-10.6-10.4-27.9-16.1-37.5c-3.6-6.3-5-9.6-11.5-14.1l-0.1-0.1l-0.1-0.1
					l-0.2-0.1h0l0,0l-0.2-0.1c-4.2-2.7-10.9-5.2-15.9-5l-0.2,0c-6-0.1-11,0.8-16.4,3.7v0c-6.8,3.5-16.7,14.7-24.1,27.3
					c-8.3,12.3-24.6,44.1-38.6,46.2l-3.1,0c-11.1,0-20-9-20-20.1c0,0,0,0,0,0c0-10.7,20.8-41.6,26.7-51.8l22.7-39.6l0.2-0.4
					c4.7-10.1,16.6-14.5,26.7-9.8c4.3,2,7.8,5.5,9.8,9.8l0.2,0.4l16.6,29c5.2,0.2,10.2,1.5,14.8,3.8l-21.7-37.9
					c-5.2-11.3-16.5-18-28.2-18C125,1250.8,120.6,1251.7,116.4,1253.6"/>
			</defs>
			<clipPath id="SVGID_11_">
				<use xlink:href="#SVGID_10_"  style="overflow:visible;"/>
			</clipPath>
			
				<linearGradient id="SVGID_12_" gradientUnits="userSpaceOnUse" x1="-5712.061" y1="409.1377" x2="-5711.2549" y2="409.1377" gradientTransform="matrix(135.9475 -135.9475 -135.9475 -135.9475 832225.5 -719527.9375)">
				<stop  offset="0" style="stop-color:#7855A2"/>
				<stop  offset="1" style="stop-color:#F16B78"/>
			</linearGradient>
			<polygon class="st11" points="-24.4,1325.7 129.4,1172 283.1,1325.7 129.4,1479.4 			"/>
		</g>
		<g>
			<defs>
				<path id="SVGID_13_" d="M10.9,1333.7c0-64.6,52.5-117.1,117.1-117.1c64.6,0,117.1,52.5,117.1,117.1
					c0,64.6-52.5,117.1-117.1,117.1C63.4,1450.8,10.9,1398.2,10.9,1333.7 M0,1333.7c0,70.6,57.4,128,128,128
					c70.6,0,128-57.4,128-128c0-70.6-57.4-128-128-128C57.4,1205.7,0,1263.1,0,1333.7"/>
			</defs>
			<clipPath id="SVGID_14_">
				<use xlink:href="#SVGID_13_"  style="overflow:visible;"/>
			</clipPath>
			
				<linearGradient id="SVGID_15_" gradientUnits="userSpaceOnUse" x1="-5719.3481" y1="419.7624" x2="-5718.5918" y2="419.7624" gradientTransform="matrix(239.2658 -239.2658 -239.2658 -239.2658 1468916.75 -1266585.5)">
				<stop  offset="0" style="stop-color:#7855A2"/>
				<stop  offset="1" style="stop-color:#F16B78"/>
			</linearGradient>
			<polygon class="st12" points="-128,1333.7 128,1077.7 384,1333.7 128,1589.7 			"/>
		</g>
	</g>
	<g>
		<defs>
			<path id="SVGID_16_" d="M367.4,1268.9l-11.9,30.2h23.7L367.4,1268.9z M358.9,1245.6h16.8l33.8,87.8h-17.4l-6.8-18.1h-36l-7,18.1
				h-17.4L358.9,1245.6z M503.5,1264.6H518v8.5c1.6-3.3,3.6-5.9,6.2-7.6c2.6-1.7,5.4-2.6,8.5-2.6c2.2,0,4.5,0.6,6.8,1.7l-5.2,14.6
				c-2-1-3.6-1.5-4.8-1.5c-2.6,0-4.8,1.6-6.5,4.8c-1.8,3.2-2.7,9.5-2.7,18.9l0.1,3.3v27.1h-16.8V1264.6z M573.8,1278.4
				c-5.2,0-9.6,1.8-13,5.5c-3.5,3.7-5.2,8.4-5.2,14.2c0,5.8,1.7,10.6,5.3,14.3c3.5,3.7,7.9,5.6,13,5.6c5.3,0,9.7-1.8,13.2-5.5
				c3.5-3.7,5.3-8.5,5.3-14.5c0-5.8-1.8-10.6-5.3-14.2C583.6,1280.2,579.2,1278.4,573.8,1278.4 M591.6,1264.6h16.8v67.2h-16.8v-7.2
				c-3.3,3.1-6.6,5.4-9.9,6.7c-3.3,1.4-6.9,2.1-10.8,2.1c-8.7,0-16.2-3.4-22.6-10.1c-6.3-6.7-9.5-15.1-9.5-25.1
				c0-10.4,3.1-18.8,9.2-25.5c6.1-6.6,13.6-9.9,22.4-9.9c4,0,7.8,0.8,11.4,2.3c3.5,1.5,6.8,3.8,9.8,6.8V1264.6z M685.6,1278.3
				l-14,7.7c-2.6-2.8-5.2-4.7-7.8-5.7c-2.6-1.1-5.6-1.6-9.1-1.6c-6.3,0-11.4,1.9-15.3,5.6c-3.9,3.8-5.8,8.5-5.8,14.4
				c0,5.7,1.9,10.3,5.6,14c3.8,3.6,8.7,5.4,14.8,5.4c7.5,0,13.4-2.6,17.6-7.7l13.3,9.1c-7.2,9.4-17.4,14.1-30.5,14.1
				c-11.8,0-21.1-3.5-27.8-10.5c-6.7-7-10-15.2-10-24.5c0-6.5,1.6-12.5,4.9-17.9c3.3-5.5,7.8-9.8,13.7-12.9
				c5.8-3.1,12.3-4.7,19.6-4.7c6.7,0,12.7,1.3,18,4C677.9,1269.6,682.2,1273.4,685.6,1278.3 M742.2,1289.8c-1.1-3.7-3.3-6.7-6.6-9
				c-3.3-2.3-7.1-3.4-11.4-3.4c-4.7,0-8.8,1.3-12.4,3.9c-2.2,1.6-4.3,4.5-6.2,8.5H742.2z M758.9,1303h-54.1
				c0.8,4.8,2.9,8.6,6.2,11.5c3.4,2.8,7.7,4.2,12.9,4.2c6.3,0,11.7-2.2,16.2-6.6l14.1,6.7c-3.5,5-7.8,8.7-12.7,11.2
				c-4.9,2.4-10.8,3.6-17.6,3.6c-10.5,0-19.1-3.3-25.7-10c-6.6-6.6-9.9-14.9-9.9-24.9c0-10.2,3.3-18.7,9.9-25.5
				c6.6-6.8,14.9-10.1,24.9-10.1c10.6,0,19.2,3.4,25.8,10.1c6.6,6.8,9.9,15.6,9.9,26.7L758.9,1303z M491.5,1276.6h-12.6v29.3
				c0,2.4-0.2,8.1,0.4,10.3c0.3,1.2,1,2.2,2.1,3c1.1,0.8,2.4,1.1,3.8,1.1c2,0,4.4-0.7,6.4-1.4l1.3,12c-4.2,1.7-8.7,2.3-13.3,2.3
				c-2.9,0-5.8-0.5-8.5-1.6c-2-0.9-4.1-2.1-5.3-3.9c-1.3-1.9-2-4.5-2.4-6.8c-0.6-3.8-0.6-8.9-0.6-12.8v-31.6h-8.4v-12.3h8.4V1250
				l16.1-9.5v23.8h12.6V1276.6z M446.7,1276.6h-12.6v29.3c0,2.4-0.2,8.1,0.4,10.3c0.3,1.2,1,2.2,2.1,3c1.1,0.8,2.4,1.1,3.8,1.1
				c2,0,4.4-0.7,6.4-1.4l1.3,12c-4.2,1.7-8.7,2.3-13.3,2.3c-2.9,0-5.8-0.5-8.5-1.6c-2-0.9-4.1-2.1-5.3-3.9c-1.3-1.9-2-4.5-2.4-6.8
				c-0.6-3.8-0.6-8.9-0.6-12.8v-31.6h-8.4v-12.3h8.4V1250l16.1-9.5v23.8h12.6V1276.6z"/>
		</defs>
		<clipPath id="SVGID_17_">
			<use xlink:href="#SVGID_16_"  style="overflow:visible;"/>
		</clipPath>
		
			<linearGradient id="SVGID_18_" gradientUnits="userSpaceOnUse" x1="-5710.8267" y1="407.6373" x2="-5709.3521" y2="407.6373" gradientTransform="matrix(135.9475 -135.9475 -135.9475 -135.9475 832225.5 -719527.9375)">
			<stop  offset="0" style="stop-color:#7855A2"/>
			<stop  offset="1" style="stop-color:#F16B78"/>
		</linearGradient>
		<polygon class="st13" points="274.4,1307.4 555.6,1026.1 836.9,1307.4 555.6,1588.7 		"/>
	</g>
	<g>
		<g>
			<defs>
				<path id="SVGID_19_" d="M-2938.2,530l-7.6-13.2c-6.9-16.1,5.3-33.4,21.6-35.8l0.1,0c17.6-1.9,23.5,5.9,31.3,19
					c6,10.4,19.3,32.3,19.3,42.2c0,3.5-0.7,6.9-2,10.1l-0.3,0.5l-0.3,0.6c-2.7,5.8-7.3,10.5-13.1,13.1c-13.5,6.2-29.5,0.3-35.7-13.1
					l-0.3-0.6l-11.8-20.6l0.2,0.1L-2938.2,530z M-2981.7,393c-8.9,4.1-16.1,11.3-20.3,20.3l-30,52.4c-10.3,18-37.6,57.1-37.6,76.6
					c0,10.4,3.8,20.3,10.8,28h-0.1c7.9,8.8,19.1,13.9,30.9,13.9c30.6,0,49.8-40.9,66.8-64.5l23,40c9.6,20.8,34.3,29.9,55,20.2
					c4.2-1.9,8.1-4.6,11.4-7.8v0.2c8.2-7.9,12.8-18.7,12.8-30c0-14.2-13.9-37.3-21.5-50.1c-4.8-8.4-6.7-12.8-15.4-18.8l-0.1-0.1
					l-0.1-0.1l-0.3-0.2h0l-0.1,0l-0.2-0.2c-5.6-3.6-14.6-6.9-21.2-6.7l-0.3,0c-8.1-0.1-14.8,1.1-21.9,5v0
					c-9.2,4.6-22.3,19.7-32.3,36.4c-11.1,16.5-32.8,58.9-51.7,61.7l-4.2,0c-14.8,0-26.8-12.1-26.7-26.9c0,0,0,0,0,0
					c0-14.3,27.8-55.6,35.6-69.3l30.4-52.9l0.3-0.6c6.2-13.5,22.2-19.4,35.7-13.1c5.8,2.7,10.5,7.3,13.1,13.1l0.3,0.6l22.2,38.7
					c6.9,0.3,13.7,2,19.8,5.1l-29.1-50.7c-7-15.2-22-24.1-37.7-24.1C-2970.1,389.2-2976,390.4-2981.7,393"/>
			</defs>
			<clipPath id="SVGID_20_">
				<use xlink:href="#SVGID_19_"  style="overflow:visible;"/>
			</clipPath>
			
				<linearGradient id="SVGID_21_" gradientUnits="userSpaceOnUse" x1="-5720.5259" y1="423.5917" x2="-5719.4482" y2="423.5917" gradientTransform="matrix(135.9475 -135.9475 -135.9475 -135.9475 832225.5 -719527.9375)">
				<stop  offset="0" style="stop-color:#7855A2"/>
				<stop  offset="1" style="stop-color:#F16B78"/>
			</linearGradient>
			<polygon class="st14" points="-3169.8,489.3 -2964.3,283.8 -2758.7,489.3 -2964.3,694.8 			"/>
		</g>
		<g>
			<defs>
				<path id="SVGID_22_" d="M-3122.6,500c0-86.3,70.2-156.5,156.5-156.5c86.3,0,156.5,70.2,156.5,156.5
					c0,86.3-70.2,156.5-156.5,156.5C-3052.4,656.5-3122.6,586.3-3122.6,500 M-3137.2,500c0,94.3,76.8,171.1,171.1,171.1
					c94.3,0,171.1-76.8,171.1-171.1c0-94.3-76.8-171.1-171.1-171.1C-3060.4,328.9-3137.2,405.7-3137.2,500"/>
			</defs>
			<clipPath id="SVGID_23_">
				<use xlink:href="#SVGID_22_"  style="overflow:visible;"/>
			</clipPath>
			
				<linearGradient id="SVGID_24_" gradientUnits="userSpaceOnUse" x1="-5724.1992" y1="427.9704" x2="-5723.188" y2="427.9704" gradientTransform="matrix(239.2658 -239.2658 -239.2658 -239.2658 1468916.75 -1266585.5)">
				<stop  offset="0" style="stop-color:#7855A2"/>
				<stop  offset="1" style="stop-color:#F16B78"/>
			</linearGradient>
			<polygon class="st15" points="-3308.3,500 -2966.1,157.8 -2623.9,500 -2966.1,842.2 			"/>
		</g>
		<g>
			<defs>
				<path id="SVGID_25_" d="M-2676.6,472.7l-15.9,40.4h31.7L-2676.6,472.7z M-2687.9,441.5h22.5l45.2,117.3h-23.2l-9.2-24.2h-48.1
					l-9.4,24.2h-23.2L-2687.9,441.5z M-2494.6,466.9h19.5v11.4c2.1-4.5,4.8-7.8,8.3-10.2c3.5-2.3,7.2-3.5,11.3-3.5
					c2.9,0,6,0.8,9.1,2.3l-7,19.5c-2.6-1.3-4.8-2-6.5-2c-3.4,0-6.4,2.1-8.8,6.4c-2.4,4.3-3.6,12.7-3.6,25.2l0.1,4.4v36.3h-22.5
					V466.9z M-2400.6,485.4c-7,0-12.8,2.4-17.4,7.4c-4.6,4.9-6.9,11.2-6.9,18.9c0,7.8,2.3,14.1,7.1,19.2c4.7,5,10.5,7.5,17.4,7.5
					c7.1,0,13-2.5,17.6-7.4c4.7-4.9,7-11.4,7-19.4c0-7.8-2.3-14.1-7-19C-2387.5,487.8-2393.4,485.4-2400.6,485.4 M-2376.8,466.9
					h22.5v89.9h-22.5v-9.6c-4.4,4.2-8.8,7.2-13.3,9c-4.4,1.8-9.3,2.8-14.4,2.8c-11.7,0-21.7-4.5-30.2-13.5
					c-8.5-9-12.7-20.1-12.7-33.5c0-13.8,4.1-25.2,12.3-34c8.2-8.8,18.2-13.3,29.9-13.3c5.4,0,10.5,1,15.2,3c4.7,2,9.1,5.1,13.2,9.1
					V466.9z M-2251.2,485.2l-18.8,10.3c-3.5-3.7-7-6.2-10.4-7.7c-3.4-1.4-7.5-2.1-12.1-2.1c-8.4,0-15.3,2.5-20.5,7.5
					c-5.2,5-7.8,11.4-7.8,19.3c0,7.6,2.5,13.8,7.5,18.7c5,4.8,11.6,7.2,19.8,7.2c10.1,0,17.9-3.4,23.5-10.3l17.8,12.2
					c-9.6,12.5-23.2,18.8-40.8,18.8c-15.8,0-28.2-4.7-37.2-14c-8.9-9.3-13.4-20.3-13.4-32.8c0-8.7,2.2-16.7,6.5-24
					c4.4-7.3,10.4-13.1,18.3-17.2c7.8-4.2,16.5-6.3,26.1-6.3c8.9,0,17,1.8,24.1,5.3C-2261.5,473.6-2255.7,478.7-2251.2,485.2
					 M-2175.6,500.6c-1.5-4.9-4.4-8.9-8.8-12c-4.4-3.1-9.5-4.6-15.3-4.6c-6.3,0-11.8,1.7-16.6,5.2c-3,2.1-5.7,6-8.3,11.4H-2175.6z
					 M-2153.2,518.2h-72.4c1,6.4,3.8,11.5,8.3,15.3c4.5,3.8,10.3,5.7,17.3,5.7c8.4,0,15.6-2.9,21.6-8.9l18.9,8.9
					c-4.7,6.7-10.4,11.7-17,14.9c-6.6,3.2-14.4,4.8-23.5,4.8c-14,0-25.5-4.4-34.3-13.3c-8.8-8.9-13.3-20-13.3-33.3
					c0-13.7,4.4-25.1,13.3-34.1c8.8-9.1,19.9-13.6,33.2-13.6c14.1,0,25.6,4.5,34.5,13.5c8.9,9,13.3,20.9,13.3,35.7L-2153.2,518.2z
					 M-2510.7,483h-16.8v39.2c0,3.1-0.2,10.8,0.5,13.7c0.4,1.7,1.4,3,2.8,4c1.5,1.1,3.2,1.5,5,1.5c2.7,0,5.9-0.9,8.6-1.8l1.7,16.1
					c-5.6,2.2-11.7,3.1-17.7,3.1c-3.9,0-7.7-0.6-11.3-2.1c-2.7-1.1-5.4-2.8-7.1-5.3c-1.8-2.6-2.7-6-3.2-9
					c-0.9-5.1-0.8-11.9-0.8-17.1V483h-11.3v-16.5h11.3v-19.1l21.5-12.7v31.8h16.8V483z M-2570.6,483h-16.8v39.2
					c0,3.1-0.2,10.8,0.5,13.7c0.4,1.7,1.4,3,2.8,4c1.5,1.1,3.2,1.5,5,1.5c2.7,0,5.9-0.9,8.6-1.8l1.7,16.1
					c-5.6,2.2-11.7,3.1-17.7,3.1c-3.9,0-7.7-0.6-11.4-2.1c-2.7-1.1-5.4-2.8-7.1-5.3c-1.8-2.6-2.7-6-3.2-9
					c-0.9-5.1-0.8-11.9-0.8-17.1V483h-11.3v-16.5h11.3v-19.1l21.5-12.7v31.8h16.8V483z"/>
			</defs>
			<clipPath id="SVGID_26_">
				<use xlink:href="#SVGID_25_"  style="overflow:visible;"/>
			</clipPath>
			
				<linearGradient id="SVGID_27_" gradientUnits="userSpaceOnUse" x1="-5719.2061" y1="421.4802" x2="-5717.2344" y2="421.4802" gradientTransform="matrix(135.9475 -135.9475 -135.9475 -135.9475 832225.5 -719527.9375)">
				<stop  offset="0" style="stop-color:#7855A2"/>
				<stop  offset="1" style="stop-color:#F16B78"/>
			</linearGradient>
			<polygon class="st16" points="-2800.9,524.1 -2424.9,148.1 -2048.9,524.1 -2424.9,900.1 			"/>
		</g>
	</g>
	<g>
		<g>
			<defs>
				<path id="SVGID_28_" d="M-2996.3,1356.1l-5.7-9.9c-5.2-12.1,4-25,16.1-26.8l0.1,0c13.2-1.4,17.6,4.4,23.4,14.2
					c4.5,7.8,14.4,24.2,14.4,31.6c0,2.6-0.5,5.2-1.5,7.6l-0.2,0.4l-0.2,0.4c-2,4.3-5.5,7.8-9.8,9.8c-10.1,4.7-22,0.3-26.7-9.8
					l-0.2-0.4l-8.8-15.4l0.1,0.1L-2996.3,1356.1z M-3028.8,1253.6c-6.7,3.1-12.1,8.5-15.2,15.2l-22.5,39.2
					c-7.7,13.5-28.1,42.7-28.1,57.3c0,7.7,2.9,15.2,8.1,21h-0.1c5.9,6.6,14.3,10.4,23.1,10.4c22.9,0,37.3-30.6,50-48.3l17.2,29.9
					c7.2,15.6,25.6,22.3,41.2,15.1c3.2-1.5,6-3.4,8.5-5.8v0.2c6.1-5.9,9.6-14,9.5-22.5c0-10.6-10.4-27.9-16.1-37.5
					c-3.6-6.3-5-9.6-11.5-14.1l-0.1-0.1l-0.1-0.1l-0.2-0.1h0l0,0l-0.2-0.1c-4.2-2.7-10.9-5.2-15.9-5l-0.2,0c-6-0.1-11,0.8-16.4,3.7
					v0c-6.8,3.5-16.7,14.7-24.1,27.3c-8.3,12.3-24.6,44.1-38.6,46.2l-3.1,0c-11.1,0-20-9-20-20.1c0,0,0,0,0,0
					c0-10.7,20.8-41.6,26.7-51.8l22.7-39.6l0.2-0.4c4.7-10.1,16.6-14.5,26.7-9.8c4.3,2,7.8,5.5,9.8,9.8l0.2,0.4l16.6,29
					c5.2,0.2,10.2,1.5,14.8,3.8l-21.7-37.9c-5.2-11.3-16.5-18-28.2-18C-3020.1,1250.8-3024.6,1251.7-3028.8,1253.6"/>
			</defs>
			<clipPath id="SVGID_29_">
				<use xlink:href="#SVGID_28_"  style="overflow:visible;"/>
			</clipPath>
			
				<linearGradient id="SVGID_30_" gradientUnits="userSpaceOnUse" x1="-5723.6284" y1="420.7051" x2="-5722.8223" y2="420.7051" gradientTransform="matrix(135.9475 -135.9475 -135.9475 -135.9475 832225.5 -719527.9375)">
				<stop  offset="0" style="stop-color:#7855A2"/>
				<stop  offset="1" style="stop-color:#F16B78"/>
			</linearGradient>
			<polygon class="st17" points="-3169.5,1325.7 -3015.8,1172 -2862,1325.7 -3015.8,1479.4 			"/>
		</g>
		<g>
			<defs>
				<path id="SVGID_31_" d="M-3134.3,1333.7c0-64.6,52.5-117.1,117.1-117.1c64.6,0,117.1,52.5,117.1,117.1
					c0,64.6-52.5,117.1-117.1,117.1C-3081.7,1450.8-3134.3,1398.2-3134.3,1333.7 M-3145.1,1333.7c0,70.6,57.4,128,128,128
					c70.6,0,128-57.4,128-128c0-70.6-57.4-128-128-128C-3087.7,1205.7-3145.1,1263.1-3145.1,1333.7"/>
			</defs>
			<clipPath id="SVGID_32_">
				<use xlink:href="#SVGID_31_"  style="overflow:visible;"/>
			</clipPath>
			
				<linearGradient id="SVGID_33_" gradientUnits="userSpaceOnUse" x1="-5725.9204" y1="426.3349" x2="-5725.1641" y2="426.3349" gradientTransform="matrix(239.2658 -239.2658 -239.2658 -239.2658 1468916.75 -1266585.5)">
				<stop  offset="0" style="stop-color:#7855A2"/>
				<stop  offset="1" style="stop-color:#F16B78"/>
			</linearGradient>
			<polygon class="st18" points="-3273.1,1333.7 -3017.1,1077.7 -2761.1,1333.7 -3017.1,1589.7 			"/>
		</g>
	</g>
	<g>
		<defs>
			<path id="SVGID_34_" d="M-2777.8,1268.9l-11.9,30.2h23.7L-2777.8,1268.9z M-2786.2,1245.6h16.8l33.8,87.8h-17.4l-6.8-18.1h-36
				l-7,18.1h-17.4L-2786.2,1245.6z M-2641.7,1264.6h14.6v8.5c1.6-3.3,3.6-5.9,6.2-7.6c2.6-1.7,5.4-2.6,8.5-2.6
				c2.2,0,4.5,0.6,6.8,1.7l-5.2,14.6c-2-1-3.6-1.5-4.9-1.5c-2.6,0-4.8,1.6-6.5,4.8c-1.8,3.2-2.7,9.5-2.7,18.9l0.1,3.3v27.1h-16.8
				V1264.6z M-2571.3,1278.4c-5.2,0-9.6,1.8-13,5.5c-3.5,3.7-5.2,8.4-5.2,14.2c0,5.8,1.7,10.6,5.3,14.3c3.5,3.7,7.9,5.6,13,5.6
				c5.3,0,9.7-1.8,13.2-5.5c3.5-3.7,5.3-8.5,5.3-14.5c0-5.8-1.8-10.6-5.3-14.2C-2561.5,1280.2-2566,1278.4-2571.3,1278.4
				 M-2553.5,1264.6h16.8v67.2h-16.8v-7.2c-3.3,3.1-6.6,5.4-9.9,6.7c-3.3,1.4-6.9,2.1-10.8,2.1c-8.7,0-16.2-3.4-22.6-10.1
				c-6.3-6.7-9.5-15.1-9.5-25.1c0-10.4,3.1-18.8,9.2-25.5c6.1-6.6,13.6-9.9,22.4-9.9c4,0,7.8,0.8,11.4,2.3c3.5,1.5,6.8,3.8,9.8,6.8
				V1264.6z M-2459.5,1278.3l-14,7.7c-2.6-2.8-5.2-4.7-7.8-5.7c-2.6-1.1-5.6-1.6-9.1-1.6c-6.3,0-11.4,1.9-15.3,5.6
				c-3.9,3.8-5.8,8.5-5.8,14.4c0,5.7,1.9,10.3,5.6,14c3.8,3.6,8.7,5.4,14.8,5.4c7.5,0,13.4-2.6,17.6-7.7l13.3,9.1
				c-7.2,9.4-17.4,14.1-30.5,14.1c-11.8,0-21.1-3.5-27.8-10.5c-6.7-7-10-15.2-10-24.5c0-6.5,1.6-12.5,4.9-17.9
				c3.3-5.5,7.8-9.8,13.7-12.9c5.8-3.1,12.3-4.7,19.6-4.7c6.7,0,12.7,1.3,18,4C-2467.3,1269.6-2462.9,1273.4-2459.5,1278.3
				 M-2403,1289.8c-1.1-3.7-3.3-6.7-6.6-9c-3.3-2.3-7.1-3.4-11.4-3.4c-4.7,0-8.8,1.3-12.4,3.9c-2.2,1.6-4.3,4.5-6.2,8.5H-2403z
				 M-2386.2,1303h-54.1c0.8,4.8,2.9,8.6,6.2,11.5c3.4,2.8,7.7,4.2,12.9,4.2c6.3,0,11.7-2.2,16.2-6.6l14.1,6.7
				c-3.5,5-7.8,8.7-12.7,11.2c-4.9,2.4-10.8,3.6-17.6,3.6c-10.5,0-19.1-3.3-25.7-10c-6.6-6.6-9.9-14.9-9.9-24.9
				c0-10.2,3.3-18.7,9.9-25.5c6.6-6.8,14.9-10.1,24.9-10.1c10.6,0,19.2,3.4,25.8,10.1c6.6,6.8,9.9,15.6,9.9,26.7L-2386.2,1303z
				 M-2653.7,1276.6h-12.6v29.3c0,2.4-0.2,8.1,0.4,10.3c0.3,1.2,1,2.2,2.1,3c1.1,0.8,2.4,1.1,3.8,1.1c2,0,4.4-0.7,6.4-1.4l1.3,12
				c-4.2,1.7-8.7,2.3-13.3,2.3c-2.9,0-5.8-0.5-8.5-1.6c-2-0.9-4.1-2.1-5.3-3.9c-1.3-1.9-2-4.5-2.4-6.8c-0.6-3.8-0.6-8.9-0.6-12.8
				v-31.6h-8.4v-12.3h8.4V1250l16.1-9.5v23.8h12.6V1276.6z M-2698.5,1276.6h-12.6v29.3c0,2.4-0.2,8.1,0.4,10.3c0.3,1.2,1,2.2,2.1,3
				c1.1,0.8,2.4,1.1,3.8,1.1c2,0,4.4-0.7,6.4-1.4l1.3,12c-4.2,1.7-8.7,2.3-13.3,2.3c-2.9,0-5.8-0.5-8.5-1.6c-2-0.9-4.1-2.1-5.3-3.9
				c-1.3-1.9-2-4.5-2.4-6.8c-0.6-3.8-0.6-8.9-0.6-12.8v-31.6h-8.4v-12.3h8.4V1250l16.1-9.5v23.8h12.6V1276.6z"/>
		</defs>
		<clipPath id="SVGID_35_">
			<use xlink:href="#SVGID_34_"  style="overflow:visible;"/>
		</clipPath>
		
			<linearGradient id="SVGID_36_" gradientUnits="userSpaceOnUse" x1="-5722.3945" y1="419.2047" x2="-5720.9194" y2="419.2047" gradientTransform="matrix(135.9475 -135.9475 -135.9475 -135.9475 832225.5 -719527.9375)">
			<stop  offset="0" style="stop-color:#7855A2"/>
			<stop  offset="1" style="stop-color:#F16B78"/>
		</linearGradient>
		<polygon class="st19" points="-2870.8,1307.4 -2589.5,1026.1 -2308.2,1307.4 -2589.5,1588.7 		"/>
	</g>
	<path class="st2" d="M-5177.3,466.7l-0.4,0c-13.1-0.2-24,1.7-35.6,8v0c-14.9,7.5-36.3,31.7-52.4,58.8c-18,26.6-53.3,95.1-83.9,99.6
		l-6.8,0c-24,0-43.4-19.4-43.4-43.4c0-23,45.2-89.8,57.9-111.8l49.3-85.4l0.4-0.9c7.2-15.4,22.7-25.2,39.7-25.2
		c17,0,32.4,9.8,39.7,25.2l0.4,0.9l36.1,62.5c11.4,0.5,22.4,3.4,32.2,8.3l-47.2-81.8c-11.1-23.7-34.9-38.9-61.2-38.9
		c-26.3,0-50.1,15.2-61.2,38.9l-48.8,84.5c-16.8,29.1-61.1,92.2-61.1,123.7c0,17.4,6.6,33.3,17.5,45.2h-0.2
		c12.6,14,30.8,22.4,50.3,22.4c49.7,0,80.9-66,108.6-104.1l37.3,64.6c11.1,23.7,34.9,38.9,61.2,38.9c17.8,0,34.4-7,46.8-18.8v0.3
		c12.8-12.2,20.7-29.4,20.7-48.5c0-22.9-22.5-60.2-35-80.9c-7.8-13.5-10.9-20.7-25-30.4l-0.2-0.1l-0.2-0.2l-0.4-0.3l0,0l-0.1-0.1
		l-0.4-0.2C-5151.9,471.7-5166.5,466.3-5177.3,466.7 M-5108.5,606c2-5,3.2-10.5,3.2-16.3c0-16-21.6-51.3-31.3-68.2
		c-12.7-21.2-22.3-33.7-50.9-30.7l-0.2,0c-26.4,3.8-46.2,31.8-35,57.8l12.3,21.4l2.3,3.7l-0.2-0.1l19.2,33.2l0.4,0.9
		c7.2,15.4,22.7,25.2,39.7,25.2c17,0,32.4-9.8,39.7-25.2l0.4-0.9L-5108.5,606z"/>
	<g class="st3">
		<g class="st4">
			<defs>
				<path id="SVGID_37_" d="M-5224.8,531.8l-7.6-13.2c-6.9-16.1,5.3-33.4,21.6-35.8l0.1,0c17.6-1.9,23.5,5.9,31.3,19
					c6,10.4,19.3,32.3,19.3,42.2c0,3.5-0.7,6.9-2,10.1l-0.3,0.5l-0.3,0.6c-2.7,5.8-7.3,10.5-13.1,13.1c-13.5,6.2-29.5,0.3-35.7-13.1
					l-0.3-0.6l-11.8-20.6l0.2,0.1L-5224.8,531.8z M-5268.2,394.7c-8.9,4.1-16.1,11.3-20.3,20.3l-30,52.4
					c-10.3,18-37.6,57.1-37.6,76.6c0,10.4,3.8,20.3,10.8,28h-0.1c7.9,8.8,19.1,13.9,30.9,13.9c30.6,0,49.8-40.9,66.8-64.5l23,40
					c9.6,20.8,34.3,29.9,55,20.2c4.2-1.9,8.1-4.6,11.4-7.8v0.2c8.2-7.9,12.8-18.7,12.8-30c0-14.2-13.9-37.3-21.5-50.1
					c-4.8-8.4-6.7-12.8-15.4-18.8l-0.1-0.1l-0.1-0.1l-0.3-0.2h0l-0.1,0l-0.2-0.2c-5.6-3.6-14.6-6.9-21.2-6.7l-0.3,0
					c-8.1-0.1-14.8,1.1-21.9,5v0c-9.2,4.6-22.3,19.7-32.3,36.4c-11.1,16.5-32.8,58.9-51.7,61.7l-4.2,0c-14.8,0-26.8-12.1-26.7-26.9
					c0,0,0,0,0,0c0-14.3,27.8-55.6,35.6-69.3l30.4-52.9l0.3-0.6c6.2-13.5,22.2-19.4,35.7-13.1c5.8,2.7,10.5,7.3,13.1,13.1l0.3,0.6
					l22.2,38.7c6.9,0.3,13.7,2,19.8,5.1l-29.1-50.7c-7-15.2-22-24.1-37.7-24.1C-5256.7,390.9-5262.6,392.1-5268.2,394.7"/>
			</defs>
			<clipPath id="SVGID_38_">
				<use xlink:href="#SVGID_37_"  style="overflow:visible;"/>
			</clipPath>
			
				<linearGradient id="SVGID_39_" gradientUnits="userSpaceOnUse" x1="-5728.9419" y1="431.995" x2="-5727.8643" y2="431.995" gradientTransform="matrix(135.9475 -135.9475 -135.9475 -135.9475 832225.5 -719527.9375)">
				<stop  offset="0" style="stop-color:#7855A2"/>
				<stop  offset="1" style="stop-color:#F16B78"/>
			</linearGradient>
			<polygon class="st20" points="-5456.3,491.1 -5250.8,285.6 -5045.3,491.1 -5250.8,696.6 			"/>
		</g>
		<g class="st4">
			<defs>
				<path id="SVGID_40_" d="M-5409.2,501.7c0-86.3,70.2-156.5,156.5-156.5c86.3,0,156.5,70.2,156.5,156.5
					c0,86.3-70.2,156.5-156.5,156.5C-5339,658.3-5409.2,588-5409.2,501.7 M-5423.7,501.7c0,94.3,76.8,171.1,171.1,171.1
					c94.3,0,171.1-76.8,171.1-171.1c0-94.3-76.8-171.1-171.1-171.1C-5347,330.6-5423.7,407.4-5423.7,501.7"/>
			</defs>
			<clipPath id="SVGID_41_">
				<use xlink:href="#SVGID_40_"  style="overflow:visible;"/>
			</clipPath>
			
				<linearGradient id="SVGID_42_" gradientUnits="userSpaceOnUse" x1="-5728.981" y1="432.745" x2="-5727.9702" y2="432.745" gradientTransform="matrix(239.2658 -239.2658 -239.2658 -239.2658 1468916.75 -1266585.5)">
				<stop  offset="0" style="stop-color:#7855A2"/>
				<stop  offset="1" style="stop-color:#F16B78"/>
			</linearGradient>
			<polygon class="st21" points="-5594.8,501.7 -5252.6,159.5 -4910.4,501.7 -5252.6,843.9 			"/>
		</g>
		<g class="st4">
			<defs>
				<path id="SVGID_43_" d="M-4961.6,473.8l-16.3,41.5h32.6L-4961.6,473.8z M-4973.2,441.8h23.1l46.4,120.5h-23.9l-9.4-24.8h-49.4
					l-9.6,24.8h-23.9L-4973.2,441.8z M-4774.6,467.9h20v11.7c2.1-4.6,5-8.1,8.5-10.4c3.6-2.4,7.4-3.6,11.6-3.6c3,0,6.1,0.8,9.4,2.4
					l-7.2,20c-2.7-1.4-4.9-2-6.7-2c-3.5,0-6.6,2.2-9,6.6c-2.5,4.4-3.7,13-3.7,25.9l0.1,4.5v37.2h-23.1V467.9z M-4678,486.8
					c-7.2,0-13.2,2.5-17.9,7.6c-4.7,5-7.1,11.5-7.1,19.4c0,8,2.4,14.5,7.2,19.7c4.8,5.1,10.8,7.7,17.9,7.7c7.3,0,13.3-2.5,18.1-7.6
					c4.8-5,7.2-11.7,7.2-19.9c0-8-2.4-14.5-7.2-19.5C-4664.6,489.3-4670.7,486.8-4678,486.8 M-4653.6,467.9h23.1v92.3h-23.1v-9.8
					c-4.5,4.3-9.1,7.4-13.6,9.2c-4.6,1.9-9.5,2.8-14.8,2.8c-12,0-22.3-4.6-31-13.9c-8.7-9.2-13.1-20.7-13.1-34.4
					c0-14.2,4.2-25.9,12.7-35c8.4-9.1,18.7-13.6,30.7-13.6c5.6,0,10.7,1,15.6,3.1c4.9,2.1,9.4,5.2,13.5,9.3V467.9z M-4524.5,486.6
					l-19.3,10.6c-3.6-3.8-7.2-6.4-10.7-7.9c-3.5-1.5-7.7-2.2-12.4-2.2c-8.7,0-15.7,2.6-21,7.7c-5.4,5.2-8,11.7-8,19.8
					c0,7.8,2.6,14.2,7.7,19.2c5.2,5,11.9,7.4,20.3,7.4c10.3,0,18.4-3.5,24.2-10.6l18.2,12.5c-9.9,12.9-23.9,19.3-41.9,19.3
					c-16.3,0-29-4.8-38.2-14.4c-9.2-9.6-13.8-20.8-13.8-33.7c0-8.9,2.2-17.1,6.7-24.6c4.5-7.5,10.7-13.4,18.8-17.7
					c8-4.3,17-6.4,26.9-6.4c9.2,0,17.4,1.8,24.7,5.5C-4535.1,474.7-4529.2,479.9-4524.5,486.6 M-4446.9,502.5c-1.5-5-4.5-9.2-9-12.3
					c-4.5-3.2-9.7-4.7-15.7-4.7c-6.5,0-12.1,1.8-17,5.3c-3,2.2-5.9,6.1-8.5,11.7H-4446.9z M-4423.8,520.6h-74.3
					c1.1,6.6,3.9,11.8,8.6,15.7c4.6,3.9,10.6,5.8,17.8,5.8c8.6,0,16-3,22.2-9.1l19.4,9.2c-4.8,6.9-10.7,12-17.4,15.3
					c-6.8,3.3-14.8,5-24.1,5c-14.4,0-26.2-4.5-35.3-13.7c-9.1-9.1-13.6-20.5-13.6-34.2c0-14.1,4.5-25.7,13.6-35
					c9.1-9.3,20.4-13.9,34.1-13.9c14.5,0,26.3,4.6,35.5,13.9c9.1,9.3,13.6,21.5,13.6,36.7L-4423.8,520.6z M-4791.1,484.4h-17.3v40.2
					c0,3.2-0.2,11.1,0.5,14.1c0.4,1.7,1.4,3.1,2.9,4.1c1.5,1.1,3.3,1.6,5.2,1.6c2.8,0,6-0.9,8.8-1.9l1.8,16.5
					c-5.8,2.3-12,3.2-18.2,3.2c-4,0-8-0.6-11.7-2.2c-2.8-1.2-5.6-2.9-7.3-5.4c-1.8-2.6-2.8-6.1-3.3-9.3c-0.9-5.3-0.8-12.3-0.8-17.6
					v-43.4h-11.6v-16.9h11.6v-19.6l22.1-13v32.7h17.3V484.4z M-4852.6,484.4h-17.3v40.2c0,3.2-0.2,11.1,0.5,14.1
					c0.4,1.7,1.4,3.1,2.9,4.1c1.5,1.1,3.3,1.6,5.2,1.6c2.8,0,6-0.9,8.8-1.9l1.8,16.5c-5.8,2.3-12,3.2-18.2,3.2c-4,0-8-0.6-11.7-2.2
					c-2.8-1.2-5.6-2.9-7.3-5.4c-1.9-2.6-2.8-6.1-3.3-9.3c-0.9-5.3-0.8-12.3-0.8-17.6v-43.4h-11.6v-16.9h11.6v-19.6l22.1-13v32.7
					h17.3V484.4z"/>
			</defs>
			<clipPath id="SVGID_44_">
				<use xlink:href="#SVGID_43_"  style="overflow:visible;"/>
			</clipPath>
			
				<linearGradient id="SVGID_45_" gradientUnits="userSpaceOnUse" x1="-5727.626" y1="429.8497" x2="-5725.6006" y2="429.8497" gradientTransform="matrix(135.9475 -135.9475 -135.9475 -135.9475 832225.5 -719527.9375)">
				<stop  offset="0" style="stop-color:#7855A2"/>
				<stop  offset="1" style="stop-color:#F16B78"/>
			</linearGradient>
			<polygon class="st22" points="-5089.3,526.6 -4703,140.3 -4316.7,526.6 -4703,912.8 			"/>
		</g>
	</g>
	<g>
		<g>
			<defs>
				<path id="SVGID_46_" d="M-5216.8,530l-7.6-13.2c-6.9-16.1,5.3-33.4,21.6-35.8l0.1,0c17.6-1.9,23.5,5.9,31.3,19
					c6,10.4,19.3,32.3,19.3,42.2c0,3.5-0.7,6.9-2,10.1l-0.3,0.5l-0.3,0.6c-2.7,5.8-7.3,10.5-13.1,13.1c-13.5,6.2-29.5,0.3-35.7-13.1
					l-0.3-0.6l-11.8-20.6l0.2,0.1L-5216.8,530z M-5260.3,393c-8.9,4.1-16.1,11.3-20.3,20.3l-30,52.4c-10.3,18-37.6,57.1-37.6,76.6
					c0,10.4,3.8,20.3,10.8,28h-0.1c7.9,8.8,19.1,13.9,30.9,13.9c30.6,0,49.8-40.9,66.8-64.5l23,40c9.6,20.8,34.3,29.9,55,20.2
					c4.2-1.9,8.1-4.6,11.4-7.8v0.2c8.2-7.9,12.8-18.7,12.8-30c0-14.2-13.9-37.3-21.5-50.1c-4.8-8.4-6.7-12.8-15.4-18.8l-0.1-0.1
					l-0.1-0.1l-0.3-0.2h0l-0.1,0l-0.2-0.2c-5.6-3.6-14.6-6.9-21.2-6.7l-0.3,0c-8.1-0.1-14.8,1.1-21.9,5v0
					c-9.2,4.6-22.3,19.7-32.3,36.4c-11.1,16.5-32.8,58.9-51.7,61.7l-4.2,0c-14.8,0-26.8-12.1-26.7-26.9c0,0,0,0,0,0
					c0-14.3,27.8-55.6,35.6-69.3l30.4-52.9l0.3-0.6c6.2-13.5,22.2-19.4,35.7-13.1c5.8,2.7,10.5,7.3,13.1,13.1l0.3,0.6l22.2,38.7
					c6.9,0.3,13.7,2,19.8,5.1l-29.1-50.7c-7-15.2-22-24.1-37.7-24.1C-5248.7,389.2-5254.6,390.4-5260.3,393"/>
			</defs>
			<clipPath id="SVGID_47_">
				<use xlink:href="#SVGID_46_"  style="overflow:visible;"/>
			</clipPath>
			
				<linearGradient id="SVGID_48_" gradientUnits="userSpaceOnUse" x1="-5728.9063" y1="431.9721" x2="-5727.8286" y2="431.9721" gradientTransform="matrix(135.9475 -135.9475 -135.9475 -135.9475 832225.5 -719527.9375)">
				<stop  offset="0" style="stop-color:#7855A2"/>
				<stop  offset="1" style="stop-color:#F16B78"/>
			</linearGradient>
			<polygon class="st23" points="-5448.3,489.3 -5242.8,283.8 -5037.3,489.3 -5242.8,694.8 			"/>
		</g>
		<g>
			<defs>
				<path id="SVGID_49_" d="M-5401.2,500c0-86.3,70.2-156.5,156.5-156.5c86.3,0,156.5,70.2,156.5,156.5
					c0,86.3-70.2,156.5-156.5,156.5C-5331,656.5-5401.2,586.3-5401.2,500 M-5415.8,500c0,94.3,76.8,171.1,171.1,171.1
					c94.3,0,171.1-76.8,171.1-171.1c0-94.3-76.8-171.1-171.1-171.1C-5339,328.9-5415.8,405.7-5415.8,500"/>
			</defs>
			<clipPath id="SVGID_50_">
				<use xlink:href="#SVGID_49_"  style="overflow:visible;"/>
			</clipPath>
			
				<linearGradient id="SVGID_51_" gradientUnits="userSpaceOnUse" x1="-5728.9604" y1="432.732" x2="-5727.9497" y2="432.732" gradientTransform="matrix(239.2658 -239.2658 -239.2658 -239.2658 1468916.75 -1266585.5)">
				<stop  offset="0" style="stop-color:#7855A2"/>
				<stop  offset="1" style="stop-color:#F16B78"/>
			</linearGradient>
			<polygon class="st24" points="-5586.9,500 -5244.7,157.8 -4902.5,500 -5244.7,842.2 			"/>
		</g>
		<g>
			<defs>
				<path id="SVGID_52_" d="M-4955.2,472.7l-15.9,40.4h31.7L-4955.2,472.7z M-4966.5,441.5h22.5l45.2,117.3h-23.2l-9.2-24.2h-48.1
					l-9.4,24.2h-23.2L-4966.5,441.5z M-4773.2,466.9h19.5v11.4c2.1-4.5,4.8-7.8,8.3-10.2c3.5-2.3,7.2-3.5,11.3-3.5
					c2.9,0,6,0.8,9.1,2.3l-7,19.5c-2.6-1.3-4.8-2-6.5-2c-3.4,0-6.4,2.1-8.8,6.4c-2.4,4.3-3.6,12.7-3.6,25.2l0.1,4.4v36.3h-22.5
					V466.9z M-4679.2,485.4c-7,0-12.8,2.4-17.4,7.4c-4.6,4.9-6.9,11.2-6.9,18.9c0,7.8,2.3,14.1,7.1,19.2c4.7,5,10.5,7.5,17.4,7.5
					c7.1,0,13-2.5,17.6-7.4c4.7-4.9,7-11.4,7-19.4c0-7.8-2.3-14.1-7-19C-4666.1,487.8-4672,485.4-4679.2,485.4 M-4655.4,466.9h22.5
					v89.9h-22.5v-9.6c-4.4,4.2-8.8,7.2-13.3,9c-4.4,1.8-9.3,2.8-14.4,2.8c-11.7,0-21.7-4.5-30.2-13.5c-8.5-9-12.7-20.1-12.7-33.5
					c0-13.8,4.1-25.2,12.3-34c8.2-8.8,18.2-13.3,29.9-13.3c5.4,0,10.5,1,15.2,3c4.7,2,9.1,5.1,13.2,9.1V466.9z M-4529.8,485.2
					l-18.8,10.3c-3.5-3.7-7-6.2-10.4-7.7c-3.4-1.4-7.5-2.1-12.1-2.1c-8.4,0-15.3,2.5-20.5,7.5c-5.2,5-7.8,11.4-7.8,19.3
					c0,7.6,2.5,13.8,7.5,18.7c5,4.8,11.6,7.2,19.8,7.2c10.1,0,17.9-3.4,23.5-10.3l17.8,12.2c-9.6,12.5-23.2,18.8-40.8,18.8
					c-15.8,0-28.2-4.7-37.2-14c-8.9-9.3-13.4-20.3-13.4-32.8c0-8.7,2.2-16.7,6.5-24c4.4-7.3,10.4-13.1,18.3-17.2
					c7.8-4.2,16.5-6.3,26.1-6.3c8.9,0,17,1.8,24.1,5.3C-4540.1,473.6-4534.3,478.7-4529.8,485.2 M-4454.2,500.6
					c-1.5-4.9-4.4-8.9-8.8-12c-4.4-3.1-9.5-4.6-15.3-4.6c-6.3,0-11.8,1.7-16.6,5.2c-3,2.1-5.7,6-8.3,11.4H-4454.2z M-4431.8,518.2
					h-72.4c1,6.4,3.8,11.5,8.3,15.3c4.5,3.8,10.3,5.7,17.3,5.7c8.4,0,15.6-2.9,21.6-8.9l18.9,8.9c-4.7,6.7-10.4,11.7-17,14.9
					c-6.6,3.2-14.4,4.8-23.5,4.8c-14,0-25.5-4.4-34.3-13.3c-8.8-8.9-13.3-20-13.3-33.3c0-13.7,4.4-25.1,13.3-34.1
					c8.8-9.1,19.9-13.6,33.2-13.6c14.1,0,25.6,4.5,34.5,13.5c8.9,9,13.3,20.9,13.3,35.7L-4431.8,518.2z M-4789.3,483h-16.8v39.2
					c0,3.1-0.2,10.8,0.5,13.7c0.4,1.7,1.4,3,2.8,4c1.5,1.1,3.2,1.5,5,1.5c2.7,0,5.9-0.9,8.6-1.8l1.7,16.1
					c-5.6,2.2-11.7,3.1-17.7,3.1c-3.9,0-7.7-0.6-11.3-2.1c-2.7-1.1-5.4-2.8-7.1-5.3c-1.8-2.6-2.7-6-3.2-9
					c-0.9-5.1-0.8-11.9-0.8-17.1V483h-11.3v-16.5h11.3v-19.1l21.5-12.7v31.8h16.8V483z M-4849.2,483h-16.8v39.2
					c0,3.1-0.2,10.8,0.5,13.7c0.4,1.7,1.4,3,2.8,4c1.5,1.1,3.2,1.5,5,1.5c2.7,0,5.9-0.9,8.6-1.8l1.7,16.1
					c-5.6,2.2-11.7,3.1-17.7,3.1c-3.9,0-7.7-0.6-11.4-2.1c-2.7-1.1-5.4-2.8-7.1-5.3c-1.8-2.6-2.7-6-3.2-9
					c-0.9-5.1-0.8-11.9-0.8-17.1V483h-11.3v-16.5h11.3v-19.1l21.5-12.7v31.8h16.8V483z"/>
			</defs>
			<clipPath id="SVGID_53_">
				<use xlink:href="#SVGID_52_"  style="overflow:visible;"/>
			</clipPath>
			
				<linearGradient id="SVGID_54_" gradientUnits="userSpaceOnUse" x1="-5727.5864" y1="429.8606" x2="-5725.6147" y2="429.8606" gradientTransform="matrix(135.9475 -135.9475 -135.9475 -135.9475 832225.5 -719527.9375)">
				<stop  offset="0" style="stop-color:#7855A2"/>
				<stop  offset="1" style="stop-color:#F16B78"/>
			</linearGradient>
			<polygon class="st25" points="-5079.5,524.1 -4703.5,148.1 -4327.5,524.1 -4703.5,900.1 			"/>
		</g>
	</g>
	<g class="st3">
		<path class="st26" d="M-1287.4,775l-15.9,40.4h31.7L-1287.4,775z M-1298.7,743.8h22.5l45.2,117.3h-23.2l-9.2-24.2h-48.1l-9.4,24.2
			h-23.2L-1298.7,743.8z M-1105.5,769.2h19.5v11.4c2.1-4.5,4.8-7.8,8.3-10.2c3.5-2.3,7.2-3.5,11.3-3.5c2.9,0,6,0.8,9.1,2.3l-7,19.5
			c-2.6-1.3-4.8-2-6.5-2c-3.4,0-6.4,2.1-8.8,6.4c-2.4,4.3-3.6,12.7-3.6,25.2l0.1,4.4v36.3h-22.5V769.2z M-1011.4,787.6
			c-7,0-12.8,2.4-17.4,7.4c-4.6,4.9-6.9,11.2-6.9,18.9c0,7.8,2.3,14.1,7.1,19.2c4.7,5,10.5,7.5,17.4,7.5c7.1,0,13-2.5,17.6-7.4
			c4.7-4.9,7-11.4,7-19.4c0-7.8-2.3-14.1-7-19C-998.3,790.1-1004.3,787.6-1011.4,787.6 M-987.7,769.2h22.5v89.9h-22.5v-9.6
			c-4.4,4.2-8.8,7.2-13.3,9c-4.4,1.8-9.3,2.8-14.4,2.8c-11.7,0-21.7-4.5-30.2-13.5c-8.5-9-12.7-20.1-12.7-33.5
			c0-13.8,4.1-25.2,12.3-34c8.2-8.8,18.2-13.3,29.9-13.3c5.4,0,10.5,1,15.2,3c4.7,2,9.1,5.1,13.2,9.1V769.2z M-862,787.5l-18.8,10.3
			c-3.5-3.7-7-6.2-10.4-7.7c-3.4-1.4-7.5-2.1-12.1-2.1c-8.4,0-15.3,2.5-20.5,7.5c-5.2,5-7.8,11.4-7.8,19.3c0,7.6,2.5,13.8,7.5,18.7
			c5,4.8,11.6,7.2,19.8,7.2c10.1,0,17.9-3.4,23.5-10.3l17.8,12.2c-9.6,12.5-23.2,18.8-40.8,18.8c-15.8,0-28.2-4.7-37.2-14
			c-8.9-9.3-13.4-20.3-13.4-32.8c0-8.7,2.2-16.7,6.5-24c4.4-7.3,10.4-13.1,18.3-17.2c7.8-4.2,16.5-6.3,26.1-6.3
			c8.9,0,17,1.8,24.1,5.3C-872.4,775.9-866.5,780.9-862,787.5 M-786.4,802.9c-1.5-4.9-4.4-8.9-8.8-12c-4.4-3.1-9.5-4.6-15.3-4.6
			c-6.3,0-11.8,1.7-16.6,5.2c-3,2.1-5.7,6-8.3,11.4H-786.4z M-764,820.5h-72.4c1,6.4,3.8,11.5,8.3,15.3c4.5,3.8,10.3,5.7,17.3,5.7
			c8.4,0,15.6-2.9,21.6-8.9l18.9,8.9c-4.7,6.7-10.4,11.7-17,14.9c-6.6,3.2-14.4,4.8-23.5,4.8c-14,0-25.5-4.4-34.3-13.3
			c-8.8-8.9-13.3-20-13.3-33.3c0-13.7,4.4-25.1,13.3-34.1c8.8-9.1,19.9-13.6,33.2-13.6c14.1,0,25.6,4.5,34.5,13.5
			c8.9,9,13.3,20.9,13.3,35.7L-764,820.5z M-1121.5,785.3h-16.8v39.2c0,3.1-0.2,10.8,0.5,13.7c0.4,1.7,1.4,3,2.8,4
			c1.5,1.1,3.2,1.5,5,1.5c2.7,0,5.9-0.9,8.6-1.8l1.7,16.1c-5.6,2.2-11.7,3.1-17.7,3.1c-3.9,0-7.7-0.6-11.3-2.1
			c-2.7-1.1-5.4-2.8-7.1-5.3c-1.8-2.6-2.7-6-3.2-9c-0.9-5.1-0.8-11.9-0.8-17.1v-42.2h-11.3v-16.5h11.3v-19.1l21.5-12.7v31.8h16.8
			V785.3z M-1181.4,785.3h-16.8v39.2c0,3.1-0.2,10.8,0.5,13.7c0.4,1.7,1.4,3,2.8,4c1.5,1.1,3.2,1.5,5,1.5c2.7,0,5.9-0.9,8.6-1.8
			l1.7,16.1c-5.6,2.2-11.7,3.1-17.7,3.1c-3.9,0-7.7-0.6-11.4-2.1c-2.7-1.1-5.4-2.8-7.1-5.3c-1.8-2.6-2.7-6-3.2-9
			c-0.9-5.1-0.8-11.9-0.8-17.1v-42.2h-11.3v-16.5h11.3v-19.1l21.5-12.7v31.8h16.8V785.3z"/>
		<path class="st27" d="M-1733.5,802.2c0-86.3,70.2-156.5,156.5-156.5c86.3,0,156.5,70.2,156.5,156.5c0,86.3-70.2,156.5-156.5,156.5
			C-1663.2,958.8-1733.5,888.6-1733.5,802.2 M-1748,802.2c0,94.3,76.8,171.1,171.1,171.1c94.3,0,171.1-76.8,171.1-171.1
			c0-94.3-76.8-171.1-171.1-171.1C-1671.3,631.1-1748,707.9-1748,802.2"/>
		<path class="st27" d="M-1549.1,832.3l-7.6-13.2c-6.9-16.1,5.3-33.4,21.6-35.8l0.1,0c17.6-1.9,23.5,5.9,31.3,19
			c6,10.4,19.3,32.3,19.3,42.2c0,3.5-0.7,6.9-2,10.1l-0.3,0.5l-0.3,0.6c-2.7,5.8-7.3,10.5-13.1,13.1c-13.5,6.2-29.5,0.3-35.7-13.1
			l-0.3-0.6l-11.8-20.6l0.2,0.1L-1549.1,832.3z M-1592.5,695.2c-8.9,4.1-16.1,11.3-20.3,20.3l-30,52.4c-10.3,18-37.6,57.1-37.6,76.6
			c0,10.4,3.8,20.3,10.8,28h-0.1c7.9,8.8,19.1,13.9,30.9,13.9c30.6,0,49.8-40.9,66.8-64.5l23,40c9.6,20.8,34.3,29.9,55,20.2
			c4.2-1.9,8.1-4.6,11.4-7.8v0.2c8.2-7.9,12.8-18.7,12.8-30c0-14.2-13.9-37.3-21.5-50.1c-4.8-8.4-6.7-12.8-15.4-18.8l-0.1-0.1
			l-0.1-0.1l-0.3-0.2h0l-0.1,0l-0.2-0.2c-5.6-3.6-14.6-6.9-21.2-6.7l-0.3,0c-8.1-0.1-14.8,1.1-21.9,5v0
			c-9.2,4.6-22.3,19.7-32.3,36.4c-11.1,16.5-32.8,58.9-51.7,61.7l-4.2,0c-14.8,0-26.8-12.1-26.7-26.9c0,0,0,0,0,0
			c0-14.3,27.8-55.6,35.6-69.3l30.4-52.9l0.3-0.6c6.2-13.5,22.2-19.4,35.7-13.1c5.8,2.7,10.5,7.3,13.1,13.1l0.3,0.6l22.2,38.7
			c6.9,0.3,13.7,2,19.8,5.1l-29.1-50.7c-7-15.2-22-24.1-37.7-24.1C-1580.9,691.4-1586.9,692.6-1592.5,695.2"/>
	</g>
	<rect x="-299.1" y="247.4" class="st28" width="150.9" height="144.8"/>
	<rect x="-478.6" y="247.4" class="st29" width="150.9" height="144.8"/>
</g>
<g id="Layer_3">
	<g class="st3">
		<linearGradient id="SVGID_55_" gradientUnits="userSpaceOnUse" x1="91.2204" y1="611.0999" x2="270.4785" y2="431.8418">
			<stop  offset="0" style="stop-color:#C766FF"/>
			<stop  offset="1" style="stop-color:#FF7F89"/>
		</linearGradient>
		<path class="st30" d="M206.9,533.1l-7.6-13.2c-6.9-16.1,5.3-33.4,21.6-35.8l0.1,0c17.6-1.9,23.5,5.9,31.3,19
			c6,10.4,19.3,32.3,19.3,42.2c0,3.5-0.7,6.9-2,10.1l-0.3,0.5l-0.3,0.6c-2.7,5.8-7.3,10.5-13.1,13.1c-13.5,6.2-29.5,0.3-35.7-13.1
			l-0.3-0.6l-11.8-20.6l0.2,0.1L206.9,533.1z M163.5,396c-8.9,4.1-16.1,11.3-20.3,20.3l-30,52.4c-10.3,18-37.6,57.1-37.6,76.6
			c0,10.4,3.8,20.3,10.8,28h-0.1c7.9,8.8,19.1,13.9,30.9,13.9c30.6,0,49.8-40.9,66.8-64.5l23,40c9.6,20.8,34.3,29.9,55,20.2
			c4.2-1.9,8.1-4.6,11.4-7.8v0.2c8.2-7.9,12.8-18.7,12.8-30c0-14.2-13.9-37.3-21.5-50.1c-4.8-8.4-6.7-12.8-15.4-18.8l-0.1-0.1
			l-0.1-0.1l-0.3-0.2h0l-0.1,0l-0.2-0.2c-5.6-3.6-14.6-6.9-21.2-6.7l-0.3,0c-8.1-0.1-14.8,1.1-21.9,5v0
			c-9.2,4.6-22.3,19.7-32.3,36.4c-11.1,16.5-32.8,58.9-51.7,61.7l-4.2,0c-14.8,0-26.8-12.1-26.7-26.9c0,0,0,0,0,0
			c0-14.3,27.8-55.6,35.6-69.3l30.4-52.9l0.3-0.6c6.2-13.5,22.2-19.4,35.7-13.1c5.8,2.7,10.5,7.3,13.1,13.1l0.3,0.6l22.2,38.7
			c6.9,0.3,13.7,2,19.8,5.1l-29.1-50.7c-7-15.2-22-24.1-37.7-24.1C175,392.2,169.1,393.4,163.5,396"/>
		<linearGradient id="SVGID_56_" gradientUnits="userSpaceOnUse" x1="17.2792" y1="664.7693" x2="333.09" y2="348.9585">
			<stop  offset="0" style="stop-color:#C766FF"/>
			<stop  offset="1" style="stop-color:#FF7F89"/>
		</linearGradient>
		<path class="st31" d="M22.5,503c0-86.3,70.2-156.5,156.5-156.5c86.3,0,156.5,70.2,156.5,156.5c0,86.3-70.2,156.5-156.5,156.5
			C92.7,659.6,22.5,589.3,22.5,503 M7.9,503c0,94.3,76.8,171.1,171.1,171.1c94.3,0,171.1-76.8,171.1-171.1
			c0-94.3-76.8-171.1-171.1-171.1C84.7,331.9,7.9,408.7,7.9,503"/>
		<linearGradient id="SVGID_57_" gradientUnits="userSpaceOnUse" x1="417.6765" y1="556.005" x2="986.9296" y2="451.3593">
			<stop  offset="0" style="stop-color:#C766FF"/>
			<stop  offset="1" style="stop-color:#FF7F89"/>
		</linearGradient>
		<path class="st32" d="M468.5,475.7l-15.9,40.4h31.7L468.5,475.7z M457.3,444.6h22.5l45.2,117.3h-23.2l-9.2-24.2h-48.1l-9.4,24.2
			h-23.2L457.3,444.6z M650.5,470H670v11.4c2.1-4.5,4.8-7.8,8.3-10.2c3.5-2.3,7.2-3.5,11.3-3.5c2.9,0,6,0.8,9.1,2.3l-7,19.5
			c-2.6-1.3-4.8-2-6.5-2c-3.4,0-6.4,2.1-8.8,6.4c-2.4,4.3-3.6,12.7-3.6,25.2l0.1,4.4v36.3h-22.5V470z M744.6,488.4
			c-7,0-12.8,2.4-17.4,7.4c-4.6,4.9-6.9,11.2-6.9,18.9c0,7.8,2.3,14.1,7.1,19.2c4.7,5,10.5,7.5,17.4,7.5c7.1,0,13-2.5,17.6-7.4
			c4.7-4.9,7-11.4,7-19.4c0-7.8-2.3-14.1-7-19C757.6,490.8,751.7,488.4,744.6,488.4 M768.3,470h22.5v89.9h-22.5v-9.6
			c-4.4,4.2-8.8,7.2-13.3,9c-4.4,1.8-9.3,2.8-14.4,2.8c-11.7,0-21.7-4.5-30.2-13.5c-8.5-9-12.7-20.1-12.7-33.5
			c0-13.8,4.1-25.2,12.3-34c8.2-8.8,18.2-13.3,29.9-13.3c5.4,0,10.5,1,15.2,3c4.7,2,9.1,5.1,13.2,9.1V470z M893.9,488.2l-18.8,10.3
			c-3.5-3.7-7-6.2-10.4-7.7c-3.4-1.4-7.5-2.1-12.1-2.1c-8.4,0-15.3,2.5-20.5,7.5c-5.2,5-7.8,11.4-7.8,19.3c0,7.6,2.5,13.8,7.5,18.7
			c5,4.8,11.6,7.2,19.8,7.2c10.1,0,17.9-3.4,23.5-10.3l17.8,12.2c-9.6,12.5-23.2,18.8-40.8,18.8c-15.8,0-28.2-4.7-37.2-14
			c-8.9-9.3-13.4-20.3-13.4-32.8c0-8.7,2.2-16.7,6.5-24c4.4-7.3,10.4-13.1,18.3-17.2c7.8-4.2,16.5-6.3,26.1-6.3
			c8.9,0,17,1.8,24.1,5.3C883.6,476.6,889.4,481.7,893.9,488.2 M969.5,503.6c-1.5-4.9-4.4-8.9-8.8-12c-4.4-3.1-9.5-4.6-15.3-4.6
			c-6.3,0-11.8,1.7-16.6,5.2c-3,2.1-5.7,6-8.3,11.4H969.5z M992,521.3h-72.4c1,6.4,3.8,11.5,8.3,15.3c4.5,3.8,10.3,5.7,17.3,5.7
			c8.4,0,15.6-2.9,21.6-8.9l18.9,8.9c-4.7,6.7-10.4,11.7-17,14.9c-6.6,3.2-14.4,4.8-23.5,4.8c-14,0-25.5-4.4-34.3-13.3
			c-8.8-8.9-13.3-20-13.3-33.3c0-13.7,4.4-25.1,13.3-34.1c8.8-9.1,19.9-13.6,33.2-13.6c14.1,0,25.6,4.5,34.5,13.5
			c8.9,9,13.3,20.9,13.3,35.7L992,521.3z M634.5,486h-16.8v39.2c0,3.1-0.2,10.8,0.5,13.7c0.4,1.7,1.4,3,2.8,4c1.5,1.1,3.2,1.5,5,1.5
			c2.7,0,5.9-0.9,8.6-1.8l1.7,16.1c-5.6,2.2-11.7,3.1-17.7,3.1c-3.9,0-7.7-0.6-11.3-2.1c-2.7-1.1-5.4-2.8-7.1-5.3
			c-1.8-2.6-2.7-6-3.2-9c-0.9-5.1-0.7-11.9-0.7-17.1V486h-11.3v-16.5h11.3v-19.1l21.5-12.7v31.8h16.8V486z M574.6,486h-16.8v39.2
			c0,3.1-0.2,10.8,0.5,13.7c0.4,1.7,1.4,3,2.8,4c1.5,1.1,3.2,1.5,5,1.5c2.7,0,5.9-0.9,8.6-1.8l1.7,16.1c-5.6,2.2-11.7,3.1-17.7,3.1
			c-3.9,0-7.7-0.6-11.4-2.1c-2.7-1.1-5.4-2.8-7.1-5.3c-1.8-2.6-2.7-6-3.2-9c-0.9-5.1-0.8-11.9-0.8-17.1V486H525v-16.5h11.3v-19.1
			l21.5-12.7v31.8h16.8V486z"/>
	</g>
	<g>
		<linearGradient id="SVGID_58_" gradientUnits="userSpaceOnUse" x1="83.2794" y1="279.1841" x2="262.5376" y2="99.926">
			<stop  offset="0" style="stop-color:#C766FF"/>
			<stop  offset="1" style="stop-color:#FF7F89"/>
		</linearGradient>
		<path class="st33" d="M199,201.1l-7.6-13.2c-6.9-16.1,5.3-33.4,21.6-35.8l0.1,0c17.6-1.9,23.5,5.9,31.3,19
			c6,10.4,19.3,32.3,19.3,42.2c0,3.5-0.7,6.9-2,10.1l-0.3,0.5l-0.3,0.6c-2.7,5.8-7.3,10.5-13.1,13.1c-13.5,6.2-29.5,0.3-35.7-13.1
			l-0.3-0.6l-11.8-20.6l0.2,0.1L199,201.1z M155.5,64.1c-8.9,4.1-16.1,11.3-20.3,20.3l-30,52.4c-10.3,18-37.6,57.1-37.6,76.6
			c0,10.4,3.8,20.3,10.8,28h-0.1c7.9,8.8,19.1,13.9,30.9,13.9c30.6,0,49.8-40.9,66.8-64.5l23,40c9.6,20.8,34.3,29.9,55,20.2
			c4.2-1.9,8.1-4.6,11.4-7.8v0.2c8.2-7.9,12.8-18.7,12.8-30c0-14.2-13.9-37.3-21.5-50.1c-4.8-8.4-6.7-12.8-15.4-18.8l-0.1-0.1
			l-0.1-0.1l-0.3-0.2h0l-0.1,0l-0.2-0.2c-5.6-3.6-14.6-6.9-21.2-6.7l-0.3,0c-8.1-0.1-14.8,1.1-21.9,5v0
			c-9.2,4.6-22.3,19.7-32.3,36.4c-11.1,16.5-32.8,58.9-51.7,61.7l-4.2,0c-14.8,0-26.8-12.1-26.7-26.9c0,0,0,0,0,0
			c0-14.3,27.8-55.6,35.6-69.3l30.4-52.9l0.3-0.6c6.2-13.5,22.2-19.4,35.7-13.1c5.8,2.7,10.5,7.3,13.1,13.1l0.3,0.6l22.2,38.7
			c6.9,0.3,13.7,2,19.8,5.1l-29.1-50.7c-7-15.2-22-24.1-37.7-24.1C167.1,60.3,161.2,61.5,155.5,64.1"/>
		<linearGradient id="SVGID_59_" gradientUnits="userSpaceOnUse" x1="9.3382" y1="332.8535" x2="325.149" y2="17.0427">
			<stop  offset="0" style="stop-color:#C766FF"/>
			<stop  offset="1" style="stop-color:#FF7F89"/>
		</linearGradient>
		<path class="st34" d="M14.6,171.1c0-86.3,70.2-156.5,156.5-156.5c86.3,0,156.5,70.2,156.5,156.5c0,86.3-70.2,156.5-156.5,156.5
			C84.8,327.6,14.6,257.4,14.6,171.1 M0,171.1c0,94.3,76.8,171.1,171.1,171.1c94.3,0,171.1-76.8,171.1-171.1
			C342.2,76.8,265.4,0,171.1,0C76.8,0,0,76.8,0,171.1"/>
		<linearGradient id="SVGID_60_" gradientUnits="userSpaceOnUse" x1="409.7355" y1="224.0892" x2="978.9886" y2="119.4435">
			<stop  offset="0" style="stop-color:#C766FF"/>
			<stop  offset="1" style="stop-color:#FF7F89"/>
		</linearGradient>
		<path class="st35" d="M460.6,143.8l-15.9,40.4h31.7L460.6,143.8z M449.3,112.6h22.5L517,230h-23.2l-9.2-24.2h-48.1l-9.4,24.2
			h-23.2L449.3,112.6z M642.6,138H662v11.4c2.1-4.5,4.8-7.8,8.3-10.2c3.5-2.3,7.2-3.5,11.3-3.5c2.9,0,6,0.8,9.1,2.3l-7,19.5
			c-2.6-1.3-4.8-2-6.5-2c-3.4,0-6.4,2.1-8.8,6.4c-2.4,4.3-3.6,12.7-3.6,25.2l0.1,4.4v36.3h-22.5V138z M736.6,156.5
			c-7,0-12.8,2.4-17.4,7.4c-4.6,4.9-6.9,11.2-6.9,18.9c0,7.8,2.3,14.1,7.1,19.2c4.7,5,10.5,7.5,17.4,7.5c7.1,0,13-2.5,17.6-7.4
			c4.7-4.9,7-11.4,7-19.4c0-7.8-2.3-14.1-7-19C749.7,158.9,743.8,156.5,736.6,156.5 M760.4,138h22.5v89.9h-22.5v-9.6
			c-4.4,4.2-8.8,7.2-13.3,9c-4.4,1.8-9.3,2.8-14.4,2.8c-11.7,0-21.7-4.5-30.2-13.5c-8.5-9-12.7-20.1-12.7-33.5
			c0-13.8,4.1-25.2,12.3-34c8.2-8.8,18.2-13.3,29.9-13.3c5.4,0,10.5,1,15.2,3c4.7,2,9.1,5.1,13.2,9.1V138z M886,156.3l-18.8,10.3
			c-3.5-3.7-7-6.2-10.4-7.7c-3.4-1.4-7.5-2.1-12.1-2.1c-8.4,0-15.3,2.5-20.5,7.5c-5.2,5-7.8,11.4-7.8,19.3c0,7.6,2.5,13.8,7.5,18.7
			c5,4.8,11.6,7.2,19.8,7.2c10.1,0,17.9-3.4,23.5-10.3l17.8,12.2c-9.6,12.5-23.2,18.8-40.8,18.8c-15.8,0-28.2-4.7-37.2-14
			c-8.9-9.3-13.4-20.3-13.4-32.8c0-8.7,2.2-16.7,6.5-24c4.4-7.3,10.4-13.1,18.3-17.2c7.8-4.2,16.5-6.3,26.1-6.3
			c8.9,0,17,1.8,24.1,5.3C875.7,144.7,881.5,149.8,886,156.3 M961.6,171.7c-1.5-4.9-4.4-8.9-8.8-12c-4.4-3.1-9.5-4.6-15.3-4.6
			c-6.3,0-11.8,1.7-16.6,5.2c-3,2.1-5.7,6-8.3,11.4H961.6z M984,189.3h-72.4c1,6.4,3.8,11.5,8.3,15.3c4.5,3.8,10.3,5.7,17.3,5.7
			c8.4,0,15.6-2.9,21.6-8.9l18.9,8.9c-4.7,6.7-10.4,11.7-17,14.9c-6.6,3.2-14.4,4.8-23.5,4.8c-14,0-25.5-4.4-34.3-13.3
			c-8.8-8.9-13.3-20-13.3-33.3c0-13.7,4.4-25.1,13.3-34.1c8.8-9.1,19.9-13.6,33.2-13.6c14.1,0,25.6,4.5,34.5,13.5
			c8.9,9,13.3,20.9,13.3,35.7L984,189.3z M626.5,154.1h-16.8v39.2c0,3.1-0.2,10.8,0.5,13.7c0.4,1.7,1.4,3,2.8,4
			c1.5,1.1,3.2,1.5,5,1.5c2.7,0,5.9-0.9,8.6-1.8l1.7,16.1c-5.6,2.2-11.7,3.1-17.7,3.1c-3.9,0-7.7-0.6-11.3-2.1
			c-2.7-1.1-5.4-2.8-7.1-5.3c-1.8-2.6-2.7-6-3.2-9c-0.9-5.1-0.7-11.9-0.7-17.1v-42.2h-11.3v-16.5h11.3v-19.1l21.5-12.7v31.8h16.8
			V154.1z M566.6,154.1h-16.8v39.2c0,3.1-0.2,10.8,0.5,13.7c0.4,1.7,1.4,3,2.8,4c1.5,1.1,3.2,1.5,5,1.5c2.7,0,5.9-0.9,8.6-1.8
			l1.7,16.1c-5.6,2.2-11.7,3.1-17.7,3.1c-3.9,0-7.7-0.6-11.4-2.1c-2.7-1.1-5.4-2.8-7.1-5.3c-1.8-2.6-2.7-6-3.2-9
			c-0.9-5.1-0.8-11.9-0.8-17.1v-42.2H517v-16.5h11.3v-19.1l21.5-12.7v31.8h16.8V154.1z"/>
	</g>
</g>
</svg>
