<svg id="Layer_1" data-name="Layer 1" xmlns="http://www.w3.org/2000/svg" xmlns:xlink="http://www.w3.org/1999/xlink" width="115.685" height="40" viewBox="0 0 115.685 40">
  <defs>
    <style>
      .cls-1 {
        fill-rule: evenodd;
        fill: url(#linear-gradient);
      }

      .cls-2 {
        fill: url(#linear-gradient-2);
      }

      .cls-3 {
        fill: url(#linear-gradient-3);
      }
    </style>
    <linearGradient id="linear-gradient" x1="48.6103" y1="9.405" x2="114.8773" y2="30.12" gradientTransform="matrix(1, 0, 0, -1, 0, 39.8898)" gradientUnits="userSpaceOnUse">
      <stop offset="0.0001" stop-color="#c766ff"/>
      <stop offset="1" stop-color="#ff7f89"/>
    </linearGradient>
    <linearGradient id="linear-gradient-2" x1="-1.2438" y1="18.4591" x2="41.475" y2="21.3205" xlink:href="#linear-gradient"/>
    <linearGradient id="linear-gradient-3" x1="7.2095" y1="20.2534" x2="33.4805" y2="22.1529" xlink:href="#linear-gradient"/>
  </defs>
  <path class="cls-1" d="M54.151,16.8089l-1.8693,4.7224h3.7268Zm-1.3285-3.647h2.6452l5.314,13.723H58.0542l-1.0816-2.8288h-5.655l-1.1051,2.8288H47.485Zm22.7256,2.969h2.2808v1.3326a2.8456,2.8456,0,0,1,.9758-1.1923,2.3706,2.3706,0,0,1,1.3285-.4091,2.4947,2.4947,0,0,1,1.07.2688L80.38,18.41a1.8489,1.8489,0,0,0-.7642-.2338,1.2169,1.2169,0,0,0-1.0346.7481A6.8156,6.8156,0,0,0,78.158,21.87l.0118.5144v4.2431H75.5246V16.1309Zm11.0512,2.1625a2.6577,2.6577,0,0,0-2.0456.865,3.0878,3.0878,0,0,0-.8113,2.2092,3.1084,3.1084,0,0,0,.8348,2.2443,2.703,2.703,0,0,0,2.0456.8767,2.7319,2.7319,0,0,0,2.0692-.865,3.131,3.131,0,0,0,.823-2.2677,3.0554,3.0554,0,0,0-.823-2.2209A2.808,2.808,0,0,0,86.5993,18.2934Zm2.7981-2.1625h2.6452V26.6394H89.3974V25.5172a4.9767,4.9767,0,0,1-1.5636,1.0521,4.5008,4.5008,0,0,1-1.693.3272,4.7244,4.7244,0,0,1-3.55-1.578,5.4483,5.4483,0,0,1-1.4931-3.9158,5.5912,5.5912,0,0,1,1.4461-3.9743,4.6552,4.6552,0,0,1,3.5152-1.5546,4.5517,4.5517,0,0,1,1.787.3506,5.11,5.11,0,0,1,1.5519,1.0637ZM104.164,18.27l-2.211,1.204a3.8436,3.8436,0,0,0-1.222-.9,3.7754,3.7754,0,0,0-1.4228-.2454,3.3557,3.3557,0,0,0-2.41.8766,2.9771,2.9771,0,0,0-.917,2.256,2.9151,2.9151,0,0,0,.8818,2.1859,3.231,3.231,0,0,0,2.3278.8416,3.3565,3.3565,0,0,0,2.7623-1.204l2.093,1.4261A5.71,5.71,0,0,1,99.25,26.9082a5.8242,5.8242,0,0,1-4.3735-1.6364,5.4163,5.4163,0,0,1,1.34-8.65,6.7735,6.7735,0,0,1,5.9018-.1169A5.3164,5.3164,0,0,1,104.164,18.27Zm8.888,1.8a2.6164,2.6164,0,0,0-1.035-1.4027,3.0524,3.0524,0,0,0-1.799-.5377,3.2248,3.2248,0,0,0-1.951.6079,3.415,3.415,0,0,0-.976,1.3325Zm2.633,2.0573h-8.512a2.8256,2.8256,0,0,0,.976,1.7884,3.0624,3.0624,0,0,0,2.034.6663,3.4641,3.4641,0,0,0,2.54-1.04l2.222,1.04a5.2318,5.2318,0,0,1-1.999,1.7417,6.2941,6.2941,0,0,1-2.763.5611,5.4449,5.4449,0,0,1-4.032-1.5547,5.3059,5.3059,0,0,1-1.564-3.8924,5.4175,5.4175,0,0,1,1.564-3.986,5.2168,5.2168,0,0,1,3.903-1.59,5.4748,5.4748,0,0,1,4.056,1.578,5.6552,5.6552,0,0,1,1.563,4.173Zm-42.03-4.1145H71.68V22.595a10.3153,10.3153,0,0,0,.0588,1.6014.788.788,0,0,0,.3292.4675.9659.9659,0,0,0,.5878.1754,3.47,3.47,0,0,0,1.0111-.21l.2,1.8819a5.7377,5.7377,0,0,1-2.081.3624,3.4366,3.4366,0,0,1-1.3285-.2455,1.8261,1.8261,0,0,1-.8347-.62,2.6368,2.6368,0,0,1-.3762-1.052,12.5832,12.5832,0,0,1-.0823-1.9989V18.0245H67.8357V16.0958h1.3285V13.8632l2.5277-1.4845v3.7171H73.667v1.9171Zm-7.0423,0H64.6379V22.595a10.3153,10.3153,0,0,0,.0588,1.6014.7876.7876,0,0,0,.3292.4675.9657.9657,0,0,0,.5878.1754,3.47,3.47,0,0,0,1.0111-.21l.2,1.8819a5.7377,5.7377,0,0,1-2.081.3624,3.5357,3.5357,0,0,1-1.34-.2455,1.8258,1.8258,0,0,1-.8348-.62,2.6368,2.6368,0,0,1-.3762-1.052,12.5848,12.5848,0,0,1-.094-1.9989V18.0245H60.7817V16.0958H62.11V13.8632l2.5277-1.4845v3.7171H66.613Z"/>
  <path class="cls-2" d="M1.7165,20A18.3994,18.3994,0,1,1,20.1156,38.2934,18.3664,18.3664,0,0,1,1.7165,20ZM0,20A20.1159,20.1159,0,1,0,20.1156,0,20.0875,20.0875,0,0,0,0,20Z"/>
  <path class="cls-3" d="M23.3956,23.5067l-.8935-1.543a3.1182,3.1182,0,0,1,2.5394-4.1846h.0118c2.0692-.2221,2.7628.69,3.68,2.2209.7054,1.2156,2.2691,3.7756,2.2691,4.9328a3.11,3.11,0,0,1-.2352,1.1806l-.0353.0584-.0352.07a3.1093,3.1093,0,0,1-1.54,1.5312,3.1785,3.1785,0,0,1-4.1972-1.5312l-.0352-.07-1.3873-2.4079.0235.0117ZM18.2815,7.4927a4.893,4.893,0,0,0-2.3866,2.3729l-3.527,6.125c-1.211,2.1041-4.4205,6.6745-4.4205,8.9539a4.8261,4.8261,0,0,0,1.27,3.2729H9.2053a4.899,4.899,0,0,0,3.6328,1.6248c3.5976,0,5.8549-4.7808,7.8535-7.5395l2.704,4.6757A4.8725,4.8725,0,0,0,29.8618,29.34a4.7657,4.7657,0,0,0,1.34-.9118v.0234a4.8508,4.8508,0,0,0,1.5049-3.5067c0-1.66-1.6342-4.36-2.5277-5.8563a5.1752,5.1752,0,0,0-1.8105-2.1975l-.0118-.0117-.0117-.0117-.0353-.0234h-.0118l-.0235-.0233a5.0427,5.0427,0,0,0-2.4924-.7832h-.0353a4.9118,4.9118,0,0,0-2.5747.5844,12.3405,12.3405,0,0,0-3.7974,4.2549c-1.3049,1.9287-3.8561,6.8848-6.0781,7.2121h-.4938a3.1343,3.1343,0,0,1-3.139-3.1443c0-1.6716,3.2683-6.4992,4.1853-8.1006l3.574-6.1835.0353-.07A3.1583,3.1583,0,0,1,21.6556,9.059a3.1081,3.1081,0,0,1,1.54,1.5313l.0353.07,2.61,4.5237a5.72,5.72,0,0,1,2.3278.5961L24.7476,9.8539a4.8719,4.8719,0,0,0-4.4322-2.8171A5.13,5.13,0,0,0,18.2815,7.4927Z"/>
</svg>
