<svg width="116" height="40" viewBox="0 0 116 40" fill="none" xmlns="http://www.w3.org/2000/svg">
<path fill-rule="evenodd" clip-rule="evenodd" d="M54.151 16.8089L52.2817 21.5313H56.0085L54.151 16.8089ZM52.8225 13.1619H55.4677L60.7817 26.8849H58.0542L56.9726 24.0561H51.3176L50.2125 26.8849H47.485L52.8225 13.1619ZM75.5481 16.1309H77.8289V17.4635C78.0758 16.9375 78.3932 16.5517 78.8047 16.2712C79.2161 16.0023 79.6511 15.8621 80.1332 15.8621C80.4741 15.8621 80.8386 15.9556 81.203 16.1309L80.3801 18.4103C80.0744 18.2583 79.8157 18.1765 79.6159 18.1765C79.2161 18.1765 78.8634 18.422 78.5813 18.9246C78.2991 19.4272 78.158 20.4091 78.158 21.8702L78.1698 22.3846V26.6277H75.5246V16.1309H75.5481ZM86.5993 18.2934C85.7763 18.2934 85.0945 18.5739 84.5537 19.1584C84.0129 19.7311 83.7424 20.4676 83.7424 21.3676C83.7424 22.2794 84.0129 23.0158 84.5772 23.6119C85.1297 24.1964 85.8116 24.4886 86.6228 24.4886C87.4575 24.4886 88.1512 24.1964 88.692 23.6236C89.2446 23.0508 89.515 22.2911 89.515 21.3559C89.515 20.4442 89.2446 19.7078 88.692 19.135C88.1394 18.5739 87.4458 18.2934 86.5993 18.2934ZM89.3974 16.1309H92.0426V26.6394H89.3974V25.5172C88.8801 26.0082 88.3628 26.3588 87.8338 26.5693C87.3165 26.7797 86.7404 26.8965 86.1408 26.8965C84.7653 26.8965 83.5896 26.3705 82.5903 25.3185C81.591 24.2665 81.0972 22.969 81.0972 21.4027C81.0972 19.7896 81.5792 18.457 82.5433 17.4284C83.5073 16.3998 84.683 15.8738 86.0585 15.8738C86.6934 15.8738 87.293 15.9906 87.8455 16.2244C88.3981 16.4582 88.9154 16.8206 89.3974 17.2881V16.1309ZM104.164 18.27L101.953 19.474C101.542 19.0415 101.131 18.7493 100.731 18.5739C100.331 18.4103 99.849 18.3285 99.3082 18.3285C98.3207 18.3285 97.5095 18.6207 96.8981 19.2051C96.2868 19.7896 95.9811 20.5377 95.9811 21.4611C95.9811 22.3495 96.275 23.0742 96.8629 23.647C97.4507 24.2081 98.2266 24.4886 99.1907 24.4886C100.378 24.4886 101.295 24.0912 101.953 23.2846L104.046 24.7107C102.918 26.1718 101.319 26.9082 99.2495 26.9082C97.3919 26.9082 95.9341 26.3588 94.876 25.2718C93.8296 24.1847 93.3006 22.8989 93.3006 21.4378C93.3006 20.4208 93.5592 19.4857 94.0648 18.6324C94.5821 17.7791 95.2875 17.1011 96.2162 16.6219C97.1333 16.1309 98.1561 15.8854 99.2847 15.8854C100.331 15.8854 101.283 16.0958 102.118 16.505C102.953 16.9141 103.635 17.5102 104.164 18.27ZM113.052 20.0701C112.875 19.4974 112.534 19.0298 112.017 18.6674C111.5 18.3051 110.9 18.1297 110.218 18.1297C109.478 18.1297 108.831 18.3285 108.267 18.7376C107.914 18.983 107.597 19.4389 107.291 20.0701H113.052ZM115.685 22.1274H107.173C107.291 22.8755 107.62 23.4717 108.149 23.9158C108.678 24.36 109.36 24.5821 110.183 24.5821C111.171 24.5821 112.017 24.2431 112.723 23.5418L114.945 24.5821C114.392 25.3653 113.722 25.9497 112.946 26.3238C112.17 26.6978 111.253 26.8849 110.183 26.8849C108.537 26.8849 107.185 26.3705 106.151 25.3302C105.116 24.2899 104.587 22.9924 104.587 21.4378C104.587 19.8363 105.104 18.5038 106.151 17.4518C107.185 16.3881 108.49 15.8621 110.054 15.8621C111.711 15.8621 113.063 16.3881 114.11 17.4401C115.156 18.4921 115.673 19.8831 115.673 21.6131L115.685 22.1274ZM73.6553 18.0129H71.6801V22.595C71.6801 22.9573 71.6566 23.8574 71.7389 24.1964C71.786 24.3951 71.9035 24.547 72.0681 24.6639C72.2445 24.7925 72.4443 24.8393 72.6559 24.8393C72.9734 24.8393 73.3496 24.7341 73.667 24.6289L73.8669 26.5108C73.2085 26.768 72.4913 26.8732 71.7859 26.8732C71.3274 26.8732 70.8807 26.803 70.4574 26.6277C70.14 26.4991 69.8226 26.3004 69.6227 26.0082C69.4111 25.7043 69.3053 25.3068 69.2465 24.9562C69.1407 24.36 69.1642 23.5652 69.1642 22.9573V18.0245H67.8357V16.0958H69.1642V13.8632L71.6919 12.3787V16.0958H73.667V18.0129H73.6553ZM66.613 18.0129H64.6379V22.595C64.6379 22.9573 64.6144 23.8574 64.6967 24.1964C64.7437 24.3951 64.8613 24.547 65.0259 24.6639C65.2022 24.7925 65.4021 24.8393 65.6137 24.8393C65.9311 24.8393 66.3074 24.7341 66.6248 24.6289L66.8247 26.5108C66.1663 26.768 65.4491 26.8732 64.7437 26.8732C64.2852 26.8732 63.8385 26.803 63.4035 26.6277C63.086 26.4991 62.7686 26.3004 62.5687 26.0082C62.3571 25.7043 62.2513 25.3068 62.1925 24.9562C62.0867 24.36 62.0985 23.5652 62.0985 22.9573V18.0245H60.7817V16.0958H62.1102V13.8632L64.6379 12.3787V16.0958H66.613V18.0129Z" fill="url(#paint0_linear_1496_3201)"/>
<path d="M1.71647 20C1.71647 9.91233 9.96963 1.7066 20.1156 1.7066C30.2616 1.7066 38.5147 9.91233 38.5147 20C38.5147 30.0877 30.2616 38.2934 20.1156 38.2934C9.96963 38.2934 1.71647 30.0877 1.71647 20ZM0 20C0 31.0228 9.0291 40 20.1156 40C31.2021 40 40.2312 31.0228 40.2312 20C40.2312 8.97721 31.2021 0 20.1156 0C9.0291 0 0 8.97721 0 20Z" fill="url(#paint1_linear_1496_3201)"/>
<path d="M23.3956 23.5067L22.5021 21.9637C21.6909 20.0818 23.1252 18.0596 25.0415 17.7791H25.0533C27.1225 17.557 27.8161 18.4687 28.7331 20C29.4385 21.2156 31.0022 23.7756 31.0022 24.9328C31.0022 25.3419 30.9199 25.7393 30.767 26.1134L30.7317 26.1718L30.6965 26.242C30.379 26.9199 29.8382 27.4693 29.1564 27.7732C27.5692 28.4979 25.6882 27.8083 24.9592 26.242L24.924 26.1718L23.5367 23.7639L23.5602 23.7756L23.3956 23.5067ZM18.2815 7.49268C17.2351 7.97193 16.3887 8.81354 15.8949 9.86556L12.3679 15.9906C11.1569 18.0947 7.94739 22.6651 7.94739 24.9445C7.94739 26.1601 8.39414 27.3173 9.2171 28.2174H9.20535C10.1341 29.246 11.4509 29.8422 12.8381 29.8422C16.4357 29.8422 18.693 25.0614 20.6916 22.3027L23.3956 26.9784C24.5242 29.4097 27.4281 30.4734 29.8618 29.3396C30.3555 29.1175 30.814 28.8019 31.202 28.4278V28.4512C32.1661 27.5277 32.7069 26.2653 32.7069 24.9445C32.7069 23.2846 31.0727 20.5844 30.1792 19.0882C29.6149 18.1064 29.3915 17.592 28.3687 16.8907L28.3569 16.879L28.3452 16.8673L28.3099 16.8439H28.2981L28.2746 16.8206C27.6162 16.3998 26.5581 16.014 25.7822 16.0374H25.7469C24.7946 16.0257 24.007 16.166 23.1722 16.6218C22.0906 17.1595 20.5505 18.9246 19.3748 20.8767C18.0699 22.8054 15.5187 27.7615 13.2967 28.0888H12.8029C11.0629 28.0888 9.6521 26.6744 9.66386 24.9445C9.66386 23.2729 12.9322 18.4453 13.8492 16.8439L17.4232 10.6604L17.4585 10.5903C18.1874 9.01226 20.0685 8.3226 21.6556 9.05901C22.3375 9.37462 22.8901 9.91232 23.1957 10.5903L23.231 10.6604L25.841 15.1841C26.6522 15.2192 27.4516 15.4179 28.1688 15.7802L24.7476 9.85387C23.9247 8.07713 22.1612 7.0368 20.3154 7.0368C19.6452 7.04849 18.9516 7.18876 18.2815 7.49268Z" fill="url(#paint2_linear_1496_3201)"/>
<defs>
<linearGradient id="paint0_linear_1496_3201" x1="47.485" y1="26.9082" x2="113.752" y2="6.19317" gradientUnits="userSpaceOnUse">
<stop offset="0.0001" stop-color="#C766FF"/>
<stop offset="1" stop-color="#FF7F89"/>
</linearGradient>
<linearGradient id="paint1_linear_1496_3201" x1="-1.49873e-07" y1="40" x2="42.7188" y2="37.1386" gradientUnits="userSpaceOnUse">
<stop offset="0.0001" stop-color="#C766FF"/>
<stop offset="1" stop-color="#FF7F89"/>
</linearGradient>
<linearGradient id="paint2_linear_1496_3201" x1="7.94739" y1="29.8422" x2="34.2184" y2="27.9427" gradientUnits="userSpaceOnUse">
<stop offset="0.0001" stop-color="#C766FF"/>
<stop offset="1" stop-color="#FF7F89"/>
</linearGradient>
</defs>
</svg>
