<?xml version="1.0" encoding="UTF-8"?><svg id="a" xmlns="http://www.w3.org/2000/svg" xmlns:xlink="http://www.w3.org/1999/xlink" viewBox="0 0 338.6 338.6"><defs><style>.h{fill:url(#e);}.i{fill:url(#g);}.j{fill:url(#c);}.k{fill:none;}.l{clip-path:url(#b);}.m{clip-path:url(#f);}.n{clip-path:url(#d);}</style><clipPath id="b"><path class="k" d="M129.8,174.4l-.9-1.5c-.8-1.9,.6-3.9,2.5-4.2h0c2.1-.2,2.7,.7,3.7,2.2,.7,1.2,2.2,3.8,2.2,4.9,0,.4-.1,.8-.2,1.2v.2c-.3,.7-.9,1.2-1.5,1.5-1.6,.7-3.4,0-4.2-1.5v-.1l-1.4-2.4h0l-.2-.3Zm-5-15.9c-1,.5-1.9,1.3-2.4,2.4l-3.5,6c-1.2,2.1-4.4,6.7-4.4,8.9,0,1.2,.4,2.4,1.3,3.3h0c.9,1,2.2,1.6,3.6,1.6,3.6,0,5.8-4.8,7.8-7.5l2.7,4.7c1.1,2.4,4,3.5,6.4,2.4,.5-.2,.9-.5,1.3-.9h0c1-.9,1.5-2.2,1.5-3.5,0-1.7-1.6-4.4-2.5-5.8-.6-1-.8-1.5-1.8-2.2h0c-.6-.4-1.7-.8-2.5-.8h0c-.9,0-1.7,.1-2.6,.6h0c-1.1,.5-2.6,2.3-3.8,4.3-1.3,1.9-3.8,6.9-6,7.2h-.5c-1.7,0-3.1-1.4-3.1-3.1h0c0-1.7,3.2-6.5,4.2-8.1l3.5-6.2v-.1c.7-1.6,2.6-2.3,4.2-1.5,.7,.3,1.2,.9,1.5,1.5v.1l2.6,4.5c.8,0,1.6,.2,2.3,.6l-3.4-5.9c-.8-1.8-2.6-2.8-4.4-2.8-.7-.2-1.4-.1-2,.3"/></clipPath><linearGradient id="c" x1="-249.87" y1="385.98" x2="-249.75" y2="385.98" gradientTransform="translate(-18387.27 -86262.73) rotate(-45) scale(192.26)" gradientUnits="userSpaceOnUse"><stop offset="0" stop-color="#7754ab"/><stop offset="1" stop-color="#fe6c77"/></linearGradient><clipPath id="d"><path class="k" d="M108.3,170.9c0-10,8.2-18.2,18.3-18.2s18.2,8.2,18.2,18.2-8.2,18.3-18.3,18.3-18.2-8.2-18.2-18.3m-1.7,0c0,11,9,20,20,20s20-9,20-20-9-20-20-20c-11,.1-20,9-20,20"/></clipPath><linearGradient id="e" x1="-249.6" y1="385.13" x2="-249.49" y2="385.13" gradientTransform="translate(-32314.55 -151685.53) rotate(-45) scale(338.37)" gradientUnits="userSpaceOnUse"><stop offset="0" stop-color="#7754ab"/><stop offset="1" stop-color="#fe6c77"/></linearGradient><clipPath id="f"><path class="k" d="M160.4,167.8l-1.9,4.7h3.7l-1.8-4.7Zm-1.4-3.7h2.6l5.3,13.7h-2.7l-1.1-2.8h-5.6l-1.1,2.8h-2.7l5.3-13.7Zm22.6,3h2.3v1.3c.2-.5,.6-.9,1-1.2,.4-.3,.8-.4,1.3-.4,.3,0,.7,.1,1.1,.3l-.9,2.3c-.3-.2-.6-.2-.8-.2-.4,0-.7,.2-1,.7s-.4,1.5-.4,2.9v4.7h-2.6v-10.4Zm11,2.1c-.8,0-1.5,.3-2,.9s-.8,1.3-.8,2.2,.3,1.6,.8,2.2,1.2,.9,2,.9,1.5-.3,2.1-.9c.5-.6,.8-1.3,.8-2.3,0-.9-.3-1.6-.8-2.2-.6-.5-1.3-.8-2.1-.8m2.7-2.1h2.6v10.5h-2.6v-1.1c-.5,.5-1,.8-1.5,1.1-.5,.2-1.1,.3-1.7,.3-1.4,0-2.5-.5-3.5-1.6-1-1-1.5-2.4-1.5-3.9,0-1.6,.5-2.9,1.4-4,1-1,2.1-1.5,3.5-1.5,.6,0,1.2,.1,1.8,.4,.6,.2,1.1,.6,1.5,1.1v-1.3Zm14.7,2.1l-2.2,1.2c-.4-.4-.8-.7-1.2-.9-.4-.2-.9-.2-1.4-.2-1,0-1.8,.3-2.4,.9s-.9,1.3-.9,2.2,.3,1.6,.9,2.2,1.4,.8,2.3,.8c1.2,0,2.1-.4,2.7-1.2l2.1,1.4c-1.1,1.5-2.7,2.2-4.8,2.2-1.8,0-3.3-.5-4.3-1.6s-1.6-2.4-1.6-3.8c0-1,.3-1.9,.8-2.8s1.2-1.5,2.1-2,1.9-.7,3.1-.7c1,0,2,.2,2.8,.6s1.5,.9,2,1.7m8.8,1.8c-.2-.6-.5-1-1-1.4s-1.1-.5-1.8-.5-1.4,.2-1.9,.6c-.3,.2-.7,.7-1,1.3h5.7Zm2.6,2.1h-8.4c.1,.7,.4,1.3,1,1.8,.5,.4,1.2,.7,2,.7,1,0,1.8-.3,2.5-1l2.2,1c-.5,.8-1.2,1.4-2,1.7-.8,.4-1.7,.6-2.7,.6-1.6,0-3-.5-4-1.6-1-1-1.5-2.3-1.5-3.9s.5-2.9,1.5-4,2.3-1.6,3.9-1.6c1.7,0,3,.5,4,1.6s1.5,2.4,1.5,4.2v.5Zm-41.7-4.1h-2v4.6c0,.4,0,1.3,.1,1.6,.1,.2,.2,.3,.3,.5,.2,.1,.4,.2,.6,.2,.3,0,.7-.1,1-.2l.2,1.9c-.7,.3-1.4,.4-2.1,.4-.5,0-.9-.1-1.3-.2-.3-.1-.6-.3-.8-.6-.2-.3-.3-.7-.4-1.1-.1-.6-.1-1.4-.1-2v-4.9h-1.3v-1.9h1.3v-2.2l2.5-1.5v3.7h2v1.7Zm-7,0h-2v4.6c0,.4,0,1.3,.1,1.6,.1,.2,.2,.3,.3,.5,.2,.1,.4,.2,.6,.2,.3,0,.7-.1,1-.2l.2,1.9c-.7,.3-1.4,.4-2.1,.4-.5,0-.9-.1-1.3-.2-.3-.1-.6-.3-.8-.6-.2-.3-.3-.7-.4-1.1-.1-.6-.1-1.4-.1-2v-4.9h-1.3v-1.9h1.3v-2.2l2.5-1.5v3.7h2v1.7Z"/></clipPath><linearGradient id="g" x1="-249.72" y1="386.23" x2="-249.49" y2="386.23" gradientTransform="translate(-18387.27 -86262.73) rotate(-45) scale(192.26)" gradientUnits="userSpaceOnUse"><stop offset="0" stop-color="#7754ab"/><stop offset="1" stop-color="#fe6c77"/></linearGradient></defs><g class="l"><polygon class="j" points="102.8 169.7 126.8 145.7 150.8 169.7 126.8 193.7 102.8 169.7"/></g><g class="n"><polygon class="h" points="86.6 170.9 126.6 131 166.5 170.9 126.6 210.9 86.6 170.9"/></g><g class="m"><polygon class="i" points="145.9 173.7 189.7 129.9 233.6 173.7 189.7 217.6 145.9 173.7"/></g></svg>