<svg width="20" height="20" viewBox="0 0 20 20" fill="none" xmlns="http://www.w3.org/2000/svg">
<path d="M8.92984 1.18014C9.67848 0.0232863 11.3711 0.0232864 12.1197 1.18014C12.6083 1.93513 13.5593 2.24412 14.3984 1.92051C15.684 1.42463 17.0534 2.41953 16.979 3.79549C16.9305 4.69346 17.5183 5.50243 18.3873 5.73379C19.7189 6.0883 20.2419 7.69808 19.373 8.76757C18.806 9.46554 18.806 10.4655 19.373 11.1634C20.2419 12.2329 19.7189 13.8427 18.3873 14.1972C17.5183 14.4286 16.9305 15.2376 16.979 16.1355C17.0534 17.5115 15.684 18.5064 14.3984 18.0105C13.5593 17.6869 12.6083 17.9959 12.1197 18.7509C11.3711 19.9077 9.67848 19.9077 8.92984 18.7509C8.44126 17.9959 7.49026 17.6869 6.65122 18.0105C5.36558 18.5064 3.99622 17.5115 4.07053 16.1355C4.11904 15.2376 3.53129 14.4286 2.66227 14.1972C1.3307 13.8427 0.807649 12.2329 1.67654 11.1634C2.24359 10.4655 2.24359 9.46554 1.67654 8.76757C0.807649 7.69808 1.3307 6.0883 2.66227 5.73379C3.53129 5.50243 4.11904 4.69346 4.07053 3.79549C3.99622 2.41953 5.36558 1.42463 6.65122 1.92051C7.49026 2.24412 8.44126 1.93512 8.92984 1.18014Z" fill="#5392FF"/>
<path fill-rule="evenodd" clip-rule="evenodd" d="M15.8786 7.02624L9.55224 13.7247L5.85205 10.0245L7.25587 8.62069L9.51156 10.8764L14.4352 5.66309L15.8786 7.02624Z" fill="white"/>
</svg>
