<?xml version="1.0" encoding="utf-8"?>
<!-- Generator: Adobe Illustrator 26.2.1, SVG Export Plug-In . SVG Version: 6.00 Build 0)  -->
<svg version="1.1" id="Layer_1" xmlns="http://www.w3.org/2000/svg" xmlns:xlink="http://www.w3.org/1999/xlink" x="0px" y="0px"
	 viewBox="0 0 245.4 186.5" style="enable-background:new 0 0 245.4 186.5;" xml:space="preserve">
<style type="text/css">
	.st0{fill:#FFFFFF;stroke:#72849D;stroke-width:0.8217;stroke-miterlimit:2.0543;}
	
		.st1{fill:none;stroke:#72849D;stroke-width:1.2326;stroke-linecap:round;stroke-linejoin:round;stroke-miterlimit:10;stroke-dasharray:0,2.4652;}
	.st2{fill:#FFFFFF;}
	.st3{fill:#B184FF;}
	.st4{fill:none;stroke:#72849D;stroke-width:0.8217;stroke-miterlimit:2.0543;}
	.st5{fill:#72849D;}
	.st6{fill:#8836FF;}
	
		.st7{opacity:0.8;fill:#F5F7FC;stroke:#8836FF;stroke-width:0.8217;stroke-miterlimit:2.0543;stroke-dasharray:4.1087,2.0543;enable-background:new    ;}
	.st8{fill:none;stroke:#FFFFFF;stroke-width:1.2326;stroke-miterlimit:2.0543;}
</style>
<ellipse class="st0" cx="149.4" cy="89.8" rx="93.2" ry="89.8"/>
<path class="st1" d="M21.4,166.2"/>
<polygon class="st2" points="208.1,121.1 208.1,56.4 149.8,24 91.6,56.4 91.6,121.1 149.8,153.4 "/>
<polygon class="st3" points="208.1,121.1 208.1,56.4 149.8,89.1 149.8,153.4 "/>
<polygon class="st4" points="208.1,121.1 208.1,56.4 149.8,24 91.6,56.4 91.6,121.1 149.8,153.4 "/>
<polyline class="st4" points="208.1,56.4 149.8,89.1 149.8,153.4 "/>
<line class="st4" x1="91.5" y1="56.4" x2="149.7" y2="89.1"/>
<path class="st5" d="M98.9,93.1l0.5,0.9c0.5,0.9,10,21.9,22.4,28.7c5.2,2.8,10.7,3.1,16,0.7c2.5-1,4.6-2.6,6.5-4.4l0.5-0.5l-0.5-0.9
	c-0.5-0.9-10-21.9-22.4-28.7c-5.2-2.9-10.7-3.1-16-0.7c-2.5,1-4.6,2.6-6.5,4.4L98.9,93.1z M101.6,94.7c2-1.9,10.5-8.7,20.2-3.3
	c9.8,5.5,18.1,21.6,20.2,25.6c-2,1.9-10.5,8.7-20.2,3.3C111.9,114.9,103.6,98.7,101.6,94.7L101.6,94.7z M111.7,100.3
	c0,6.2,4.5,13.6,10,16.7s10,0.6,10.1-5.6c0-6.2-4.5-13.6-10-16.7C116.3,91.6,111.7,94.2,111.7,100.3L111.7,100.3z M121.8,97.2
	c4.3,2.4,7.9,8.3,7.8,13.1c0,4.8-3.5,6.8-7.9,4.3c-4.3-2.4-7.9-8.3-7.8-13.1C114,96.8,117.5,94.8,121.8,97.2L121.8,97.2z
	 M121.8,102.6c1.8,1.2,2.8,2.9,2.9,5c0,1.9-1.4,2.6-3,1.6c-1.8-1-2.8-2.9-2.9-5C118.7,102.4,120,101.7,121.8,102.6L121.8,102.6z"/>
<path class="st6" d="M159,73.4c-2.3,1.3-5.4,1.9-8.5,1.9c-2.9-0.1-5.7-0.7-7.9-1.9c-3.2-1.7-4.2-4.3-2.7-6.8l3.4-6.9
	c-7.9,0.7-19.7,3.1-25.7-0.2c-2.4-1.3-3.5-3.1-3.4-4.9c0.1-1.5,1.2-3,3.4-4.2c3.8-2.1,16.8-3.4,22.3-4.3l16.1-2.4
	c4.2-0.8,8.9-0.2,12.1,1.5c3.2,1.7,4.2,4.3,2.7,6.8l-4.2,8.7c-0.8-1.2-1.7-2.1-2.9-2.8l3.2-6.6l0.1-0.1c0.9-1.5,0.2-3.3-1.8-4.3
	s-5.1-1.5-7.8-0.9h-0.2l-16.3,2.4c-4.2,0.7-17.7,2.1-20.5,3.7c-2.8,1.5-2.9,4.2,0,5.8l0.8,0.5c4.3,1.7,16.8-0.5,22.2-1.2
	c5.3-0.8,10.7-0.9,13.4-0.5c1.9,0.3,3.6,0.9,5.3,1.9l0.2,0.1c1.2,0.7,2.1,1.7,2.6,3c0.7,1.6,0.2,2.3-0.5,3.8
	C163.6,67.8,161.9,71.9,159,73.4z M153.7,72.7L153.7,72.7c0.8-0.2,1.6-0.6,2.3-0.9c1.9-1,3.6-4.9,4.5-6.8c1-2.1,1.4-3.5-1.4-5
	c-0.3-0.1-0.7-0.3-1-0.5c-3.6-1.5-9.5-0.9-11.2,1.5l-1,2.3l-0.1,0.3l-1.7,3.5l-0.1,0.1c-1,1.5-0.2,3.3,1.8,4.3
	c2,1.2,5.2,1.5,7.8,0.9L153.7,72.7"/>
<path class="st7" d="M38.1,181.6l81.8-74.7c0,0,0-0.1,0-0.2h-0.1L18.5,142.6"/>
<ellipse class="st0" cx="22.8" cy="164.6" rx="22.8" ry="21.9"/>
<ellipse class="st6" cx="22.5" cy="164.6" rx="16" ry="15.4"/>
<polyline class="st8" points="13.2,163.3 20.4,170.3 33.7,157.5 "/>
</svg>
