<svg id="Layer_1" data-name="Layer 1" xmlns="http://www.w3.org/2000/svg" xmlns:xlink="http://www.w3.org/1999/xlink" width="250px" height="250px"  viewBox="0 0 1216.94 1123.48"><defs><style>.cls-1,.cls-10,.cls-11,.cls-14,.cls-4,.cls-8{stroke:#72849d;}.cls-1,.cls-11,.cls-4{stroke-linecap:round;stroke-linejoin:round;stroke-dasharray:0 12;}.cls-1,.cls-10,.cls-14,.cls-17,.cls-4,.cls-8{stroke-width:4px;}.cls-1{fill:url(#radial-gradient);}.cls-17,.cls-2{fill:#f5f7fc;}.cls-2{fill-rule:evenodd;}.cls-3{mask:url(#mask);}.cls-11,.cls-14,.cls-4,.cls-9{fill:none;}.cls-5{fill:#407abd;}.cls-6{fill:#2864a0;}.cls-7{fill:#6e96c8;}.cls-15,.cls-8{fill:#72849d;}.cls-10,.cls-14,.cls-17,.cls-8,.cls-9{stroke-miterlimit:10;}.cls-9{stroke:#fff;}.cls-11,.cls-9{stroke-width:6px;}.cls-10,.cls-12{fill:#fff;}.cls-13{fill:#d6e4fd;}.cls-16{fill:#3769a3;}.cls-17{stroke:#407abd;stroke-dasharray:20 10;opacity:0.8;}</style><radialGradient id="radial-gradient" cx="574.68" cy="569.67" r="485.05" gradientUnits="userSpaceOnUse"><stop offset="0.58" stop-color="#fff"/><stop offset="1"/></radialGradient><mask id="mask" x="66.63" y="6.73" width="995.09" height="1112.84" maskUnits="userSpaceOnUse"><circle class="cls-1" cx="574.68" cy="569.67" r="485.05"/></mask></defs><path class="cls-2" d="M160.75,376.47V747a126.84,126.84,0,0,0,63.41,109.84l320.9,185.27a126.83,126.83,0,0,0,126.83,0L992.78,856.85A126.85,126.85,0,0,0,1056.2,747V376.47a126.85,126.85,0,0,0-63.42-109.84L671.89,81.37a126.81,126.81,0,0,0-126.83,0L224.16,266.63A126.84,126.84,0,0,0,160.75,376.47Z"/><g class="cls-3"><line class="cls-4" x1="115.6" y1="819.61" x2="515.39" y2="584.68"/><line class="cls-4" x1="556.88" y1="566.69" x2="1038.29" y2="278.37"/><line class="cls-4" x1="558.95" y1="552.16" x2="557.5" y2="50.11"/><line class="cls-4" x1="557.5" y1="1100.16" x2="557.5" y2="565.57"/><line class="cls-4" x1="586.72" y1="1117.57" x2="1042.57" y2="303.52"/><line class="cls-4" x1="1036.47" y1="799.77" x2="592.56" y2="8.73"/><line class="cls-4" x1="68.63" y1="792.51" x2="501.72" y2="46.76"/><line class="cls-4" x1="120.21" y1="885.46" x2="1000.62" y2="885.46"/><line class="cls-4" x1="77.09" y1="281.26" x2="1000.62" y2="281.26"/><polygon class="cls-5" points="233.5 762.18 233.5 746.75 219.59 739.04 205.68 746.75 205.68 762.18 219.59 769.9 233.5 762.18"/><polygon class="cls-6" points="233.5 762.18 233.5 746.75 219.59 754.54 219.59 769.9 233.5 762.18"/><polygon class="cls-7" points="233.5 746.75 219.59 739.04 205.68 746.75 219.59 754.54 233.5 746.75"/><polygon class="cls-5" points="693.54 168.19 693.54 152.77 679.63 145.05 665.72 152.77 665.72 168.19 679.63 175.91 693.54 168.19"/><polygon class="cls-6" points="693.54 168.19 693.54 152.77 679.63 160.55 679.63 175.91 693.54 168.19"/><polygon class="cls-7" points="693.54 152.77 679.63 145.05 665.72 152.77 679.63 160.55 693.54 152.77"/><polygon class="cls-5" points="657.23 112.73 657.23 97.3 643.32 89.59 629.41 97.3 629.41 112.73 643.32 120.45 657.23 112.73"/><polygon class="cls-6" points="657.23 112.73 657.23 97.3 643.32 105.09 643.32 120.45 657.23 112.73"/><polygon class="cls-7" points="657.23 97.3 643.32 89.59 629.41 97.3 643.32 105.09 657.23 97.3"/><circle class="cls-8" cx="395.8" cy="886" r="21.99" transform="translate(-136.81 74.84) rotate(-9.22)"/><line class="cls-9" x1="385.14" y1="875.34" x2="406.46" y2="896.66"/><line class="cls-9" x1="385.14" y1="896.66" x2="406.46" y2="875.34"/><circle class="cls-10" cx="405.38" cy="214.9" r="21.99" transform="translate(-29.19 67.71) rotate(-9.22)"/><circle class="cls-10" cx="762.08" cy="806.56" r="21.99" transform="translate(-119.36 132.49) rotate(-9.22)"/></g><circle class="cls-10" cx="807.61" cy="411.7" r="184.25"/><line class="cls-11" x1="554.8" y1="568.76" x2="186.25" y2="350.53"/><line class="cls-11" x1="1006.67" y1="829.79" x2="569.33" y2="574.99"/><polygon class="cls-12" points="923.65 476.03 923.65 343.2 808.62 276.79 693.59 343.2 693.59 476.03 808.62 542.45 923.65 476.03"/><polygon class="cls-13" points="923.65 476.03 923.65 343.2 808.62 410.24 808.62 542.45 923.65 476.03"/><polygon class="cls-14" points="923.65 476.03 923.65 343.2 808.62 276.79 693.59 343.2 693.59 476.03 808.62 542.45 923.65 476.03"/><polyline class="cls-14" points="923.65 343.2 808.62 410.24 808.62 542.45"/><line class="cls-14" x1="693.21" y1="343.2" x2="808.24" y2="410.24"/><path class="cls-15" d="M707.84,418.75l.83,1.89c.8,1.83,19.88,44.91,44.27,59,10.16,5.86,21.1,6.37,31.61,1.43a43.8,43.8,0,0,0,12.85-9.19l.83-.93-.82-1.89c-.81-1.83-19.9-44.92-44.27-59-10.17-5.87-21.1-6.37-31.62-1.44a43.43,43.43,0,0,0-12.84,9.2Zm5.34,3.08c4-3.8,20.62-17.9,39.94-6.75S789,459.49,792.9,467.86c-4,3.8-20.64,17.9-39.95,6.75S717.1,430.2,713.18,421.83Zm20,11.53c0,12.6,8.86,28,19.83,34.35s19.92,1.23,20-11.38-8.86-28-19.83-34.35S733.17,420.75,733.14,433.36Zm20-6.35c8.55,4.94,15.5,17,15.47,26.79s-7,13.82-15.57,8.88-15.51-17-15.48-26.8S744.53,422.07,753.09,427Zm0,11A13,13,0,0,1,759,448.26c0,3.75-2.66,5.27-5.93,3.38a13,13,0,0,1-5.9-10.21C747.13,437.67,749.79,436.16,753.06,438.05Z"/><path class="cls-16" d="M826.86,378.09c-4.55,2.64-10.68,3.88-16.66,3.89-5.71-.17-11.29-1.41-15.58-3.89-6.3-3.64-8.33-8.93-5.36-13.8l6.63-14.14c-15.69,1.49-38.92,6.37-50.8-.49-4.72-2.72-7-6.36-6.62-10.08.27-3.14,2.54-6.29,6.66-8.68,7.54-4.38,33.2-7,44.18-8.76l31.79-5c8.27-1.66,17.55-.58,23.84,3s8.33,8.93,5.36,13.81l-8.17,17.85a18.29,18.29,0,0,0-5.74-5.63l6.34-13.63.15-.25c1.83-3.05.52-6.61-3.49-8.92s-10-3.14-15.41-2l-.43.09-32.21,5.12c-8.27,1.32-34.94,4.38-40.49,7.61s-5.79,8.67-.07,12l1.58.91c8.43,3.56,33.23-1.07,43.93-2.31,10.4-1.56,21.11-2,26.52-1a30.26,30.26,0,0,1,10.44,3.89l.42.23a11.4,11.4,0,0,1,5.19,6.3c1.44,3.46.45,4.87-1,7.84C835.78,366.6,832.26,375,826.86,378.09Zm-10.56-1.33v-.15a19.59,19.59,0,0,0,4.55-1.83c3.84-2.23,7.09-10.08,8.91-13.8,1.91-4.25,2.66-7.15-2.76-10.28-.59-.34-1.26-.69-2-1-7.15-3.14-18.7-1.9-22.1,3.23l-2.1,4.7-.28.83-3.39,7.27-.15.25c-2,3.14-.52,6.61,3.49,8.92s10.14,3.06,15.41,2l.43-.09"/><path class="cls-17" d="M587.74,600.44,749.53,447.06a.26.26,0,0,0-.23-.44L549,520.41"/><path class="cls-12" d="M153.9,318.49c-14.57,8.41-26.41,1.65-26.46-15.08s11.72-37.12,26.28-45.53,26.41-1.66,26.46,15.08-11.72,37.12-26.28,45.53M153.67,240C115.26,262.19,84.1,316.16,84.22,360.3c.08,27.26,12.07,44.5,30.27,48.48L114.4,377c0-14.53,9.75-32.09,22.18-40.23,5.2.1,11.1-1.55,17.35-5.16a67.71,67.71,0,0,0,17.34-14.87c12.43-6.21,22.29,0,22.33,14.53l.1,31.83c18.11-24.95,30-55.95,29.88-83.21-.13-44.14-31.48-62-69.91-39.83"/><path class="cls-15" d="M114.49,408.78c-18.2-4-30.19-21.22-30.27-48.48-.12-44.14,31-98.11,69.45-120.29s69.78-4.31,69.91,39.83c.08,27.26-11.77,58.26-29.88,83.21v2.16c-11.3,15.27-24.91,28.23-39.57,36.7s-28.29,11.23-39.64,9v-2.16m39.17-172.29C113.55,259.65,81,316,81.16,362.07s32.87,64.75,73,41.59,72.64-79.5,72.51-125.59-32.87-64.74-73-41.58"/><path class="cls-5" d="M171.27,316.69a67.71,67.71,0,0,1-17.34,14.87c-6.25,3.61-12.15,5.26-17.35,5.16-12.43,8.14-22.22,25.7-22.18,40.23l.09,31.83v2.16c11.35,2.2,25-.57,39.64-9s28.27-21.43,39.57-36.7v-2.16l-.1-31.83c0-14.53-9.9-20.74-22.33-14.53"/><path class="cls-5" d="M153.72,257.88c-14.56,8.41-26.32,28.79-26.28,45.53s11.89,23.49,26.46,15.08,26.33-28.8,26.28-45.53-11.89-23.49-26.46-15.08"/><path class="cls-12" d="M1065.51,856.9c-14.56,8.41-26.4,1.66-26.45-15.07s11.72-37.12,26.28-45.53,26.41-1.65,26.46,15.08-11.72,37.12-26.29,45.52m-.22-78.47c-38.42,22.18-69.58,76.15-69.45,120.3.08,27.25,12.06,44.49,30.26,48.48l-.09-31.84c0-14.53,9.75-32.09,22.18-40.23,5.2.1,11.1-1.55,17.36-5.16a68.06,68.06,0,0,0,17.34-14.88c12.43-6.21,22.28,0,22.32,14.54l.09,31.84c18.12-25,30-56,29.9-83.21-.13-44.15-31.49-62-69.91-39.84"/><path class="cls-15" d="M1026.1,947.21c-18.2-4-30.18-21.23-30.26-48.48-.13-44.15,31-98.12,69.45-120.3s69.78-4.31,69.91,39.84c.07,27.26-11.78,58.26-29.9,83.21v2.15c-11.3,15.27-24.9,28.23-39.56,36.69s-28.3,11.24-39.65,9v-2.16m39.18-172.3c-40.11,23.15-72.64,79.5-72.51,125.59s32.87,64.74,73,41.58,72.63-79.49,72.5-125.58-32.87-64.75-73-41.59"/><path class="cls-5" d="M1082.89,855.1A68.06,68.06,0,0,1,1065.55,870c-6.26,3.61-12.16,5.26-17.36,5.16-12.43,8.14-22.22,25.7-22.18,40.23l.09,31.84v2.16c11.35,2.19,25-.58,39.65-9s28.26-21.42,39.56-36.69v-2.15l-.09-31.84c0-14.53-9.89-20.75-22.32-14.54"/><path class="cls-5" d="M1065.34,796.3c-14.56,8.41-26.33,28.8-26.28,45.53s11.89,23.48,26.45,15.07,26.33-28.78,26.29-45.52-11.9-23.49-26.46-15.08"/><circle class="cls-10" cx="557.32" cy="565.39" r="45.03" transform="translate(-166.2 892.17) rotate(-69.72)"/><circle class="cls-5" cx="556.99" cy="565.35" r="31.57" transform="translate(-83.37 96.52) rotate(-9.22)"/><polyline class="cls-9" points="538.45 562.79 552.73 577.06 579.08 550.71"/></svg>