<?xml version="1.0" standalone="no"?>
<!DOCTYPE svg PUBLIC "-//W3C//DTD SVG 1.0//EN" "http://www.w3.org/TR/2001/REC-SVG-20010904/DTD/svg10.dtd">
<svg xmlns="http://www.w3.org/2000/svg" xmlns:xlink="http://www.w3.org/1999/xlink" id="body_1" width="328" height="246">

<g transform="matrix(0.21895862 0 0 0.21895862 30.774633 -0)">
    <path d="M160.8 376.5L160.8 747C 160.8 792.3 185 834.2 224.20001 856.8L224.20001 856.8L545.1 1042.1C 584.3 1064.7999 632.69995 1064.7999 671.89996 1042.1L671.89996 1042.1L992.7999 856.8C 1031.9999 834.1 1056.2 792.3 1056.2 747L1056.2 747L1056.2 376.5C 1056.2 331.2 1032 289.3 992.7999 266.7L992.7999 266.7L671.9 81.4C 632.7 58.7 584.30005 58.7 545.10004 81.4L545.10004 81.4L224.2 266.6C 184.9 289.3 160.8 331.2 160.8 376.5z" stroke="none" fill="#E7E0FC" fill-rule="nonzero" />
	<g>
        <path d="M115.6 819.6L515.4 584.7" stroke="#72849D" stroke-width="4" stroke-linecap="square" stroke-dasharray="0,12" fill="none" />
        <path d="M556.9 566.7L1038.3 278.4" stroke="#72849D" stroke-width="4" stroke-linecap="square" stroke-dasharray="0,12" fill="none" />
        <path d="M559 552.2L557.5 50.1" stroke="#72849D" stroke-width="4" stroke-linecap="square" stroke-dasharray="0,12" fill="none" />
        <path d="M557.5 1100.2L557.5 565.6" stroke="#72849D" stroke-width="4" stroke-linecap="square" stroke-dasharray="0,12" fill="none" />
        <path d="M586.7 1117.6L1042.6 303.5" stroke="#72849D" stroke-width="4" stroke-linecap="square" stroke-dasharray="0,12" fill="none" />
        <path d="M1036.5 799.8L592.6 8.7" stroke="#72849D" stroke-width="4" stroke-linecap="square" stroke-dasharray="0,12" fill="none" />
        <path d="M68.6 792.5L501.7 46.8" stroke="#72849D" stroke-width="4" stroke-linecap="square" stroke-dasharray="0,12" fill="none" />
        <path d="M120.2 885.5L1000.6 885.5" stroke="#72849D" stroke-width="4" stroke-linecap="square" stroke-dasharray="0,12" fill="none" />
        <path d="M77.1 281.3L1000.6 281.3" stroke="#72849D" stroke-width="4" stroke-linecap="square" stroke-dasharray="0,12" fill="none" />
        <path d="M233.5 762.2L233.5 746.8L219.6 739L205.7 746.8L205.7 762.2L219.6 769.9L233.5 762.2" stroke="none" fill="#8836FF" fill-rule="nonzero" />
        <path d="M233.5 762.2L233.5 746.8L219.6 754.5L219.6 769.9L233.5 762.2" stroke="none" fill="#6126BF" fill-rule="nonzero" />
        <path d="M233.5 746.8L219.6 739L205.7 746.8L219.6 754.5L233.5 746.8" stroke="none" fill="#DBCAFF" fill-rule="nonzero" />
        <path d="M693.5 168.2L693.5 152.8L679.6 145.1L665.7 152.8L665.7 168.2L679.6 175.9L693.5 168.2" stroke="none" fill="#8836FF" fill-rule="nonzero" />
        <path d="M693.5 168.2L693.5 152.8L679.6 160.6L679.6 175.9L693.5 168.2" stroke="none" fill="#6126BF" fill-rule="nonzero" />
        <path d="M693.5 152.8L679.6 145.1L665.7 152.8L679.6 160.6L693.5 152.8" stroke="none" fill="#DBCAFF" fill-rule="nonzero" />
        <path d="M657.2 112.7L657.2 97.3L643.3 89.6L629.4 97.3L629.4 112.7L643.3 120.4L657.2 112.7" stroke="none" fill="#8836FF" fill-rule="nonzero" />
        <path d="M657.2 112.7L657.2 97.3L643.3 105.1L643.3 120.4L657.2 112.7" stroke="none" fill="#6126BF" fill-rule="nonzero" />
        <path d="M657.2 97.3L643.3 89.6L629.4 97.3L643.3 105.1L657.2 97.3" stroke="none" fill="#DBCAFF" fill-rule="nonzero" />
        <path d="M417.8 886C 417.8 892.0752 415.6521 897.2606 411.35632 901.55634C 407.06058 905.8522 401.87512 908.00006 395.8 908C 389.72485 908.00006 384.53943 905.8522 380.24365 901.55634C 375.94788 897.2606 373.8 892.0752 373.8 886C 373.8 879.9249 375.94788 874.73944 380.24365 870.44366C 384.53943 866.1479 389.72485 864 395.8 864C 401.87512 864 407.06058 866.1479 411.35632 870.44366C 415.6521 874.73944 417.8 879.9249 417.8 886C 417.8 886.2561 417.79553 886.51196 417.7866 886.76776" stroke="#72849D" stroke-width="4" fill="#72849D" fill-rule="nonzero" />
        <path d="M385.1 875.3L406.5 896.7" stroke="#FFFFFF" stroke-width="6" fill="none" />
        <path d="M385.1 896.7L406.5 875.3" stroke="#FFFFFF" stroke-width="6" fill="none" />
        <path transform="matrix(0.9871 -0.1602 0.1602 0.9871 -29.1921 67.7293)"  d="M383.4 214.9C 383.4 202.74973 393.24973 192.9 405.4 192.9C 417.55026 192.9 427.4 202.74973 427.4 214.9C 427.4 227.05026 417.55026 236.9 405.4 236.9C 393.24973 236.9 383.4 227.05026 383.4 214.9" stroke="#72849D" stroke-width="4" fill="#FFFFFF" fill-rule="nonzero" />
        <path d="M784.1 806.5C 784.1 812.5752 781.95215 817.7606 777.6563 822.05634C 773.3606 826.3522 768.1751 828.50006 762.1 828.5C 756.0249 828.50006 750.8394 826.3522 746.54364 822.05634C 742.24786 817.7606 740.1 812.5752 740.1 806.5C 740.1 800.4249 742.24786 795.23944 746.54364 790.94366C 750.8394 786.6479 756.0249 784.5 762.1 784.5C 768.1751 784.5 773.3606 786.6479 777.6563 790.94366C 781.95215 795.23944 784.1 800.4249 784.1 806.5C 784.1 806.7561 784.0955 807.01196 784.08655 807.26776" stroke="#72849D" stroke-width="4" fill="#FFFFFF" fill-rule="nonzero" />
	</g>
    <path d="M991.8 411.7C 991.80005 462.56546 973.8164 505.9818 937.84906 541.9491C 901.88184 577.9164 858.46545 595.9 807.6 595.9C 756.73456 595.9 713.3182 577.9164 677.3509 541.9491C 641.3836 505.9818 623.39996 462.56546 623.39996 411.7C 623.39996 360.8346 641.3836 317.4182 677.3509 281.45093C 713.3182 245.48367 756.73456 227.50003 807.6 227.50002C 858.46545 227.50003 901.88184 245.48367 937.84906 281.45093C 973.8164 317.4182 991.80005 360.8346 991.8 411.7C 991.80005 413.8435 991.7626 415.98633 991.68774 418.1285" stroke="#72849D" stroke-width="4" fill="#FFFFFF" fill-rule="nonzero" />
    <path d="M554.8 568.8L186.2 350.5" stroke="#72849D" stroke-width="6" stroke-linecap="square" stroke-dasharray="0,12" fill="none" />
    <path d="M1006.7 829.8L569.3 575" stroke="#72849D" stroke-width="6" stroke-linecap="square" stroke-dasharray="0,12" fill="none" />
    <path d="M923.7 476L923.7 343.2L808.6 276.8L693.6 343.2L693.6 476L808.6 542.5L923.7 476" stroke="none" fill="#FFFFFF" fill-rule="nonzero" />
    <path d="M923.7 476L923.7 343.2L808.6 410.2L808.6 542.5L923.7 476" stroke="none" fill="#DBCAFF" fill-rule="nonzero" />
    <path d="M923.7 476L923.7 343.2L808.6 276.8L693.6 343.2L693.6 476L808.6 542.5L923.7 476" stroke="#72849D" stroke-width="4" fill="none" />
    <path d="M923.7 343.2L808.6 410.2L808.6 542.5" stroke="#72849D" stroke-width="4" fill="none" />
    <path d="M693.2 343.2L808.2 410.2" stroke="#72849D" stroke-width="4" fill="none" />
    <path d="M707.8 418.8L708.6 420.69998C 709.39996 422.49997 728.5 465.59998 752.89996 479.69998C 763.1 485.59998 773.99994 486.09998 784.49994 481.09998C 789.2999 478.8 793.69995 475.69998 797.2999 471.89996L797.2999 471.89996L798.0999 470.99997L797.2999 469.09998C 796.49994 467.3 777.3999 424.19998 752.99994 410.09998C 742.7999 404.19998 731.89996 403.69998 721.39996 408.69998C 716.6 410.99997 712.19995 414.09998 708.6 417.9L708.6 417.9L707.8 418.8zM713.2 421.8C 717.2 418 733.8 403.9 753.10004 415C 772.4001 426.1 789.00006 459.4 792.9 467.8C 788.9 471.59998 772.30005 485.69998 752.9 474.59998C 733.5 463.49997 717.1 430.2 713.2 421.8zM733.2 433.4C 733.2 446 742.10004 461.4 753 467.8C 763.89996 474.19998 772.9 469 773 456.4C 773.1 443.8 764.1 428.4 753.2 422C 742.30005 415.6 733.2 420.8 733.2 433.4zM753.2 427C 761.7 431.9 768.7 444 768.7 453.8C 768.7 463.59998 761.7 467.59998 753.10004 462.69998C 744.50006 457.8 737.60004 445.69998 737.60004 435.9C 737.60004 426.1 744.5 422.1 753.2 427zM753.2 438C 756.7 440.3 758.8 444.1 759 448.3C 759 452.09998 756.3 453.59998 753.1 451.69998C 749.6 449.4 747.39996 445.59998 747.19995 441.49997C 747.19995 437.69998 749.7999 436.19998 753.1 438.09998L753.1 438.09998L753.2 438z" stroke="none" fill="#72849D" fill-rule="nonzero" />
    <path d="M826.9 378.1C 822.4 380.7 816.2 382 810.2 382C 804.5 381.8 798.9 380.6 794.60004 378.1C 788.30005 374.5 786.30005 369.2 789.2 364.30002L789.2 364.30002L795.8 350.2C 780.1 351.7 756.89996 356.6 745 349.7C 740.3 347 738 343.30002 738.4 339.6C 738.7 336.5 740.9 333.30002 745.10004 330.9C 752.60004 326.5 778.30005 323.9 789.30005 322.1L789.30005 322.1L821.10004 317.1C 829.4 315.4 838.60004 316.5 844.9 320.1C 851.2 323.7 853.2 329 850.30005 333.9L850.30005 333.9L842.10004 351.8C 840.60004 349.5 838.7 347.59998 836.4 346.19998L836.4 346.19998L842.7 332.59998L842.9 332.39996C 844.7 329.39996 843.4 325.79996 839.4 323.49997C 835.4 321.19998 829.4 320.39996 824 321.49997L824 321.49997L823.6 321.59998L791.39996 326.69998C 783.1 327.99997 756.49994 331.09998 750.89996 334.3C 745.3 337.5 745.1 343 750.8 346.3L750.8 346.3L752.39996 347.19998C 760.8 350.8 785.6 346.09998 796.3 344.9C 806.7 343.3 817.39996 342.9 822.8 343.9C 826.5 344.5 830 345.9 833.2 347.8L833.2 347.8L833.60004 348C 836.00006 349.4 837.9 351.6 838.80005 354.3C 840.2001 357.8 839.30005 359.19998 837.80005 362.09998C 835.8 366.6 832.3 375 826.9 378.1zM816.3 376.8L816.3 376.69998C 817.89996 376.3 819.39996 375.69998 820.8 374.9C 824.6 372.69998 827.89996 364.8 829.7 361.1C 831.60004 356.9 832.4 354 826.9 350.80002C 826.30005 350.50003 825.60004 350.1 824.9 349.80002C 817.7 346.7 806.2 347.90002 802.80005 353.00003L802.80005 353.00003L800.7001 357.70004L800.4001 358.50003L797.00006 365.80002L797 366C 795 369.1 796.5 372.6 800.5 374.9C 804.5 377.19998 810.6 378 815.9 376.9L815.9 376.9L816.3 376.8" stroke="none" fill="#B646EF" fill-rule="nonzero" />
    <path d="M587.7 600.4L749.5 447.00003C 749.6 446.90002 749.6 446.70004 749.5 446.60004C 749.4 446.50003 749.4 446.50003 749.3 446.50003L749.3 446.50003L549 520.4" stroke="#8836FF" stroke-width="4" stroke-dasharray="20,10" fill="#F5F7FC" fill-rule="nonzero" fill-opacity="0.8" />
    <path d="M153.9 318.5C 139.29999 326.9 127.49999 320.1 127.399994 303.4C 127.299995 286.69998 139.09999 266.3 153.7 257.9C 168.3 249.5 180.09999 256.19998 180.2 273C 180.3 289.80002 168.5 310.1 153.9 318.5M153.7 240C 115.299995 262.2 84.1 316.2 84.299995 360.3C 84.399994 387.59998 96.399994 404.8 114.59999 408.8L114.59999 408.8L114.49999 377C 114.49999 362.5 124.299995 344.9 136.7 336.8C 141.9 336.9 147.8 335.3 154.09999 331.59998C 160.7 327.69998 166.49998 322.59998 171.4 316.69998C 183.79999 310.49997 193.7 316.69998 193.7 331.19998L193.7 331.19998L193.8 362.99997C 211.90001 337.99997 223.8 306.99997 223.7 279.8C 223.5 235.7 192.1 217.9 153.7 240" stroke="none" fill="#FFFFFF" fill-rule="nonzero" />
    <path d="M114.5 408.8C 96.3 404.8 84.3 387.59998 84.2 360.3C 84.1 316.19998 115.2 262.19998 153.6 239.99998C 192.00002 217.79999 223.40001 235.69998 223.5 279.8C 223.6 307.09998 211.7 338.09998 193.6 363L193.6 363L193.6 365.2C 182.3 380.5 168.70001 393.40002 154 401.90002C 139.29999 410.40002 125.7 413.10004 114.4 410.90002L114.4 410.90002L114.5 408.8zM153.7 236.5C 113.6 259.6 81 316 81.2 362.1C 81.399994 408.2 114.1 426.90002 154.2 403.7C 194.29999 380.5 226.79999 324.2 226.7 278.1C 226.6 232 193.8 213.3 153.7 236.5" stroke="none" fill="#72849D" fill-rule="nonzero" />
    <path d="M171.3 316.7C 166.40001 322.6 160.5 327.6 154 331.6C 147.8 335.2 141.9 336.9 136.6 336.80002C 124.200005 344.90002 114.40001 362.50003 114.40001 377.00003L114.40001 377.00003L114.50001 408.80002L114.50001 411.00003C 125.80001 413.20004 139.5 410.40002 154.1 402.00003C 168.70001 393.60004 182.40001 380.60004 193.70001 365.30002L193.70001 365.30002L193.70001 363.1L193.6 331.30002C 193.6 316.7 183.7 310.5 171.3 316.7" stroke="none" fill="#8836FF" fill-rule="nonzero" />
    <path d="M153.7 257.9C 139.09999 266.3 127.399994 286.69998 127.399994 303.4C 127.399994 320.1 139.29999 326.9 153.9 318.5C 168.5 310.1 180.2 289.7 180.2 273C 180.2 256.3 168.3 249.5 153.7 257.9" stroke="none" fill="#8836FF" fill-rule="nonzero" />
    <path d="M1065.5 856.9C 1050.9 865.30005 1039.1 858.60004 1039.1 841.80005C 1039.1 825.00006 1050.7999 804.7001 1065.4 796.30005C 1080.0001 787.9 1091.8 794.60004 1091.9 811.4C 1092 828.2 1080.1 848.5 1065.5 856.9M1065.3 778.4C 1026.9 800.60004 995.7001 854.60004 995.80005 898.7C 995.9 925.9 1007.9 943.2 1026.1001 947.2L1026.1001 947.2L1026.0001 915.4C 1026.0001 900.9 1035.8002 883.30005 1048.2001 875.2C 1053.4 875.3 1059.3 873.7 1065.6001 870C 1072.2001 866.1 1078.0001 861 1082.9001 855.1C 1095.3002 848.89996 1105.2002 855.1 1105.2002 869.6L1105.2002 869.6L1105.3002 901.39996C 1123.4001 876.39996 1135.3002 845.39996 1135.2002 818.19995C 1135.1 774.1 1103.7 756.3 1065.3 778.4" stroke="none" fill="#FFFFFF" fill-rule="nonzero" />
    <path d="M1026.1 947.2C 1007.89996 943.2 995.89996 926 995.8 898.7C 995.7 854.5 1026.8 800.60004 1065.2 778.4C 1103.5999 756.2 1135 774.10004 1135.1 818.2C 1135.2 845.5 1123.2999 876.5 1105.2 901.4L1105.2 901.4L1105.2 903.60004C 1093.8999 918.9 1080.2999 931.80005 1065.6 940.30005C 1050.9 948.80005 1037.2999 951.50006 1025.9 949.30005L1025.9 949.30005L1026.1 947.2zM1065.3 774.9C 1025.2001 798.10004 992.7001 854.4 992.80005 900.5C 992.9 946.6 1025.7001 965.2 1065.8 942.1C 1105.9 918.99994 1138.4 862.6 1138.3 816.5C 1138.2001 770.4 1105.4 751.7 1065.3 774.9" stroke="none" fill="#72849D" fill-rule="nonzero" />
    <path d="M1082.9 855.1C 1078 861 1072.1 866 1065.6 870C 1059.2999 873.6 1053.4 875.3 1048.2 875.2C 1035.7999 883.3 1026 900.9 1026 915.4L1026 915.4L1026.1 947.2L1026.1 949.4C 1037.4 951.60004 1051.1 948.80005 1065.7999 940.4C 1080.4999 932 1094.1 919 1105.3999 903.7L1105.3999 903.7L1105.3999 901.5L1105.2999 869.7C 1105.2 855.2 1095.3 849 1082.9 855.1" stroke="none" fill="#8836FF" fill-rule="nonzero" />
    <path d="M1065.3 796.3C 1050.7001 804.7 1039 825.1 1039 841.8C 1039 858.5 1050.9 865.3 1065.4 856.89996C 1079.9 848.49994 1091.7001 828.1 1091.7001 811.39996C 1091.7001 794.69995 1079.9 787.9 1065.3 796.3" stroke="none" fill="#8836FF" fill-rule="nonzero" />
    <path transform="matrix(0.3466 -0.938 0.938 0.3466 -166.1761 892.1715)"  d="M512.3 565.4C 512.3 540.5472 532.44714 520.4 557.3 520.4C 582.15283 520.4 602.3 540.5472 602.3 565.4C 602.3 590.25287 582.15283 610.4 557.3 610.4C 532.44714 610.4 512.3 590.25287 512.3 565.4" stroke="#72849D" stroke-width="4" fill="#FFFFFF" fill-rule="nonzero" />
    <path d="M588.6 565.3C 588.6 574.0261 585.5149 581.4743 579.3446 587.64453C 573.1743 593.8148 565.72614 596.89996 557 596.89996C 548.2739 596.89996 540.8257 593.8148 534.6554 587.64453C 528.48517 581.4743 525.4 574.0261 525.4 565.3C 525.4 556.5739 528.48517 549.12573 534.6554 542.95544C 540.8257 536.78516 548.2739 533.7 557 533.7C 565.72614 533.7 573.1743 536.78516 579.3446 542.95544C 585.5149 549.12573 588.6 556.5739 588.6 565.3C 588.6 565.6677 588.59357 566.03534 588.58075 566.40283" stroke="none" fill="#8836FF" fill-rule="nonzero" />
    <path d="M538.5 562.8L552.7 577.1L579.1 550.7" stroke="#FFFFFF" stroke-width="6" fill="none" />
</g>
</svg>