<?xml version="1.0" encoding="utf-8"?>
<!-- Generator: Adobe Illustrator 26.2.0, SVG Export Plug-In . SVG Version: 6.00 Build 0)  -->
<svg version="1.1" id="Layer_1" xmlns="http://www.w3.org/2000/svg" xmlns:xlink="http://www.w3.org/1999/xlink" x="0px" y="0px"
	 viewBox="0 0 250 250" style="enable-background:new 0 0 250 250;" xml:space="preserve">
<style type="text/css">
	.st0{fill:#FFFFFF;stroke:#72849D;stroke-width:0.8217;stroke-miterlimit:2.0543;}
	
		.st1{fill:none;stroke:#72849D;stroke-width:1.2326;stroke-linecap:round;stroke-linejoin:round;stroke-miterlimit:10;stroke-dasharray:0,2.4652;}
	.st2{fill:#FFFFFF;}
	.st3{fill:#B184FF;}
	.st4{fill:none;stroke:#72849D;stroke-width:0.8217;stroke-miterlimit:2.0543;}
	.st5{fill:#72849D;}
	.st6{fill:#8836FF;}
	
		.st7{opacity:0.8;fill:#F5F7FC;stroke:#8836FF;stroke-width:0.8217;stroke-miterlimit:2.0543;stroke-dasharray:4.1087,2.0543;enable-background:new    ;}
	.st8{fill:none;stroke:#FFFFFF;stroke-width:1.2326;stroke-miterlimit:2.0543;}
</style>
<ellipse class="st0" cx="148" cy="82.4" rx="82.7" ry="77"/>
<path class="st1" d="M34.5,148"/>
<polygon class="st2" points="200.1,109.3 200.1,53.8 148.4,26 96.8,53.8 96.8,109.3 148.4,137 "/>
<polygon class="st3" points="200.1,109.3 200.1,53.8 148.4,81.8 148.4,137 "/>
<polygon class="st4" points="200.1,109.3 200.1,53.8 148.4,26 96.8,53.8 96.8,109.3 148.4,137 "/>
<polyline class="st4" points="200.1,53.8 148.4,81.8 148.4,137 "/>
<line class="st4" x1="96.7" y1="53.8" x2="148.3" y2="81.8"/>
<path class="st5" d="M103.2,85.3l0.4,0.8c0.4,0.8,8.9,18.8,19.9,24.6c4.6,2.4,9.5,2.7,14.2,0.6c2.2-0.9,4.1-2.2,5.8-3.8l0.4-0.4
	l-0.4-0.8c-0.4-0.8-8.9-18.8-19.9-24.6c-4.6-2.5-9.5-2.7-14.2-0.6c-2.2,0.9-4.1,2.2-5.8,3.8L103.2,85.3z M105.6,86.6
	c1.8-1.6,9.3-7.5,17.9-2.8c8.7,4.7,16.1,18.5,17.9,22c-1.8,1.6-9.3,7.5-17.9,2.8C114.8,104,107.4,90.1,105.6,86.6L105.6,86.6z
	 M114.6,91.4c0,5.3,4,11.7,8.9,14.3c4.9,2.7,8.9,0.5,9-4.8c0-5.3-4-11.7-8.9-14.3S114.6,86.2,114.6,91.4L114.6,91.4z M123.6,88.8
	c3.8,2.1,7,7.1,6.9,11.2c0,4.1-3.1,5.8-7,3.7c-3.8-2.1-7-7.1-6.9-11.2C116.6,88.4,119.7,86.7,123.6,88.8L123.6,88.8z M123.6,93.4
	c1.6,1,2.5,2.5,2.6,4.3c0,1.6-1.2,2.2-2.7,1.4c-1.6-0.9-2.5-2.5-2.6-4.3C120.8,93.2,122,92.6,123.6,93.4L123.6,93.4z"/>
<path class="st6" d="M156.6,68.4c-2,1.1-4.8,1.6-7.5,1.6c-2.6-0.1-5.1-0.6-7-1.6c-2.8-1.5-3.7-3.7-2.4-5.8l3-5.9
	c-7,0.6-17.5,2.7-22.8-0.2c-2.1-1.1-3.1-2.7-3-4.2c0.1-1.3,1.1-2.6,3-3.6c3.4-1.8,14.9-2.9,19.8-3.7l14.3-2.1
	c3.7-0.7,7.9-0.2,10.7,1.3c2.8,1.5,3.7,3.7,2.4,5.8l-3.7,7.5c-0.7-1-1.5-1.8-2.6-2.4l2.8-5.7l0.1-0.1c0.8-1.3,0.2-2.8-1.6-3.7
	s-4.5-1.3-6.9-0.8l-0.2,0l-14.5,2.1c-3.7,0.6-15.7,1.8-18.2,3.2c-2.5,1.3-2.6,3.6,0,5l0.7,0.4c3.8,1.5,14.9-0.4,19.7-1
	c4.7-0.7,9.5-0.8,11.9-0.4c1.7,0.3,3.2,0.8,4.7,1.6l0.2,0.1c1.1,0.6,1.9,1.5,2.3,2.6c0.6,1.4,0.2,2-0.4,3.3
	C160.6,63.6,159.1,67.1,156.6,68.4z M151.9,67.8L151.9,67.8c0.7-0.2,1.4-0.5,2-0.8c1.7-0.9,3.2-4.2,4-5.8c0.9-1.8,1.2-3-1.2-4.3
	c-0.3-0.1-0.6-0.3-0.9-0.4c-3.2-1.3-8.4-0.8-9.9,1.3l-0.9,2l-0.1,0.3l-1.5,3l-0.1,0.1c-0.9,1.3-0.2,2.8,1.6,3.7
	c1.8,1,4.6,1.3,6.9,0.8L151.9,67.8"/>
<path class="st7" d="M49.3,161.2l72.6-64.1c0,0,0-0.1,0-0.2c0,0-0.1,0-0.1,0l-89.9,30.8"/>
<ellipse class="st0" cx="35.7" cy="146.6" rx="20.2" ry="18.8"/>
<ellipse class="st6" cx="35.5" cy="146.6" rx="14.2" ry="13.2"/>
<polyline class="st8" points="27.2,145.5 33.6,151.5 45.4,140.5 "/>
</svg>
