<?xml version="1.0" encoding="utf-8"?>
<!-- Generator: Adobe Illustrator 26.2.1, SVG Export Plug-In . SVG Version: 6.00 Build 0)  -->
<svg version="1.1" id="Layer_1" xmlns="http://www.w3.org/2000/svg" xmlns:xlink="http://www.w3.org/1999/xlink" 
	 viewBox="0 0 1216.9 1123.5" style="enable-background:new 0 0 608.45 561.75;" xml:space="preserve">
<style type="text/css">
	.st0{fill-rule:evenodd;clip-rule:evenodd;fill:#E7E0FC;}
	.st1{fill:none;stroke:#72849D;stroke-width:4;stroke-linecap:round;stroke-linejoin:round;stroke-dasharray:0,12;}
	.st2{fill:#8836FF;}
	.st3{fill:#6126BF;}
	.st4{fill:#DBCAFF;}
	.st5{fill:#72849D;stroke:#72849D;stroke-width:4;stroke-miterlimit:10;}
	.st6{fill:none;stroke:#FFFFFF;stroke-width:6;stroke-miterlimit:10;}
	.st7{fill:#FFFFFF;stroke:#72849D;stroke-width:4;stroke-miterlimit:10;}
	.st8{fill:none;stroke:#72849D;stroke-width:6;stroke-linecap:round;stroke-linejoin:round;stroke-dasharray:0,12;}
	.st9{fill:#FFFFFF;}
	.st10{fill:none;stroke:#72849D;stroke-width:4;stroke-miterlimit:10;}
	.st11{fill:#72849D;}
	.st12{fill:#B646EF;}
	
		.st13{opacity:0.8;fill:#F5F7FC;stroke:#8836FF;stroke-width:4;stroke-miterlimit:10;stroke-dasharray:20,10;enable-background:new    ;}
</style>
<path class="st0" d="M160.8,376.5V747c0,45.3,24.2,87.2,63.4,109.8l320.9,185.3c39.2,22.7,87.6,22.7,126.8,0l320.9-185.3
	c39.2-22.7,63.4-64.5,63.4-109.8V376.5c0-45.3-24.2-87.2-63.4-109.8L671.9,81.4c-39.2-22.7-87.6-22.7-126.8,0L224.2,266.6
	C184.9,289.3,160.8,331.2,160.8,376.5z"/>
<g>
	<line class="st1" x1="115.6" y1="819.6" x2="515.4" y2="584.7"/>
	<line class="st1" x1="556.9" y1="566.7" x2="1038.3" y2="278.4"/>
	<line class="st1" x1="559" y1="552.2" x2="557.5" y2="50.1"/>
	<line class="st1" x1="557.5" y1="1100.2" x2="557.5" y2="565.6"/>
	<line class="st1" x1="586.7" y1="1117.6" x2="1042.6" y2="303.5"/>
	<line class="st1" x1="1036.5" y1="799.8" x2="592.6" y2="8.7"/>
	<line class="st1" x1="68.6" y1="792.5" x2="501.7" y2="46.8"/>
	<line class="st1" x1="120.2" y1="885.5" x2="1000.6" y2="885.5"/>
	<line class="st1" x1="77.1" y1="281.3" x2="1000.6" y2="281.3"/>
	<polygon class="st2" points="233.5,762.2 233.5,746.8 219.6,739 205.7,746.8 205.7,762.2 219.6,769.9 	"/>
	<polygon class="st3" points="233.5,762.2 233.5,746.8 219.6,754.5 219.6,769.9 	"/>
	<polygon class="st4" points="233.5,746.8 219.6,739 205.7,746.8 219.6,754.5 	"/>
	<polygon class="st2" points="693.5,168.2 693.5,152.8 679.6,145.1 665.7,152.8 665.7,168.2 679.6,175.9 	"/>
	<polygon class="st3" points="693.5,168.2 693.5,152.8 679.6,160.6 679.6,175.9 	"/>
	<polygon class="st4" points="693.5,152.8 679.6,145.1 665.7,152.8 679.6,160.6 	"/>
	<polygon class="st2" points="657.2,112.7 657.2,97.3 643.3,89.6 629.4,97.3 629.4,112.7 643.3,120.4 	"/>
	<polygon class="st3" points="657.2,112.7 657.2,97.3 643.3,105.1 643.3,120.4 	"/>
	<polygon class="st4" points="657.2,97.3 643.3,89.6 629.4,97.3 643.3,105.1 	"/>
	<circle class="st5" cx="395.8" cy="886" r="22"/>
	<line class="st6" x1="385.1" y1="875.3" x2="406.5" y2="896.7"/>
	<line class="st6" x1="385.1" y1="896.7" x2="406.5" y2="875.3"/>
	<ellipse transform="matrix(0.9871 -0.1602 0.1602 0.9871 -29.1921 67.7293)" class="st7" cx="405.4" cy="214.9" rx="22" ry="22"/>
	<circle class="st7" cx="762.1" cy="806.5" r="22"/>
</g>
<circle class="st7" cx="807.6" cy="411.7" r="184.2"/>
<line class="st8" x1="554.8" y1="568.8" x2="186.2" y2="350.5"/>
<line class="st8" x1="1006.7" y1="829.8" x2="569.3" y2="575"/>
<polygon class="st9" points="923.7,476 923.7,343.2 808.6,276.8 693.6,343.2 693.6,476 808.6,542.5 "/>
<polygon class="st4" points="923.7,476 923.7,343.2 808.6,410.2 808.6,542.5 "/>
<polygon class="st10" points="923.7,476 923.7,343.2 808.6,276.8 693.6,343.2 693.6,476 808.6,542.5 "/>
<polyline class="st10" points="923.7,343.2 808.6,410.2 808.6,542.5 "/>
<line class="st10" x1="693.2" y1="343.2" x2="808.2" y2="410.2"/>
<path class="st11" d="M707.8,418.8l0.8,1.9c0.8,1.8,19.9,44.9,44.3,59c10.2,5.9,21.1,6.4,31.6,1.4c4.8-2.3,9.2-5.4,12.8-9.2l0.8-0.9
	l-0.8-1.9c-0.8-1.8-19.9-44.9-44.3-59c-10.2-5.9-21.1-6.4-31.6-1.4c-4.8,2.3-9.2,5.4-12.8,9.2L707.8,418.8z M713.2,421.8
	c4-3.8,20.6-17.9,39.9-6.8s35.9,44.4,39.8,52.8c-4,3.8-20.6,17.9-40,6.8S717.1,430.2,713.2,421.8L713.2,421.8z M733.2,433.4
	c0,12.6,8.9,28,19.8,34.4s19.9,1.2,20-11.4s-8.9-28-19.8-34.4S733.2,420.8,733.2,433.4L733.2,433.4z M753.2,427
	c8.5,4.9,15.5,17,15.5,26.8s-7,13.8-15.6,8.9s-15.5-17-15.5-26.8S744.5,422.1,753.2,427L753.2,427z M753.2,438
	c3.5,2.3,5.6,6.1,5.8,10.3c0,3.8-2.7,5.3-5.9,3.4c-3.5-2.3-5.7-6.1-5.9-10.2c0-3.8,2.6-5.3,5.9-3.4L753.2,438z"/>
<path class="st12" d="M826.9,378.1c-4.5,2.6-10.7,3.9-16.7,3.9c-5.7-0.2-11.3-1.4-15.6-3.9c-6.3-3.6-8.3-8.9-5.4-13.8l6.6-14.1
	c-15.7,1.5-38.9,6.4-50.8-0.5c-4.7-2.7-7-6.4-6.6-10.1c0.3-3.1,2.5-6.3,6.7-8.7c7.5-4.4,33.2-7,44.2-8.8l31.8-5
	c8.3-1.7,17.5-0.6,23.8,3s8.3,8.9,5.4,13.8l-8.2,17.9c-1.5-2.3-3.4-4.2-5.7-5.6l6.3-13.6l0.2-0.2c1.8-3,0.5-6.6-3.5-8.9
	s-10-3.1-15.4-2l-0.4,0.1l-32.2,5.1c-8.3,1.3-34.9,4.4-40.5,7.6s-5.8,8.7-0.1,12l1.6,0.9c8.4,3.6,33.2-1.1,43.9-2.3
	c10.4-1.6,21.1-2,26.5-1c3.7,0.6,7.2,2,10.4,3.9l0.4,0.2c2.4,1.4,4.3,3.6,5.2,6.3c1.4,3.5,0.5,4.9-1,7.8
	C835.8,366.6,832.3,375,826.9,378.1z M816.3,376.8v-0.1c1.6-0.4,3.1-1,4.5-1.8c3.8-2.2,7.1-10.1,8.9-13.8c1.9-4.2,2.7-7.1-2.8-10.3
	c-0.6-0.3-1.3-0.7-2-1c-7.2-3.1-18.7-1.9-22.1,3.2l-2.1,4.7l-0.3,0.8l-3.4,7.3L797,366c-2,3.1-0.5,6.6,3.5,8.9s10.1,3.1,15.4,2
	L816.3,376.8"/>
<path class="st13" d="M587.7,600.4l161.8-153.4c0.1-0.1,0.1-0.3,0-0.4c-0.1-0.1-0.1-0.1-0.2-0.1L549,520.4"/>
<path class="st9" d="M153.9,318.5c-14.6,8.4-26.4,1.6-26.5-15.1s11.7-37.1,26.3-45.5s26.4-1.7,26.5,15.1S168.5,310.1,153.9,318.5
	 M153.7,240c-38.4,22.2-69.6,76.2-69.4,120.3c0.1,27.3,12.1,44.5,30.3,48.5l-0.1-31.8c0-14.5,9.8-32.1,22.2-40.2
	c5.2,0.1,11.1-1.5,17.4-5.2c6.6-3.9,12.4-9,17.3-14.9c12.4-6.2,22.3,0,22.3,14.5l0.1,31.8c18.1-25,30-56,29.9-83.2
	C223.5,235.7,192.1,217.9,153.7,240"/>
<path class="st11" d="M114.5,408.8c-18.2-4-30.2-21.2-30.3-48.5c-0.1-44.1,31-98.1,69.4-120.3s69.8-4.3,69.9,39.8
	c0.1,27.3-11.8,58.3-29.9,83.2v2.2c-11.3,15.3-24.9,28.2-39.6,36.7s-28.3,11.2-39.6,9L114.5,408.8 M153.7,236.5
	C113.6,259.6,81,316,81.2,362.1s32.9,64.8,73,41.6s72.6-79.5,72.5-125.6S193.8,213.3,153.7,236.5"/>
<path class="st2" d="M171.3,316.7c-4.9,5.9-10.8,10.9-17.3,14.9c-6.2,3.6-12.1,5.3-17.4,5.2c-12.4,8.1-22.2,25.7-22.2,40.2l0.1,31.8
	v2.2c11.3,2.2,25-0.6,39.6-9s28.3-21.4,39.6-36.7v-2.2l-0.1-31.8C193.6,316.7,183.7,310.5,171.3,316.7"/>
<path class="st2" d="M153.7,257.9c-14.6,8.4-26.3,28.8-26.3,45.5s11.9,23.5,26.5,15.1s26.3-28.8,26.3-45.5S168.3,249.5,153.7,257.9"
	/>
<path class="st9" d="M1065.5,856.9c-14.6,8.4-26.4,1.7-26.4-15.1s11.7-37.1,26.3-45.5s26.4-1.7,26.5,15.1S1080.1,848.5,1065.5,856.9
	 M1065.3,778.4c-38.4,22.2-69.6,76.2-69.5,120.3c0.1,27.2,12.1,44.5,30.3,48.5l-0.1-31.8c0-14.5,9.8-32.1,22.2-40.2
	c5.2,0.1,11.1-1.5,17.4-5.2c6.6-3.9,12.4-9,17.3-14.9c12.4-6.2,22.3,0,22.3,14.5l0.1,31.8c18.1-25,30-56,29.9-83.2
	C1135.1,774.1,1103.7,756.3,1065.3,778.4"/>
<path class="st11" d="M1026.1,947.2c-18.2-4-30.2-21.2-30.3-48.5c-0.1-44.2,31-98.1,69.4-120.3s69.8-4.3,69.9,39.8
	c0.1,27.3-11.8,58.3-29.9,83.2v2.2c-11.3,15.3-24.9,28.2-39.6,36.7s-28.3,11.2-39.7,9L1026.1,947.2 M1065.3,774.9
	c-40.1,23.2-72.6,79.5-72.5,125.6s32.9,64.7,73,41.6s72.6-79.5,72.5-125.6S1105.4,751.7,1065.3,774.9"/>
<path class="st2" d="M1082.9,855.1c-4.9,5.9-10.8,10.9-17.3,14.9c-6.3,3.6-12.2,5.3-17.4,5.2c-12.4,8.1-22.2,25.7-22.2,40.2
	l0.1,31.8v2.2c11.3,2.2,25-0.6,39.7-9s28.3-21.4,39.6-36.7v-2.2l-0.1-31.8C1105.2,855.2,1095.3,849,1082.9,855.1"/>
<path class="st2" d="M1065.3,796.3c-14.6,8.4-26.3,28.8-26.3,45.5s11.9,23.5,26.4,15.1s26.3-28.8,26.3-45.5
	S1079.9,787.9,1065.3,796.3"/>
<ellipse transform="matrix(0.3466 -0.938 0.938 0.3466 -166.1761 892.1715)" class="st7" cx="557.3" cy="565.4" rx="45" ry="45"/>
<circle class="st2" cx="557" cy="565.3" r="31.6"/>
<polyline class="st6" points="538.5,562.8 552.7,577.1 579.1,550.7 "/>
</svg>
