<?xml version="1.0" encoding="utf-8"?>
<!-- Generator: Adobe Illustrator 26.3.1, SVG Export Plug-In . SVG Version: 6.00 Build 0)  -->
<svg version="1.1" id="Layer_1" xmlns="http://www.w3.org/2000/svg" xmlns:xlink="http://www.w3.org/1999/xlink" x="0px" y="0px"
	 viewBox="0 0 23 20" style="enable-background:new 0 0 23 20;" xml:space="preserve">
<style type="text/css">
	.st0{fill:#0066FF;}
</style>
<path class="st0" d="M22.5,9l-4.6-8c-0.4-0.6-1-1-1.7-1H6.9C6.2,0,5.6,0.4,5.2,1L0.6,9c-0.4,0.6-0.4,1.4,0,2l4.6,8
	c0.4,0.6,1,1,1.7,1h9.2c0.7,0,1.4-0.4,1.7-1l4.6-8C22.9,10.4,22.9,9.6,22.5,9z M11.6,16.9v-1.4c3,0,5.5-2.5,5.5-5.5
	s-2.5-5.5-5.5-5.5S6.1,7,6.1,10l0,0c0,1.2,0.4,2.4,1.1,3.3l1-1c-0.5-0.7-0.7-1.5-0.7-2.4c0-2.3,1.9-4.1,4.1-4.1s4.1,1.9,4.1,4.1
	s-1.9,4.1-4.1,4.1l0,0v-1.4c1.5,0,2.8-1.2,2.7-2.8c0-1.5-1.2-2.8-2.8-2.7C10,7.3,8.8,8.5,8.8,10c0,0.5,0.1,1,0.4,1.4l1-1
	c0-0.1-0.1-0.2-0.1-0.4c0-0.8,0.6-1.4,1.4-1.4c0.8,0,1.4,0.6,1.4,1.4c0,0.8-0.6,1.4-1.4,1.4c-0.1,0-0.3,0-0.4-0.1l-3.6,3.5
	c0,0-0.1,0.1-0.1,0.1c0,0,0,0,0,0c0,0-0.1,0-0.1,0c0,0,0,0-0.1,0l-0.1,0c0,0,0,0,0,0c0,0-0.1,0-0.1,0c0,0-0.1,0-0.1,0c0,0,0,0-0.1,0
	l-0.1,0c0,0,0,0-0.1,0c0,0-0.1,0-0.1,0c0,0,0,0,0,0c0,0,0,0-0.1-0.1c0,0,0,0,0,0C4,12.1,4.1,7.7,6.8,5.1s7.1-2.6,9.7,0.1
	s2.6,7.1-0.1,9.7C15.1,16.2,13.4,16.9,11.6,16.9L11.6,16.9z"/>
</svg>
