<svg width="24" height="24" viewBox="0 0 24 24" fill="none" xmlns="http://www.w3.org/2000/svg">
    <g opacity="0.9">
        <path d="M5.45887 3L1 7.01478L2.33826 8.50107L6.79713 4.48629L5.45887 3Z" fill="white"/>
        <path d="M11 9H13V13H16V15H11V9Z" fill="white"/>
        <path fill-rule="evenodd" clip-rule="evenodd" d="M3 13C3 8.02944 7.02944 4 12 4C16.9706 4 21 8.02944 21 13C21 17.9706 16.9706 22 12 22C7.02944 22 3 17.9706 3 13ZM5 13C5 9.13401 8.13401 6 12 6C15.866 6 19 9.13401 19 13C19 16.866 15.866 20 12 20C8.13401 20 5 16.866 5 13Z" fill="white"/>
        <path d="M18.5411 3L23 7.01478L21.6617 8.50107L17.2029 4.48629L18.5411 3Z" fill="white"/>
    </g>
</svg>
