<svg width="12" height="18" viewBox="0 0 12 18" fill="white" xmlns="http://www.w3.org/2000/svg">
<path d="M5.00023 1.17187C5.00023 0.895732 5.22409 0.671875 5.50023 0.671875L6.50023 0.671875C6.77638 0.671875 7.00023 0.895733 7.00023 1.17188L7.00023 13.5002L9.8892 10.6112C10.0845 10.416 10.401 10.416 10.5963 10.6112L11.3034 11.3183C11.4987 11.5136 11.4987 11.8302 11.3034 12.0254L6.35367 16.9752C6.15841 17.1704 5.84182 17.1704 5.64656 16.9752L0.696815 12.0254C0.501553 11.8302 0.501553 11.5136 0.696815 11.3183L1.40392 10.6112C1.59918 10.416 1.91577 10.416 2.11103 10.6112L5.00023 13.5004L5.00023 1.17187Z" />
</svg>
