<svg width="18" height="12" viewBox="0 0 18 12" fill="none" xmlns="http://www.w3.org/2000/svg">
<path d="M12.3921 0.695987C12.1964 0.501182 11.8798 0.501923 11.685 0.697641L10.9795 1.4064C10.7847 1.60212 10.7855 1.9187 10.9812 2.11351L13.897 5.01575L0.791992 5.02894C0.51585 5.02921 0.292217 5.2533 0.292495 5.52944L0.293502 6.52944C0.29378 6.80558 0.517862 7.02921 0.794004 7.02893L13.8618 7.01578L10.9993 9.89164C10.8045 10.0874 10.8053 10.4039 11.001 10.5987L11.7098 11.3042C11.9055 11.499 12.2221 11.4983 12.4169 11.3025L17.355 6.34124C17.5498 6.14552 17.5491 5.82894 17.3534 5.63414L12.3921 0.695987Z" fill="#C77BF9"/>
</svg>
