<svg width="38" height="38" viewBox="0 0 38 38" fill="none" xmlns="http://www.w3.org/2000/svg">
<path fill-rule="evenodd" clip-rule="evenodd" d="M36.9584 12.3334C37.207 13.4244 37.3334 14.5424 37.3334 15.6667H22.3334V0.666687C23.4577 0.666687 24.5757 0.79308 25.6667 1.04175C26.4873 1.22876 27.2925 1.48492 28.0737 1.80849C29.8935 2.56231 31.5471 3.66721 32.94 5.06008C34.3329 6.45296 35.4378 8.10655 36.1916 9.92643C36.5152 10.7076 36.7713 11.5128 36.9584 12.3334ZM33.5138 12.3334C33.3996 11.9503 33.2655 11.5727 33.112 11.202C32.5257 9.78658 31.6663 8.50046 30.583 7.41711C29.4996 6.33376 28.2135 5.4744 26.7981 4.88809C26.4274 4.73456 26.0498 4.60054 25.6667 4.48635V12.3334H33.5138Z" fill="#DE61E0"/>
<path fill-rule="evenodd" clip-rule="evenodd" d="M0.666748 22.3334C0.666748 14.0491 7.38248 7.33335 15.6667 7.33335C16.791 7.33335 17.9091 7.45975 19.0001 7.70841V19H30.2917C30.5404 20.091 30.6667 21.2091 30.6667 22.3334C30.6667 30.6176 23.951 37.3334 15.6667 37.3334C7.38248 37.3334 0.666748 30.6176 0.666748 22.3334ZM27.006 22.3334H15.6667V10.9941C9.40428 10.9941 4.32754 16.0709 4.32754 22.3334C4.32754 28.5958 9.40428 33.6726 15.6667 33.6726C21.9292 33.6726 27.006 28.5958 27.006 22.3334Z" fill="#DE61E0"/>
</svg>
