<svg width="48" height="48" viewBox="0 0 48 48" fill="none" xmlns="http://www.w3.org/2000/svg">
<path fill-rule="evenodd" clip-rule="evenodd" d="M45.5499 16C45.8483 17.3092 46 18.6508 46 20H28V2C29.3492 2 30.6908 2.15167 32 2.45007C32.9846 2.67448 33.9509 2.98188 34.8883 3.37017C37.0722 4.27475 39.0565 5.60062 40.7279 7.27208C42.3994 8.94353 43.7252 10.9278 44.6298 13.1117C45.0181 14.0491 45.3255 15.0154 45.5499 16ZM41.4164 16C41.2794 15.5404 41.1185 15.0872 40.9343 14.6424C40.2307 12.9439 39.1995 11.4005 37.8995 10.1005C36.5995 8.80048 35.0561 7.76925 33.3576 7.06569C32.9128 6.88145 32.4596 6.72063 32 6.58359V16H41.4164Z" fill="#DA99FF"/>
<path fill-rule="evenodd" clip-rule="evenodd" d="M2 28C2 18.0589 10.0589 10 20 10C21.3492 10 22.6908 10.1517 24 10.4501V24H37.5499C37.8483 25.3092 38 26.6508 38 28C38 37.9411 29.9411 46 20 46C10.0589 46 2 37.9411 2 28ZM33.607 28H20V14.393C12.485 14.393 6.39295 20.485 6.39295 28C6.39295 35.515 12.485 41.607 20 41.607C27.515 41.607 33.607 35.515 33.607 28Z" fill="#DA99FF"/>
</svg>