<svg width="40" height="40" viewBox="0 0 40 40" fill="none" xmlns="http://www.w3.org/2000/svg">
<path fill-rule="evenodd" clip-rule="evenodd" d="M37.9582 13.3334C38.2069 14.4244 38.3333 15.5424 38.3333 16.6667H23.3333V1.66669C24.4576 1.66669 25.5756 1.79308 26.6666 2.04175C27.4871 2.22876 28.2924 2.48492 29.0735 2.80849C30.8934 3.56231 32.547 4.66721 33.9399 6.06008C35.3328 7.45296 36.4377 9.10655 37.1915 10.9264C37.5151 11.7076 37.7712 12.5128 37.9582 13.3334ZM34.5136 13.3334C34.3994 12.9503 34.2654 12.5727 34.1119 12.202C33.5256 10.7866 32.6662 9.50046 31.5829 8.41711C30.4995 7.33376 29.2134 6.4744 27.7979 5.88809C27.4273 5.73456 27.0497 5.60054 26.6666 5.48635V13.3334H34.5136Z" fill="#C77BF9"/>
<path fill-rule="evenodd" clip-rule="evenodd" d="M1.66663 23.3334C1.66663 15.0491 8.38235 8.33335 16.6666 8.33335C17.7909 8.33335 18.9089 8.45975 20 8.70841V20H31.2916C31.5402 21.091 31.6666 22.2091 31.6666 23.3334C31.6666 31.6176 24.9509 38.3334 16.6666 38.3334C8.38235 38.3334 1.66663 31.6176 1.66663 23.3334ZM28.0058 23.3334H16.6666V11.9941C10.4042 11.9941 5.32742 17.0709 5.32742 23.3334C5.32742 29.5958 10.4042 34.6726 16.6666 34.6726C22.9291 34.6726 28.0058 29.5958 28.0058 23.3334Z" fill="#C77BF9"/>
</svg>
