<svg width="24" height="24" viewBox="0 0 24 24" fill="none" xmlns="http://www.w3.org/2000/svg">
<g opacity="0.9">
<path d="M16.1489 6.27983H12.5206C12.2445 6.27983 12.0206 6.05597 12.0206 5.77983V4.5C12.0206 4.22386 12.2445 4 12.5206 4H19.5C19.7761 4 20 4.22386 20 4.5V11.4794C20 11.7555 19.7761 11.9794 19.5 11.9794H18.2202C17.944 11.9794 17.7202 11.7555 17.7202 11.4794V7.93272L12.4723 13.1806C12.277 13.3759 11.9604 13.3759 11.7652 13.1806L10.8602 12.2756C10.6649 12.0804 10.6649 11.7638 10.8602 11.5685L16.1489 6.27983Z" fill="white"/>
<path d="M9.72017 6.72222C9.72017 6.44608 9.49631 6.22222 9.22017 6.22222H5.5C4.67157 6.22222 4 6.89379 4 7.72222V18.4012C4 19.2296 4.67157 19.9012 5.5 19.9012H16.179C17.0074 19.9012 17.679 19.2296 17.679 18.4012V14.7304C17.679 14.4543 17.4551 14.2304 17.179 14.2304H15.8992C15.623 14.2304 15.3992 14.4543 15.3992 14.7304V17.1214C15.3992 17.3975 15.1753 17.6214 14.8992 17.6214H6.77983C6.50369 17.6214 6.27983 17.3975 6.27983 17.1214V9.00205C6.27983 8.72591 6.50369 8.50205 6.77983 8.50205H9.22017C9.49631 8.50205 9.72017 8.27819 9.72017 8.00205V6.72222Z" fill="white"/>
</g>
</svg>
