<svg width="32" height="32" viewBox="0 0 32 32" fill="none" xmlns="http://www.w3.org/2000/svg">
<path d="M21.5318 8.37309H16.5274C16.2512 8.37309 16.0274 8.14923 16.0274 7.87309V5.83331C16.0274 5.55717 16.2512 5.33331 16.5274 5.33331H26.1666C26.4427 5.33331 26.6666 5.55717 26.6666 5.83331V15.4725C26.6666 15.7487 26.4427 15.9725 26.1666 15.9725H24.1268C23.8507 15.9725 23.6268 15.7487 23.6268 15.4725V10.5769L16.5118 17.692C16.3165 17.8872 15.9999 17.8872 15.8047 17.692L14.3623 16.2496C14.1671 16.0544 14.1671 15.7378 14.3623 15.5425L21.5318 8.37309Z" fill="#5392FF"/>
<path d="M12.9601 8.79628C12.9601 8.52013 12.7363 8.29628 12.4601 8.29628H6.83325C6.00482 8.29628 5.33325 8.96785 5.33325 9.79628V25.0349C5.33325 25.8633 6.00482 26.5349 6.83325 26.5349H22.0719C22.9003 26.5349 23.5719 25.8633 23.5719 25.0349V19.4739C23.5719 19.1977 23.348 18.9739 23.0719 18.9739H21.0321C20.756 18.9739 20.5321 19.1977 20.5321 19.4739V22.9951C20.5321 23.2713 20.3083 23.4951 20.0321 23.4951H8.87303C8.59688 23.4951 8.37303 23.2713 8.37303 22.9951V11.836C8.37303 11.5599 8.59688 11.336 8.87303 11.336H12.4601C12.7363 11.336 12.9601 11.1122 12.9601 10.836V8.79628Z" fill="#5392FF"/>
</svg>
