<svg width="24" height="24" viewBox="0 0 24 24" fill="none" xmlns="http://www.w3.org/2000/svg">
<g opacity="0.6">
<path d="M10.7952 1.27635C5.71787 1.82824 1.6339 5.9122 1.08202 10.8792C0.419752 16.3981 3.84145 21.1443 8.69806 22.6896V20.1509C8.69806 20.1509 8.25655 20.2613 7.70466 20.2613C6.15938 20.2613 5.49711 18.9367 5.38674 18.1641C5.27636 17.7226 5.05561 17.3915 4.72447 17.0603C4.39334 16.9499 4.28296 16.9499 4.28296 16.8396C4.28296 16.6188 4.6141 16.6188 4.72447 16.6188C5.38674 16.6188 5.93862 17.3915 6.15938 17.7226C6.71127 18.6056 7.37353 18.8264 7.70466 18.8264C8.14617 18.8264 8.47731 18.716 8.69806 18.6056C8.80844 17.833 9.13957 17.0603 9.80184 16.6188C7.26315 16.0669 5.38674 14.632 5.38674 12.2037C5.38674 10.9896 5.93862 9.77541 6.71127 8.89239C6.60089 8.67164 6.49051 8.11975 6.49051 7.34711C6.49051 6.9056 6.49051 6.24333 6.82164 5.58107C6.82164 5.58107 8.36693 5.58107 9.91221 7.01598C10.4641 6.79522 11.2367 6.68484 12.0094 6.68484C12.782 6.68484 13.5547 6.79522 14.2169 7.01598C15.6518 5.58107 17.3075 5.58107 17.3075 5.58107C17.5283 6.24333 17.5283 6.9056 17.5283 7.34711C17.5283 8.23013 17.4179 8.67164 17.3075 8.89239C18.0801 9.77541 18.632 10.8792 18.632 12.2037C18.632 14.632 16.7556 16.0669 14.2169 16.6188C14.8792 17.1707 15.3207 18.1641 15.3207 19.1575V22.7999C19.8462 21.365 23.0471 17.1707 23.0471 12.3141C23.0471 5.69145 17.4179 0.503707 10.7952 1.27635Z" fill="white"/>
</g>
</svg>
