<svg width="42" height="44" viewBox="0 0 42 44" fill="none" xmlns="http://www.w3.org/2000/svg">
<path fill-rule="evenodd" clip-rule="evenodd" d="M42 37.0526C42 33.2157 38.866 30.1053 35 30.1053C33.1125 30.1053 31.3996 30.8467 30.1406 32.0521L13.9471 22.8583C13.982 22.5771 14 22.2906 14 22C14 21.7094 13.982 21.4229 13.9471 21.1417L30.1406 11.9479C31.3996 13.1533 33.1125 13.8947 35 13.8947C38.866 13.8947 42 10.7843 42 6.94737C42 3.11044 38.866 0 35 0C31.134 0 28 3.11044 28 6.94737C28 7.23798 28.018 7.52443 28.0529 7.80568L11.8594 16.9994C10.6004 15.794 8.88746 15.0526 7 15.0526C3.13401 15.0526 0 18.1631 0 22C0 25.8369 3.13401 28.9474 7 28.9474C8.88746 28.9474 10.6004 28.206 11.8594 27.0006L28.0529 36.1943C28.018 36.4756 28 36.762 28 37.0526C28 40.8896 31.134 44 35 44C38.866 44 42 40.8896 42 37.0526ZM35 34C36.6569 34 38 35.3431 38 37C38 38.6569 36.6569 40 35 40C33.3431 40 32 38.6569 32 37C32 35.3431 33.3431 34 35 34ZM10 22C10 20.3431 8.65685 19 7 19C5.34315 19 4 20.3431 4 22C4 23.6569 5.34315 25 7 25C8.65685 25 10 23.6569 10 22ZM35 4C36.6569 4 38 5.34315 38 7C38 8.65685 36.6569 10 35 10C33.3431 10 32 8.65685 32 7C32 5.34315 33.3431 4 35 4Z" fill="#DA99FF"/>
</svg>
