<svg width="44" height="44" viewBox="0 0 44 44" fill="none" xmlns="http://www.w3.org/2000/svg">
<path fill-rule="evenodd" clip-rule="evenodd" d="M43.5499 14C43.8483 15.3092 44 16.6508 44 18H26V0C27.3492 0 28.6908 0.151671 30 0.450071C30.9846 0.674484 31.9509 0.981883 32.8883 1.37017C35.0722 2.27475 37.0565 3.60062 38.7279 5.27208C40.3994 6.94353 41.7252 8.92784 42.6298 11.1117C43.0181 12.0491 43.3255 13.0154 43.5499 14ZM39.4164 14C39.2794 13.5404 39.1185 13.0872 38.9343 12.6424C38.2307 10.9439 37.1995 9.40053 35.8995 8.1005C34.5995 6.80048 33.0561 5.76925 31.3576 5.06569C30.9128 4.88145 30.4596 4.72063 30 4.58359V14H39.4164Z" fill="#FF99A1"/>
<path fill-rule="evenodd" clip-rule="evenodd" d="M0 26C0 16.0589 8.05887 8 18 8C19.3492 8 20.6908 8.15167 22 8.45007V22H35.5499C35.8483 23.3092 36 24.6508 36 26C36 35.9411 27.9411 44 18 44C8.05887 44 0 35.9411 0 26ZM31.607 26H18V12.393C10.485 12.393 4.39295 18.485 4.39295 26C4.39295 33.515 10.485 39.607 18 39.607C25.515 39.607 31.607 33.515 31.607 26Z" fill="#FF99A1"/>
</svg>
