<svg width="22" height="22" viewBox="0 0 22 22" fill="none" xmlns="http://www.w3.org/2000/svg">
<path d="M5.07789 2.89807L20.7438 13.5947L16.8694 19.322L1.20352 8.54117L5.07789 2.89807Z" fill="url(#paint0_linear_397_195)"/>
<path d="M20.7437 13.5947C19.3961 15.5319 14.848 14.7738 10.5525 11.7417C6.17275 8.79383 3.81445 4.83524 5.07783 2.89805C6.42543 0.960873 10.9736 1.7189 15.2691 4.75101C19.6488 7.61467 22.0071 11.6575 20.7437 13.5947Z" fill="url(#paint1_linear_397_195)"/>
<path d="M16.8694 19.2377C15.5218 21.1749 10.9736 20.4169 6.67815 17.3848C2.38266 14.3527 -0.0598702 10.4783 1.28773 8.45689C2.63534 6.51971 7.18351 7.27774 11.479 10.3098C15.7745 13.342 18.1328 17.3005 16.8694 19.2377Z" fill="url(#paint2_linear_397_195)"/>
<path d="M20.7436 13.5946L16.8693 19.3219C15.5217 21.2591 10.9735 20.4169 6.67801 17.469C5.83576 16.8794 5.07773 16.2898 4.3197 15.616C4.90928 15.5318 5.66731 15.1949 6.42533 14.3526C7.77294 12.9208 8.44674 12.5839 9.03632 12.6681C9.6259 12.6681 10.2997 13.2577 11.3946 14.6895C12.4896 16.1214 14.0056 16.5425 14.9321 15.7845C15.0163 15.7003 15.1005 15.7003 15.1848 15.616C15.9428 15.0264 16.1955 14.7738 17.6273 12.0786C17.9642 11.4048 19.1434 10.3098 20.7436 10.8152C21.1648 11.9101 21.1648 12.8366 20.7436 13.5946Z" fill="#0E0F23"/>
<path fill-rule="evenodd" clip-rule="evenodd" d="M20.1542 13.2578C18.9751 14.9423 14.848 14.1 10.8894 11.3206C6.84663 8.54118 4.48832 5.00371 5.66748 3.31921C6.84663 1.6347 10.9737 2.47695 14.9323 5.25639C18.8909 8.03582 21.2492 11.5733 20.1542 13.2578ZM16.4483 10.731C15.8587 11.5733 13.8373 11.1522 11.8159 9.80456C9.87874 8.45695 8.69959 6.68822 9.28917 5.84597C9.87874 5.00371 11.9002 5.42484 13.9216 6.77244C15.8587 8.12005 17.0379 9.88878 16.4483 10.731Z" fill="white"/>
<path d="M4.74103 4.8353C4.74103 4.75107 4.65681 4.66685 4.57258 4.75107C4.48835 4.8353 4.40413 4.8353 4.40413 4.91952C4.48835 5.1722 4.57258 5.34065 4.57258 5.5091C4.57258 5.59333 4.6568 5.67755 4.74103 5.59333C4.82526 5.59333 4.90948 5.5091 4.82526 5.42488C4.82526 5.25643 4.82526 5.08797 4.74103 4.8353Z" fill="white"/>
<path d="M5.16202 6.18283C5.16202 6.09861 5.0778 6.01438 4.99357 6.09861C4.90935 6.18283 4.90935 6.18283 4.90935 6.26706C5.83583 8.37269 7.77301 10.6468 10.2998 12.3313C10.384 12.4155 10.4682 12.3313 10.5524 12.3313C10.6367 12.2471 10.5524 12.1628 10.5524 12.0786C7.94146 10.3941 6.0885 8.20424 5.16202 6.18283Z" fill="white"/>
<path d="M15.3534 14.4369C15.2692 14.4369 15.185 14.4369 15.185 14.5211C15.185 14.6053 15.185 14.6896 15.2692 14.6896C15.5219 14.7738 15.8588 14.858 16.1115 14.9422C16.1957 14.9422 16.2799 14.9422 16.2799 14.858C16.2799 14.7738 16.2799 14.6896 16.1957 14.6896C15.943 14.6053 15.6061 14.5211 15.3534 14.4369Z" fill="white"/>
<path d="M16.8693 14.7738C16.7851 14.7738 16.7009 14.858 16.7009 14.9423C16.7009 15.0265 16.7851 15.1107 16.8693 15.1107C17.5432 15.1949 18.3012 15.2792 18.8908 15.1949C18.975 15.1949 19.0592 15.1107 19.0592 15.0265C19.0592 14.9423 18.975 14.858 18.8908 14.858C18.217 14.9423 17.5432 14.858 16.8693 14.7738Z" fill="white"/>
<defs>
<linearGradient id="paint0_linear_397_195" x1="8.14722" y1="1.37722" x2="11.254" y2="12.0454" gradientUnits="userSpaceOnUse">
<stop stop-color="#03B8FF"/>
<stop offset="1" stop-color="#FA52A0"/>
</linearGradient>
<linearGradient id="paint1_linear_397_195" x1="10.7056" y1="0.632057" x2="13.8124" y2="11.3003" gradientUnits="userSpaceOnUse">
<stop stop-color="#03B8FF"/>
<stop offset="1" stop-color="#FA52A0"/>
</linearGradient>
<linearGradient id="paint2_linear_397_195" x1="5.5967" y1="2.11986" x2="8.70352" y2="12.7881" gradientUnits="userSpaceOnUse">
<stop stop-color="#03B8FF"/>
<stop offset="1" stop-color="#FA52A0"/>
</linearGradient>
</defs>
</svg>
