<svg width="22" height="22" viewBox="0 0 22 22" fill="none" xmlns="http://www.w3.org/2000/svg">
<g clip-path="url(#clip0_397_208)">
<path d="M8.6634 4.58901C8.44608 4.55779 8.43573 4.54738 8.53921 4.53698C8.73584 4.50576 9.19117 4.54738 9.51198 4.62022C10.2571 4.79712 10.9297 5.25498 11.6438 6.05624L11.8301 6.27476L12.0991 6.23314C13.2478 6.04583 14.4276 6.19152 15.4107 6.64938C15.6797 6.77425 16.104 7.02399 16.1558 7.08642C16.1765 7.10723 16.2075 7.24251 16.2282 7.37779C16.3007 7.86687 16.2696 8.23107 16.1144 8.51203C16.0316 8.66812 16.0316 8.70974 16.0833 8.84502C16.1247 8.94908 16.2489 9.02192 16.3627 9.02192C16.6111 9.02192 16.8698 8.6265 16.994 8.07498L17.0457 7.85646L17.1389 7.96052C17.6667 8.55366 18.0806 9.37572 18.1427 9.95845L18.1634 10.1145L18.0703 9.97926C17.915 9.73993 17.7701 9.58384 17.5735 9.44856C17.2217 9.20923 16.8491 9.13639 15.866 9.08436C14.976 9.03233 14.469 8.95949 13.9722 8.79299C13.1236 8.51203 12.689 8.14783 11.6852 6.80546C11.2402 6.21233 10.9608 5.88974 10.6814 5.61919C10.0708 5.02605 9.46024 4.71388 8.6634 4.58901Z" fill="#FF007A"/>
<path d="M16.3731 5.91056C16.3938 5.51513 16.4455 5.25498 16.5594 5.01565C16.6008 4.92199 16.6422 4.83875 16.6525 4.83875C16.6628 4.83875 16.6422 4.91159 16.6111 4.99483C16.5283 5.22376 16.518 5.54635 16.5697 5.91056C16.6422 6.37882 16.6732 6.44126 17.1699 6.95115C17.3976 7.19048 17.6667 7.49226 17.7701 7.61713L17.9461 7.84606L17.7701 7.67956C17.5528 7.47144 17.0561 7.07602 16.9423 7.02399C16.8698 6.98237 16.8595 6.98237 16.8077 7.03439C16.7663 7.07602 16.756 7.13845 16.756 7.44023C16.7456 7.90849 16.6835 8.19986 16.5283 8.50163C16.4455 8.65772 16.4352 8.6265 16.5076 8.4496C16.5594 8.31432 16.5697 8.25189 16.5697 7.80443C16.5697 6.89912 16.4662 6.68059 15.835 6.31639C15.6797 6.22273 15.4107 6.08746 15.2554 6.01461C15.0899 5.94177 14.9657 5.87934 14.976 5.87934C14.9967 5.85853 15.6073 6.03543 15.8453 6.13949C16.2075 6.28517 16.2696 6.29557 16.311 6.28517C16.342 6.25395 16.3627 6.1707 16.3731 5.91056Z" fill="#FF007A"/>
<path d="M9.08759 7.46104C8.65295 6.8575 8.37354 5.92097 8.43563 5.22377L8.45633 5.00525L8.55981 5.02606C8.74609 5.05728 9.06689 5.18215 9.22212 5.2758C9.63607 5.52554 9.82234 5.86894 9.99827 6.72222C10.05 6.97197 10.1225 7.26333 10.1535 7.35699C10.2052 7.51307 10.4019 7.87728 10.5674 8.10621C10.6813 8.27271 10.6088 8.35595 10.3501 8.33514C9.95687 8.29352 9.42909 7.92931 9.08759 7.46104Z" fill="#FF007A"/>
<path d="M15.8453 11.9877C13.7963 11.1552 13.0719 10.4372 13.0719 9.21968C13.0719 9.04278 13.0822 8.89709 13.0822 8.89709C13.0926 8.89709 13.165 8.95953 13.2582 9.03237C13.6721 9.36536 14.1378 9.51104 15.4314 9.69835C16.1868 9.81281 16.6215 9.89606 17.0147 10.0313C18.2669 10.4476 19.043 11.3009 19.2293 12.4559C19.2811 12.7889 19.25 13.4237 19.1672 13.7567C19.0948 14.0168 18.8878 14.4955 18.8361 14.5059C18.8257 14.5059 18.805 14.4539 18.805 14.3706C18.7843 13.9336 18.567 13.5173 18.2048 13.1947C17.7702 12.8201 17.2113 12.5392 15.8453 11.9877Z" fill="#FF007A"/>
<path d="M14.3965 12.3311C14.3758 12.175 14.3241 11.9773 14.293 11.894L14.2413 11.7379L14.3344 11.8524C14.4689 12.0085 14.5724 12.1958 14.6656 12.4559C14.738 12.6536 14.738 12.7161 14.738 13.0387C14.738 13.3508 14.7277 13.4237 14.6656 13.6006C14.5621 13.8815 14.4379 14.0792 14.2309 14.2978C13.8584 14.6828 13.372 14.8909 12.6786 14.9846C12.5545 14.995 12.2026 15.0262 11.8921 15.047C11.116 15.0886 10.5986 15.1719 10.1329 15.3384C10.0708 15.3592 10.0087 15.38 9.99836 15.3696C9.97766 15.3488 10.2985 15.1615 10.5572 15.0366C10.9194 14.8597 11.2919 14.766 12.1095 14.6204C12.5131 14.5579 12.927 14.4747 13.0305 14.433C14.055 14.1105 14.5621 13.3092 14.3965 12.3311Z" fill="#FF007A"/>
<path d="M15.3382 14.0064C15.0692 13.4132 15.0071 12.8513 15.152 12.3206C15.1727 12.2686 15.1934 12.2166 15.2141 12.2166C15.2347 12.2166 15.2968 12.2478 15.3589 12.2894C15.4831 12.3726 15.7418 12.5183 16.4041 12.8825C17.2424 13.3404 17.7184 13.6942 18.0496 14.1C18.3393 14.4538 18.5153 14.8597 18.598 15.3591C18.6498 15.6401 18.6187 16.3165 18.5463 16.5974C18.3186 17.4819 17.8012 18.1895 17.0458 18.5954C16.9319 18.6578 16.8388 18.6994 16.8284 18.6994C16.8181 18.6994 16.8595 18.5954 16.9216 18.4705C17.1699 17.9398 17.201 17.4299 17.0147 16.8576C16.9009 16.5038 16.6629 16.0771 16.1868 15.3591C15.6176 14.5267 15.4831 14.3081 15.3382 14.0064Z" fill="#FF007A"/>
<path d="M7.62853 17.1905C8.39432 16.5454 9.33604 16.0875 10.2053 15.9418C10.5779 15.8794 11.1988 15.9002 11.5403 15.9938C12.0888 16.1395 12.5855 16.4517 12.8442 16.8367C13.0926 17.2113 13.2064 17.5339 13.3202 18.2519C13.3616 18.5329 13.4134 18.8243 13.4237 18.8867C13.5065 19.2613 13.6721 19.5527 13.8791 19.7088C14.1999 19.9481 14.7587 19.9585 15.3072 19.7504C15.4003 19.7192 15.4831 19.6879 15.4831 19.6984C15.5038 19.7192 15.2244 19.9065 15.0381 20.0001C14.7794 20.1354 14.5724 20.177 14.293 20.177C13.7963 20.177 13.372 19.9169 13.0305 19.3966C12.958 19.2925 12.8132 18.9907 12.689 18.7098C12.3268 17.8669 12.1405 17.6172 11.7162 17.3362C11.3437 17.0969 10.8676 17.0448 10.5054 17.2217C10.0294 17.4507 9.90522 18.0646 10.2364 18.4392C10.3709 18.5953 10.6193 18.7202 10.8262 18.7514C11.2091 18.8034 11.5403 18.5017 11.5403 18.1167C11.5403 17.8669 11.4472 17.7212 11.1988 17.6068C10.8676 17.4611 10.5054 17.6276 10.5158 17.9502C10.5158 18.0854 10.5779 18.1687 10.7124 18.2311C10.7952 18.2727 10.7952 18.2727 10.7331 18.2623C10.433 18.1999 10.3606 17.8253 10.5986 17.586C10.8883 17.2946 11.4989 17.4195 11.7059 17.8253C11.7887 17.9918 11.799 18.3248 11.7266 18.5329C11.5506 18.9908 11.0539 19.2301 10.5468 19.0948C10.2053 19.0012 10.0604 18.9075 9.6465 18.4809C8.9221 17.7316 8.64269 17.586 7.60783 17.4299L7.41121 17.3986L7.62853 17.1905Z" fill="#FF007A"/>
<path fill-rule="evenodd" clip-rule="evenodd" d="M2.18509 0.447454C4.59631 3.39233 8.31145 7.97093 8.49773 8.22067C8.65296 8.42879 8.59086 8.62651 8.33215 8.77219C8.18727 8.85544 7.88716 8.93868 7.74228 8.93868C7.5767 8.93868 7.38008 8.85544 7.24555 8.72016C7.15241 8.62651 6.74882 8.03337 5.83814 6.60776C5.14479 5.51514 4.55492 4.60982 4.54457 4.59942C4.50317 4.5786 4.50317 4.5786 5.7657 6.84709C6.56254 8.2727 6.82126 8.78259 6.82126 8.84503C6.82126 8.98031 6.77986 9.05315 6.61429 9.24046C6.33487 9.55263 6.21069 9.90643 6.11755 10.6453C6.01407 11.4673 5.73466 12.0501 4.93781 13.0386C4.47213 13.6213 4.39969 13.7254 4.28585 13.9647C4.14097 14.2561 4.09958 14.4226 4.07888 14.7972C4.05818 15.1926 4.09958 15.4424 4.21341 15.817C4.3169 16.15 4.43073 16.3685 4.71015 16.7952C4.94816 17.1698 5.09304 17.4507 5.09304 17.5548C5.09304 17.638 5.11374 17.638 5.48629 17.5548C6.37627 17.3467 7.11102 16.9929 7.51461 16.5558C7.76298 16.2853 7.82507 16.1396 7.82507 15.765C7.82507 15.5256 7.81472 15.4736 7.75263 15.3279C7.64914 15.099 7.45252 14.9117 7.02823 14.6203C6.4694 14.2353 6.23139 13.9231 6.1693 13.5069C6.11755 13.1531 6.17964 12.9137 6.4901 12.2582C6.81091 11.5818 6.8937 11.3008 6.94544 10.614C6.97649 10.177 7.02823 10.0001 7.15241 9.86481C7.28694 9.71913 7.40078 9.6671 7.72158 9.62547C8.24936 9.55263 8.59086 9.41736 8.85993 9.15721C9.09795 8.93868 9.20143 8.72016 9.21178 8.39758L9.22213 8.15824L9.0876 8.01256C8.60121 7.45064 1.86428 0 1.83324 0C1.82289 0 1.98847 0.197712 2.18509 0.447454ZM5.36211 15.2447C5.47594 15.047 5.41385 14.7972 5.22757 14.6723C5.05165 14.5579 4.78259 14.6099 4.78259 14.766C4.78259 14.8076 4.80328 14.8492 4.86537 14.8701C4.95851 14.9221 4.96886 14.9741 4.89642 15.0886C4.82398 15.203 4.82398 15.3071 4.91712 15.3799C5.062 15.4944 5.25862 15.432 5.36211 15.2447Z" fill="#FF007A"/>
<path fill-rule="evenodd" clip-rule="evenodd" d="M9.55337 9.77116C9.305 9.84401 9.06699 10.1146 8.99455 10.3851C8.95315 10.5516 8.97385 10.8534 9.04629 10.947C9.16012 11.0927 9.26361 11.1343 9.55337 11.1343C10.1225 11.1343 10.6089 10.8846 10.6607 10.5828C10.7124 10.3331 10.4951 9.98969 10.195 9.8336C10.0398 9.75035 9.71895 9.71913 9.55337 9.77116ZM10.2157 10.2915C10.2985 10.1666 10.2674 10.0313 10.1122 9.93766C9.83278 9.76076 9.40849 9.90644 9.40849 10.177C9.40849 10.3123 9.62581 10.458 9.83278 10.458C9.96731 10.458 10.1536 10.3747 10.2157 10.2915Z" fill="#FF007A"/>
</g>
<defs>
<clipPath id="clip0_397_208">
<rect width="17.4167" height="20.1667" fill="white" transform="translate(1.83333)"/>
</clipPath>
</defs>
</svg>
